<?xml version="1.0" encoding="UTF-8" standalone="no"?>
<!-- Created with Inkscape (http://www.inkscape.org/) -->

<svg
   xmlns:dc="http://purl.org/dc/elements/1.1/"
   xmlns:cc="http://creativecommons.org/ns#"
   xmlns:rdf="http://www.w3.org/1999/02/22-rdf-syntax-ns#"
   xmlns:svg="http://www.w3.org/2000/svg"
   xmlns="http://www.w3.org/2000/svg"
   xmlns:sodipodi="http://sodipodi.sourceforge.net/DTD/sodipodi-0.dtd"
   xmlns:inkscape="http://www.inkscape.org/namespaces/inkscape"
   version="1.1"
   width="52.813442"
   height="52.885532"
   id="svg2"
   inkscape:version="0.48.4 r9939"
   sodipodi:docname="f_affiche_image_from_extension.svg">
  <sodipodi:namedview
     pagecolor="#ffffff"
     bordercolor="#666666"
     borderopacity="1"
     objecttolerance="10"
     gridtolerance="10"
     guidetolerance="10"
     inkscape:pageopacity="0"
     inkscape:pageshadow="2"
     inkscape:window-width="1600"
     inkscape:window-height="824"
     id="namedview9"
     showgrid="false"
     inkscape:zoom="7.5764138"
     inkscape:cx="42.730447"
     inkscape:cy="8.6723159"
     inkscape:window-x="0"
     inkscape:window-y="24"
     inkscape:window-maximized="1"
     inkscape:current-layer="layer1"
     fit-margin-top="0"
     fit-margin-left="0"
     fit-margin-right="0"
     fit-margin-bottom="0" />
  <defs
     id="defs4" />
  <metadata
     id="metadata7">
    <rdf:RDF>
      <cc:Work
         rdf:about="">
        <dc:format>image/svg+xml</dc:format>
        <dc:type
           rdf:resource="http://purl.org/dc/dcmitype/StillImage" />
        <dc:title />
      </cc:Work>
    </rdf:RDF>
  </metadata>
  <g
     transform="translate(466.41235,-355.09022)"
     id="layer1">
    <path
       style="fill:#0b0c0e"
       d="m -450.52678,407.79657 c -0.1796,-0.29022 0.24153,-0.6945 2.76144,-2.65261 1.12048,-0.87067 2.19488,-1.88787 2.38759,-2.26051 0.19252,-0.37261 0.40258,-1.3924 0.46645,-2.26615 0.18224,-2.49114 0.15409,-2.47706 4.9641,-2.47706 4.82254,0 4.7969,-0.0114 4.97651,2.51048 0.0637,0.89575 0.29433,1.91867 0.52115,2.31217 0.22392,0.3882 1.46026,1.51302 2.74778,2.49969 1.28751,0.98661 2.34091,1.93937 2.34091,2.11725 0,0.26853 -1.7806,0.33375 -10.51217,0.38461 -6.63408,0.0388 -10.56442,-0.0235 -10.65376,-0.16787 z m -13.6179,-11.545 c -0.36974,-0.11087 -0.88718,-0.39281 -1.14991,-0.62672 -1.13116,-1.007 -1.1186,-0.78226 -1.11767,-20.00248 8.4e-4,-17.60932 0.0114,-18.08247 0.46838,-18.82993 0.25708,-0.42171 0.81249,-0.97709 1.23419,-1.23419 0.75174,-0.45837 1.23284,-0.46752 24.64486,-0.46803 22.2692,-4.1e-4 23.93247,0.0264 24.6848,0.41083 0.44367,0.22626 1.02593,0.71021 1.29388,1.07552 0.48308,0.6585 0.48724,0.82261 0.48724,19.21467 0,18.39205 -0.007,18.55612 -0.48724,19.21466 -0.26792,0.36528 -0.85021,0.84929 -1.29388,1.07552 -0.7529,0.38391 -2.38178,0.40999 -24.44953,0.39146 -13.00362,-0.008 -23.9454,-0.1107 -24.31512,-0.22128 z m 45.75687,-8.64262 c 1.67055,-1.03884 1.6327,-0.68431 1.56021,-14.61315 -0.0634,-12.18155 -0.0756,-12.47684 -0.55208,-13.12588 -0.26792,-0.36519 -0.85024,-0.84908 -1.29386,-1.07533 -0.74969,-0.38225 -2.25265,-0.41133 -21.27366,-0.41133 -19.02103,0 -20.52397,0.0293 -21.27363,0.41133 -0.4437,0.22627 -1.02594,0.71014 -1.29389,1.07533 -0.47615,0.64888 -0.48876,0.94636 -0.55359,13.05653 -0.0599,11.17229 -0.0264,12.47888 0.32744,13.26952 0.40685,0.90602 1.13307,1.51698 2.18872,1.84138 0.33463,0.10267 9.76569,0.16846 20.95784,0.1459 l 20.34935,-0.0411 0.85715,-0.53306 z"
       id="path3137"
       inkscape:connector-curvature="0" />
  </g>
</svg>
