<?xml version="1.0" encoding="UTF-8" standalone="no"?>
<!-- Created with Inkscape (http://www.inkscape.org/) -->

<svg
   xmlns:dc="http://purl.org/dc/elements/1.1/"
   xmlns:cc="http://creativecommons.org/ns#"
   xmlns:rdf="http://www.w3.org/1999/02/22-rdf-syntax-ns#"
   xmlns:svg="http://www.w3.org/2000/svg"
   xmlns="http://www.w3.org/2000/svg"
   xmlns:sodipodi="http://sodipodi.sourceforge.net/DTD/sodipodi-0.dtd"
   xmlns:inkscape="http://www.inkscape.org/namespaces/inkscape"
   version="1.1"
   width="30.922817"
   height="29.256502"
   id="svg2"
   inkscape:version="0.48.4 r9939"
   sodipodi:docname="f_checkbox.svg">
  <sodipodi:namedview
     pagecolor="#ffffff"
     bordercolor="#666666"
     borderopacity="1"
     objecttolerance="10"
     gridtolerance="10"
     guidetolerance="10"
     inkscape:pageopacity="0"
     inkscape:pageshadow="2"
     inkscape:window-width="1600"
     inkscape:window-height="824"
     id="namedview9"
     showgrid="false"
     inkscape:zoom="3.7882069"
     inkscape:cx="31.413334"
     inkscape:cy="25.196713"
     inkscape:window-x="0"
     inkscape:window-y="24"
     inkscape:window-maximized="1"
     inkscape:current-layer="layer1"
     fit-margin-top="0"
     fit-margin-left="0"
     fit-margin-right="0"
     fit-margin-bottom="0" />
  <defs
     id="defs4" />
  <metadata
     id="metadata7">
    <rdf:RDF>
      <cc:Work
         rdf:about="">
        <dc:format>image/svg+xml</dc:format>
        <dc:type
           rdf:resource="http://purl.org/dc/dcmitype/StillImage" />
        <dc:title />
      </cc:Work>
    </rdf:RDF>
  </metadata>
  <g
     transform="translate(448.00215,-368.55286)"
     id="layer1">
    <path
       style="fill:#000000"
       d="m -445.0126,397.69337 c -1.31537,-0.3293 -2.09846,-0.93786 -2.67698,-2.08034 -0.27708,-0.54717 -0.31257,-1.84047 -0.31257,-11.39003 l 0,-10.77277 0.55675,-0.8779 c 0.37009,-0.58356 0.84315,-1.01655 1.41101,-1.29144 0.84058,-0.40691 1.01864,-0.41354 11.11214,-0.41354 5.76443,0 10.25787,0.0742 10.25787,0.16944 0,0.0932 -0.46951,0.57056 -1.04335,1.06081 l -1.04335,0.89136 -8.66802,0 c -5.97002,0 -8.86353,0.0682 -9.29615,0.21898 -1.16023,0.40446 -1.16529,0.4528 -1.16529,11.16398 0,10.5177 0.007,10.58983 1.08261,10.99873 0.28585,0.10869 4.48939,0.18459 10.22266,0.18459 10.73368,0 10.63203,0.0109 11.04722,-1.18017 0.14325,-0.41093 0.21379,-3.26876 0.21379,-8.66199 l 0,-8.04872 0.87764,-1.13224 c 0.4827,-0.62273 0.96006,-1.16116 1.0608,-1.19652 0.11409,-0.0401 0.18317,3.65504 0.18317,9.79794 0,8.71008 -0.0365,9.93434 -0.31257,10.47949 -0.44562,0.88003 -0.83362,1.27577 -1.71261,1.74682 -0.75854,0.4065 -0.94308,0.41399 -10.99382,0.44591 -5.62228,0.0179 -10.48271,-0.0327 -10.80095,-0.11239 z m 7.7662,-7.78683 c -1.22468,-1.82597 -3.10422,-4.52675 -4.17674,-6.00172 -1.07251,-1.47498 -1.95003,-2.82436 -1.95003,-2.99863 0,-0.48812 1.45207,-1.81412 1.86708,-1.70498 0.19302,0.0508 1.71524,1.06741 3.38268,2.2592 1.66744,1.19178 3.12259,2.11072 3.23367,2.04207 0.11107,-0.0686 0.7741,-0.8349 1.47338,-1.70278 4.07271,-5.05464 9.65347,-10.43136 13.17762,-12.69586 0.68399,-0.4395 1.07748,-0.55098 1.94482,-0.55098 0.59804,0 1.14282,0.0555 1.21064,0.1233 0.0678,0.0678 -0.74583,1.0336 -1.80809,2.14619 -4.38476,4.59254 -9.41888,11.54294 -14.52182,20.04967 -0.71391,1.1901 -1.36742,2.20672 -1.45226,2.25915 -0.0848,0.0524 -1.15626,-1.39865 -2.38095,-3.22463 z"
       id="path2996"
       inkscape:connector-curvature="0" />
  </g>
</svg>
