<?xml version="1.0" encoding="UTF-8" standalone="no"?>
<!-- Created with Inkscape (http://www.inkscape.org/) -->

<svg
   xmlns:dc="http://purl.org/dc/elements/1.1/"
   xmlns:cc="http://creativecommons.org/ns#"
   xmlns:rdf="http://www.w3.org/1999/02/22-rdf-syntax-ns#"
   xmlns:svg="http://www.w3.org/2000/svg"
   xmlns="http://www.w3.org/2000/svg"
   xmlns:sodipodi="http://sodipodi.sourceforge.net/DTD/sodipodi-0.dtd"
   xmlns:inkscape="http://www.inkscape.org/namespaces/inkscape"
   version="1.1"
   width="34.437504"
   height="34.46875"
   id="svg2"
   inkscape:version="0.48.4 r9939"
   sodipodi:docname="f_convert_image_float_to_uchar.svg">
  <sodipodi:namedview
     pagecolor="#ffffff"
     bordercolor="#666666"
     borderopacity="1"
     objecttolerance="10"
     gridtolerance="10"
     guidetolerance="10"
     inkscape:pageopacity="0"
     inkscape:pageshadow="2"
     inkscape:window-width="1600"
     inkscape:window-height="824"
     id="namedview9"
     showgrid="false"
     inkscape:zoom="7.5764138"
     inkscape:cx="3.0886346"
     inkscape:cy="8.7924394"
     inkscape:window-x="0"
     inkscape:window-y="24"
     inkscape:window-maximized="1"
     inkscape:current-layer="svg2"
     fit-margin-top="0"
     fit-margin-left="0"
     fit-margin-right="0"
     fit-margin-bottom="0"
     showguides="true"
     inkscape:guide-bbox="true" />
  <defs
     id="defs4" />
  <metadata
     id="metadata7">
    <rdf:RDF>
      <cc:Work
         rdf:about="">
        <dc:format>image/svg+xml</dc:format>
        <dc:type
           rdf:resource="http://purl.org/dc/dcmitype/StillImage" />
        <dc:title />
      </cc:Work>
    </rdf:RDF>
  </metadata>
  <g
     transform="translate(457.34375,-367.5625)"
     id="layer1">
    <path
       d="m -428.68858,396.24972 a 16.194232,16.194232 0 0 1 -22.9021,-22.9021 16.194232,16.194232 0 1 1 22.9021,22.9021 z"
       id="path3045"
       style="fill:#ffffff;stroke:#000000;stroke-width:2.06197047;stroke-miterlimit:4;stroke-dasharray:none"
       inkscape:connector-curvature="0" />
    <g
       style="font-size:360.35116577px;font-style:normal;font-weight:normal;line-height:125%;letter-spacing:0px;word-spacing:0px;fill:#000000;fill-opacity:1;stroke:none;font-family:Sans"
       id="text3202"
       transform="matrix(0.06089312,0.06089312,-0.06089312,0.06089312,-389.10266,387.91959)">
      <g
         transform="matrix(0.69815948,-0.71594228,0.71594228,0.69815948,0,0)"
         style="font-size:73.40565491px;font-variant:normal;font-stretch:normal;text-indent:0;text-align:start;text-decoration:none;line-height:125%;text-transform:none;direction:ltr;block-progression:tb;writing-mode:lr-tb;text-anchor:start;baseline-shift:baseline;color:#000000;fill:#000000;fill-rule:nonzero;stroke-width:1px;marker:none;visibility:visible;display:inline;overflow:visible;enable-background:accumulate;font-family:Times New Roman;-inkscape-font-specification:Times New Roman"
         id="text2985">
        <path
           d="m -640.80209,-123.73869 0,21.57725 c -2e-5,3.058571 0.33451,4.994069 1.00359,5.806498 0.8841,1.051385 2.0669,1.577076 3.54842,1.577075 l 2.97493,0 0,1.290333 -19.6059,0 0,-1.290333 1.46954,0 c 0.9558,10e-7 1.82797,-0.23895 2.61652,-0.716852 0.78852,-0.477899 1.32616,-1.123066 1.61291,-1.935501 0.31063,-0.812428 0.46595,-2.389501 0.46596,-4.73122 l 0,-21.57725 -6.37999,0 0,-2.58067 6.37999,0 0,-2.15056 c -10e-6,-3.27358 0.52568,-6.04541 1.57707,-8.31548 1.05137,-2.26999 2.65234,-4.09796 4.80291,-5.48392 2.17443,-1.40976 4.61173,-2.11466 7.31189,-2.11471 2.50896,5e-5 4.81483,0.81248 6.91762,2.43729 1.38589,1.07533 2.07884,2.28203 2.07888,3.62011 -4e-5,0.71689 -0.31067,1.3979 -0.93191,2.04303 -0.6213,0.62131 -1.29037,0.93195 -2.00719,0.9319 -0.54961,5e-5 -1.13504,-0.19111 -1.75629,-0.57348 -0.5974,-0.40617 -1.33815,-1.25445 -2.22224,-2.54482 -0.88414,-1.31419 -1.69657,-2.1983 -2.43729,-2.65236 -0.74077,-0.45395 -1.56515,-0.68096 -2.47314,-0.68101 -1.0992,5e-5 -2.0311,0.29874 -2.79573,0.89607 -0.76466,0.57353 -1.31424,1.48154 -1.64876,2.72404 -0.33454,1.21869 -0.50181,4.38478 -0.50179,9.49829 l 0,2.36561 8.45885,0 0,2.58067 -8.45885,0"
           style="marker:none"
           id="path3770" />
        <path
           d="m -617.82698,-144.45572 0,43.54877 c -2e-5,2.054979 0.14335,3.416996 0.43011,4.086054 0.31062,0.669065 0.77657,1.182808 1.39786,1.541232 0.62125,0.334533 1.78016,0.501798 3.47673,0.501797 l 0,1.290333 -16.09333,0 0,-1.290333 c 1.50539,10e-7 2.53287,-0.155317 3.08247,-0.465954 0.54958,-0.310634 0.97969,-0.824378 1.29033,-1.541232 0.31063,-0.716848 0.46595,-2.090813 0.46595,-4.121897 l 0,-29.82105 c 0,-3.70369 -0.0836,-5.97372 -0.25089,-6.8101 -0.16728,-0.86017 -0.44207,-1.4456 -0.82438,-1.75628 -0.35844,-0.31059 -0.82439,-0.46591 -1.39787,-0.46596 -0.62127,5e-5 -1.40981,0.19121 -2.36561,0.57349 l -0.60932,-1.2545 9.78503,-4.01437 1.61292,0"
           style="marker:none"
           id="path3772" />
        <path
           d="m -592.70132,-127.28711 c 4.97015,3e-5 8.96062,1.88774 11.97143,5.66313 2.55674,3.22586 3.83512,6.92959 3.83516,11.11121 -4e-5,2.93911 -0.70494,5.91404 -2.11472,8.92481 -1.40984,3.010782 -3.35728,5.280811 -5.84234,6.810093 -2.46122,1.529284 -5.20915,2.293925 -8.2438,2.293926 -4.94629,-10e-7 -8.87703,-1.971342 -11.79222,-5.914029 -2.46119,-3.32141 -3.69179,-7.04903 -3.69178,-11.18289 -10e-6,-3.01076 0.74074,-5.99764 2.22224,-8.96065 1.50538,-2.98686 3.47672,-5.1852 5.91403,-6.59504 2.43728,-1.43367 5.01795,-2.15053 7.742,-2.15056 m -1.11112,2.32977 c -1.26646,3e-5 -2.54484,0.38235 -3.83516,1.14696 -1.26645,0.74078 -2.29394,2.05501 -3.08246,3.94269 -0.78855,1.88773 -1.18282,4.31308 -1.18281,7.27605 -10e-6,4.77903 0.94385,8.90092 2.83157,12.3657 1.91159,3.464785 4.42057,5.197176 7.52694,5.197174 2.3178,2e-6 4.22941,-0.9558 5.73482,-2.867408 1.50536,-1.911599 2.25806,-5.197166 2.25808,-9.856716 -2e-5,-5.83038 -1.25451,-10.41823 -3.76347,-13.76356 -1.69657,-2.2939 -3.85907,-3.44086 -6.48751,-3.44089"
           style="marker:none"
           id="path3774" />
        <path
           d="m -553.45367,-98.218757 c -3.36922,2.604564 -5.48393,4.109952 -6.34414,4.516168 -1.29035,0.597376 -2.66431,0.896064 -4.1219,0.896065 -2.27004,-10e-7 -4.1458,-0.77659 -5.62729,-2.329769 -1.4576,-1.553177 -2.1864,-3.596203 -2.1864,-6.129087 0,-1.60096 0.35843,-2.98687 1.07528,-4.15774 0.97969,-1.62485 2.67624,-3.15414 5.08965,-4.58785 2.43729,-1.43369 6.47555,-3.17803 12.1148,-5.23302 l 0,-1.29034 c -2e-5,-3.2736 -0.52571,-5.51973 -1.57707,-6.73841 -1.02751,-1.21862 -2.5329,-1.82794 -4.51617,-1.82797 -1.5054,3e-5 -2.70016,0.40625 -3.58426,1.21865 -0.90802,0.81246 -1.36203,1.74437 -1.36202,2.79572 l 0.0717,2.07887 c -10e-6,1.0992 -0.28675,1.94747 -0.86022,2.54483 -0.54959,0.5974 -1.27839,0.89608 -2.1864,0.89606 -0.88412,2e-5 -1.61292,-0.31061 -2.1864,-0.93191 -0.54959,-0.62124 -0.82438,-1.46952 -0.82438,-2.54482 0,-2.05495 1.05138,-3.94266 3.15415,-5.66313 2.10276,-1.72041 5.0538,-2.58064 8.85313,-2.58067 2.91518,3e-5 5.30468,0.48988 7.16852,1.46955 1.40978,0.74078 2.44922,1.89969 3.1183,3.47673 0.43009,1.02752 0.64514,3.13028 0.64517,6.3083 l 0,11.14705 c -3e-5,3.13026 0.0597,5.053812 0.17921,5.770657 0.11945,0.692962 0.31061,1.158916 0.57349,1.397862 0.28671,0.238955 0.60929,0.35843 0.96775,0.358426 0.38229,4e-6 0.71682,-0.08363 1.00359,-0.250898 0.50177,-0.310632 1.46952,-1.182801 2.90325,-2.616507 l 0,2.007183 c -2.67628,3.584261 -5.23305,5.37639 -7.67032,5.37639 -1.17088,0 -2.10279,-0.406216 -2.79572,-1.218648 -0.69298,-0.812431 -1.0514,-2.198344 -1.07528,-4.157742 m 0,-2.329773 0,-12.50907 c -3.60817,1.43373 -5.93794,2.44927 -6.98931,3.04663 -1.88772,1.05139 -3.23779,2.15057 -4.05021,3.29752 -0.81244,1.14697 -1.21866,2.40146 -1.21865,3.76347 -10e-6,1.72045 0.51374,3.154154 1.54123,4.301111 1.02748,1.123073 2.21028,1.684606 3.54842,1.684603 1.81601,3e-6 4.20552,-1.194749 7.16852,-3.584264"
           style="marker:none"
           id="path3776" />
        <path
           d="m -529.97676,-137.10798 0,10.78862 7.67032,0 0,2.50898 -7.67032,0 0,21.29051 c -10e-6,2.12667 0.29868,3.560371 0.89607,4.301113 0.62126,0.740751 1.40979,1.111124 2.36561,1.11112 0.78852,4e-6 1.55316,-0.238947 2.29393,-0.716852 0.74073,-0.501791 1.31421,-1.23059 1.72044,-2.186401 l 1.39786,0 c -0.83634,2.341723 -2.01915,4.109957 -3.54842,5.304708 -1.52929,1.170858 -3.10637,1.756287 -4.73122,1.756288 -1.09918,-10e-7 -2.17446,-0.298689 -3.22583,-0.896066 -1.05139,-0.62127 -1.82798,-1.49344 -2.32977,-2.61651 -0.50181,-1.146959 -0.7527,-2.903245 -0.7527,-5.26886 l 0,-22.07905 -5.19718,0 0,-1.1828 c 1.31423,-0.52566 2.65235,-1.40978 4.01438,-2.65236 1.3859,-1.2664 2.6165,-2.75984 3.69178,-4.48032 0.54958,-0.90797 1.31422,-2.56868 2.29393,-4.98212 l 1.11112,0"
           style="marker:none"
           id="path3778" />
      </g>
      <g
         transform="matrix(0.69815948,-0.71594228,0.71594228,0.69815948,0,0)"
         style="font-size:89.90597534px;font-variant:normal;font-stretch:normal;text-indent:0;text-align:start;text-decoration:none;line-height:125%;text-transform:none;direction:ltr;block-progression:tb;writing-mode:lr-tb;text-anchor:start;baseline-shift:baseline;color:#000000;fill:#000000;fill-rule:nonzero;stroke-width:1px;marker:none;visibility:visible;display:inline;overflow:visible;enable-background:accumulate;font-family:Times New Roman;-inkscape-font-specification:Times New Roman"
         id="text2989">
        <path
           d="m -648.32166,-17.340062 0,32.134363 c -5e-5,3.131496 0.29262,5.092334 0.87798,5.882519 0.58529,0.760926 1.77057,1.243819 3.55586,1.448681 l 0,1.580378 -16.72568,0 0,-5.487425 c -1.96086,2.341305 -3.9217,4.05338 -5.88252,5.13623 -1.96086,1.053585 -4.15583,1.580377 -6.58491,1.580378 -2.31205,-10e-7 -4.37532,-0.70239 -6.18981,-2.107171 -1.78525,-1.434045 -2.98517,-3.10222 -3.59975,-5.004532 -0.6146,-1.902299 -0.9219,-5.224017 -0.92189,-9.9651639 l 0,-16.2866782 c -10e-6,-3.1021889 -0.29267,-5.0337609 -0.87799,-5.7947209 -0.55606,-0.760884 -1.74135,-1.25841 -3.55585,-1.49258 l 0,-1.624278 16.72567,0 0,28.051718 c -2e-5,2.926637 0.13168,4.814309 0.3951,5.663023 0.29264,0.848728 0.73163,1.492586 1.31698,1.931574 0.61457,0.438999 1.31696,0.658496 2.10717,0.658491 1.05356,5e-6 2.00471,-0.278025 2.85346,-0.834089 1.17062,-0.760916 2.5754,-2.297394 4.21434,-4.609437 l 0,-21.9497011 c -3e-5,-3.1021889 -0.29269,-5.0337609 -0.87798,-5.7947209 -0.55609,-0.760884 -1.74137,-1.25841 -3.55586,-1.49258 l 0,-1.624278 16.72568,0"
           style="font-weight:bold;marker:none;-inkscape-font-specification:'Times New Roman, Bold'"
           id="path3781" />
        <path
           d="m -604.42226,13.126123 1.36088,1.053586 c -1.93161,3.629023 -4.34607,6.33615 -7.2434,8.121389 -2.86812,1.755976 -5.92645,2.633963 -9.17498,2.633964 -5.4728,-10e-7 -9.84811,-2.063271 -13.12592,-6.189815 -3.27782,-4.126535 -4.91673,-9.0871624 -4.91673,-14.8818975 0,-5.5898318 1.49257,-10.5065599 4.47774,-14.7501995 3.59974,-5.121557 8.56037,-7.682353 14.8819,-7.682395 4.24358,4.2e-5 7.6092,1.06826 10.09686,3.204656 2.51686,2.136475 3.77531,4.521673 3.77535,7.1556029 -4e-5,1.6682076 -0.5122,2.9998214 -1.53648,3.9948456 -0.99509,0.9950801 -2.31207,1.4926061 -3.95095,1.4925797 -1.72674,2.64e-5 -3.16078,-0.5706652 -4.30214,-1.7120767 -1.11214,-1.1413552 -1.7999,-3.1753587 -2.06327,-6.1020165 -0.17562,-1.843739 -0.59998,-3.131454 -1.27308,-3.863148 -0.67315,-0.731618 -1.46334,-1.097446 -2.37057,-1.097485 -1.4048,3.9e-5 -2.60472,0.746328 -3.59975,2.23887 -1.52186,2.253537 -2.28279,5.7069532 -2.28277,10.3602586 -2e-5,3.8631701 0.61457,7.5653493 1.84377,11.1065487 1.22917,3.5119637 2.91198,6.1312927 5.04843,7.8579927 1.60963,1.258456 3.51193,1.88768 5.70693,1.887675 1.43401,5e-6 2.79489,-0.336556 4.08264,-1.009687 1.28768,-0.673116 2.80953,-1.946198 4.56554,-3.819248"
           style="font-weight:bold;marker:none;-inkscape-font-specification:'Times New Roman, Bold'"
           id="path3783" />
        <path
           d="m -581.28728,-35.82171 0,23.749577 c 2.25348,-2.37053 4.31675,-4.038706 6.18982,-5.004532 1.87301,-0.995012 3.81922,-1.492538 5.83862,-1.49258 2.5754,4.2e-5 4.77036,0.731698 6.58491,2.19497 1.84373,1.463352 3.05828,3.19006 3.64365,5.18013 0.61455,1.9608725 0.92184,5.2825906 0.92189,9.9651639 l 0,16.0232821 c -5e-5,3.131496 0.29262,5.092334 0.87799,5.882519 0.58528,0.760926 1.77056,1.243819 3.55585,1.448681 l 0,1.580378 -20.80832,0 0,-1.580378 c 1.46329,-0.204862 2.56077,-0.790187 3.29246,-1.755976 0.52676,-0.760919 0.79015,-2.619325 0.79019,-5.575224 l 0,-18.306051 c -4e-5,-3.3948565 -0.13173,-5.5166588 -0.3951,-6.3654133 -0.26343,-0.8779537 -0.71705,-1.5510767 -1.36088,-2.0193727 -0.61462,-0.49749 -1.31701,-0.746253 -2.10717,-0.74629 -1.17068,3.7e-5 -2.31206,0.409764 -3.42416,1.229184 -1.11214,0.790223 -2.31205,2.1950026 -3.59975,4.2143422 l 0,21.9936008 c -2e-5,2.926632 0.21948,4.755772 0.65849,5.487425 0.55604,0.995055 1.69743,1.609646 3.42416,1.843775 l 0,1.580378 -20.80832,0 0,-1.580378 c 1.72671,-0.175596 2.95589,-0.731655 3.68755,-1.668178 0.49752,-0.643854 0.74628,-2.531526 0.74629,-5.663022 l 0,-41.704432 c -10e-6,-3.102171 -0.29267,-5.033743 -0.87799,-5.794721 -0.55606,-0.760866 -1.74135,-1.258392 -3.55585,-1.49258 l 0,-1.624278 16.72567,0"
           style="font-weight:bold;marker:none;-inkscape-font-specification:'Times New Roman, Bold'"
           id="path3785" />
        <path
           d="m -525.35944,17.647762 c -5.00455,4.419208 -9.49692,6.628809 -13.47711,6.628809 -2.34132,0 -4.28752,-0.760922 -5.83863,-2.282768 -1.55111,-1.551109 -2.32667,-3.482681 -2.32666,-5.794722 -10e-6,-3.13148 1.34624,-5.941038 4.03874,-8.4286847 2.69249,-2.5168806 8.56037,-5.8532318 17.60366,-10.0090637 l 0,-4.1265438 c -2e-5,-3.1021912 -0.17562,-5.0483958 -0.52679,-5.8386208 -0.32195,-0.819418 -0.95118,-1.521808 -1.88768,-2.107171 -0.93654,-0.614553 -1.99012,-0.921848 -3.16075,-0.921887 -1.90233,3.9e-5 -3.46807,0.424399 -4.69724,1.273082 -0.76094,0.52683 -1.1414,1.141421 -1.14138,1.843775 -2e-5,0.614627 0.40971,1.375549 1.22918,2.2827691 1.1121,1.2584818 1.66816,2.4730307 1.66818,3.6436503 -2e-5,1.4340756 -0.54144,2.6632577 -1.62428,3.6875498 -1.0536,0.9950783 -2.44375,1.4926044 -4.17044,1.4925797 -1.84379,2.47e-5 -3.3949,-0.5560338 -4.65334,-1.6681773 -1.22919,-1.1120907 -1.84378,-2.4144383 -1.84377,-3.9070468 -1e-5,-2.1071389 0.83408,-4.1118758 2.50226,-6.0142178 1.66817,-1.931536 3.99484,-3.409481 6.98001,-4.43384 2.98514,-1.024277 6.08736,-1.536437 9.30667,-1.536479 3.89239,4.2e-5 6.96534,0.83413 9.21887,2.502266 2.28274,1.638949 3.76068,3.42419 4.43384,5.355727 0.40969,1.2292165 0.61456,4.0534085 0.61459,8.4725846 l 0,15.9354834 c -3e-5,1.873049 0.0731,3.058332 0.2195,3.555851 0.1463,0.468266 0.36579,0.819461 0.65849,1.053586 0.29263,0.234135 0.62919,0.3512 1.00969,0.351195 0.76088,5e-6 1.53644,-0.54142 2.32667,-1.624278 l 1.31698,1.053586 c -1.46336,2.165707 -2.9852,3.746084 -4.56554,4.741135 -1.55115,0.965787 -3.32176,1.44868 -5.31183,1.44868 -2.34133,0 -4.17047,-0.541426 -5.48742,-1.624277 -1.31701,-1.112116 -2.12183,-2.780292 -2.41447,-5.004532 m 0,-3.204657 0,-13.74051245 c -3.54124,2.07792595 -6.1752,4.30216015 -7.90189,6.67270915 -1.1414,1.5803932 -1.71209,3.1754033 -1.71208,4.7850343 -1e-5,1.346259 0.48288,2.531542 1.44868,3.555852 0.73164,0.790196 1.75596,1.185291 3.07296,1.185284 1.46329,7e-6 3.16073,-0.819448 5.09233,-2.458367"
           style="font-weight:bold;marker:none;-inkscape-font-specification:'Times New Roman, Bold'"
           id="path3787" />
        <path
           d="m -486.02557,-17.340062 0,9.3066735 c 2.72174,-4.2435725 5.10693,-7.0531315 7.1556,-8.4286855 2.04861,-1.404739 4.02408,-2.107129 5.92642,-2.107171 1.63887,4.2e-5 2.94122,0.512202 3.90704,1.536479 0.99502,0.995093 1.49255,2.414506 1.49258,4.258242 -3e-5,1.960875 -0.48293,3.482719 -1.44868,4.5655379 -0.93655,1.0828828 -2.07794,1.6243082 -3.42415,1.6242779 -1.55114,3.03e-5 -2.89739,-0.4974958 -4.03874,-1.4925797 -1.14142,-0.9950203 -1.81454,-1.5510788 -2.01938,-1.6681772 -0.29269,-0.175564 -0.62925,-0.2633629 -1.00968,-0.2633969 -0.84875,3.4e-5 -1.65357,0.3219628 -2.41447,0.9657873 -1.19994,0.9950849 -2.10719,2.4144974 -2.72176,4.258242 -0.93654,2.8388536 -1.4048,5.9703412 -1.40478,9.394472 l 0,9.4383717 0.0439,2.458366 c -2e-5,1.668183 0.10241,2.736401 0.30729,3.204657 0.35118,0.790192 0.86333,1.375517 1.53648,1.755976 0.70237,0.351197 1.87302,0.570694 3.51195,0.658491 l 0,1.580378 -22.1692,0 0,-1.580378 c 1.78524,-0.14633 2.98516,-0.629223 3.59976,-1.448681 0.64385,-0.848717 0.96577,-3.058318 0.96578,-6.628809 l 0,-22.6959911 c -1e-5,-2.3412669 -0.11707,-3.8338449 -0.35119,-4.4777389 -0.29267,-0.819418 -0.71703,-1.419376 -1.27309,-1.799876 -0.55606,-0.380422 -1.53648,-0.643818 -2.94126,-0.790189 l 0,-1.624278 16.76958,0"
           style="font-weight:bold;marker:none;-inkscape-font-specification:'Times New Roman, Bold'"
           id="path3789" />
      </g>
      <path
         transform="matrix(0.70710678,-0.70710678,0.70710678,0.70710678,0,0)"
         style="color:#000000;fill:none;stroke:#000000;stroke-width:3.82517433;stroke-miterlimit:4;marker:none;visibility:visible;display:inline;overflow:visible;enable-background:accumulate"
         d="m -674.24573,-151.69426 174.38466,0 0,87.021592 -174.38466,0 z"
         id="rect2997" />
      <path
         transform="matrix(0.70710678,-0.70710678,0.70710678,0.70710678,0,0)"
         style="color:#000000;fill:none;stroke:#000000;stroke-width:4.50880432;stroke-miterlimit:4;marker:none;visibility:visible;display:inline;overflow:visible;enable-background:accumulate"
         d="m -699.95959,-33.335648 244.20457,0 0,86.33796 -244.20457,0 z"
         id="rect3767" />
    </g>
    <path
       style="fill:none;stroke:#000000;stroke-width:1px;stroke-linecap:butt;stroke-linejoin:miter;stroke-opacity:1"
       d="m -451.75551,380.12751 0,8.31528"
       id="path2993"
       inkscape:connector-curvature="0" />
    <path
       style="fill:#000000;stroke:none"
       d="m -453.63635,385.90201 1.94683,3.99265 1.71585,-4.22363 z"
       id="path2995"
       inkscape:connector-curvature="0"
       sodipodi:nodetypes="cccc" />
  </g>
</svg>
