<?xml version="1.0" encoding="UTF-8" standalone="no"?>
<!-- Created with Inkscape (http://www.inkscape.org/) -->

<svg
   xmlns:dc="http://purl.org/dc/elements/1.1/"
   xmlns:cc="http://creativecommons.org/ns#"
   xmlns:rdf="http://www.w3.org/1999/02/22-rdf-syntax-ns#"
   xmlns:svg="http://www.w3.org/2000/svg"
   xmlns="http://www.w3.org/2000/svg"
   xmlns:sodipodi="http://sodipodi.sourceforge.net/DTD/sodipodi-0.dtd"
   xmlns:inkscape="http://www.inkscape.org/namespaces/inkscape"
   version="1.1"
   width="65.665047"
   height="42.904495"
   id="svg2"
   inkscape:version="0.48.4 r9939"
   sodipodi:docname="f_display_image_activity.svg">
  <sodipodi:namedview
     pagecolor="#ffffff"
     bordercolor="#666666"
     borderopacity="1"
     objecttolerance="10"
     gridtolerance="10"
     guidetolerance="10"
     inkscape:pageopacity="0"
     inkscape:pageshadow="2"
     inkscape:window-width="1600"
     inkscape:window-height="824"
     id="namedview9"
     showgrid="false"
     inkscape:zoom="3.7882069"
     inkscape:cx="54.6016"
     inkscape:cy="18.597409"
     inkscape:window-x="0"
     inkscape:window-y="24"
     inkscape:window-maximized="1"
     inkscape:current-layer="layer1"
     fit-margin-top="0"
     fit-margin-left="0"
     fit-margin-right="0"
     fit-margin-bottom="0" />
  <defs
     id="defs4" />
  <metadata
     id="metadata7">
    <rdf:RDF>
      <cc:Work
         rdf:about="">
        <dc:format>image/svg+xml</dc:format>
        <dc:type
           rdf:resource="http://purl.org/dc/dcmitype/StillImage" />
        <dc:title />
      </cc:Work>
    </rdf:RDF>
  </metadata>
  <g
     transform="translate(471.03396,-360.15135)"
     id="layer1">
    <path
       style="fill:#000000"
       d="m -466.96348,402.67694 c -0.56015,-0.17839 -1.56484,-0.87071 -2.23263,-1.5385 -1.89168,-1.89169 -1.90856,-2.08261 -1.80287,-20.40376 0.0898,-15.57405 0.11055,-16.08577 0.69682,-17.20333 0.76844,-1.46487 2.36261,-2.75966 3.81163,-3.09586 1.84483,-0.42803 55.3892,-0.34984 56.83783,0.083 1.68634,0.50387 3.49674,2.39108 3.92489,4.09142 0.47853,1.90045 0.47853,32.10016 0,34.0006 -0.42815,1.70035 -2.23855,3.58757 -3.92489,4.09143 -1.63171,0.48754 -55.77548,0.46393 -57.31078,-0.025 z m 46.58005,-2.69849 c 0.44318,-0.33095 1.07655,-0.96416 1.40751,-1.40716 0.57047,-0.76359 0.60172,-1.18701 0.60172,-8.15363 l 0,-7.34821 -1.74843,-0.14593 -1.74843,-0.14592 -0.67616,-1.42777 c -0.73063,-1.54277 -0.96251,-1.5109 -1.51209,0.20786 -0.40953,1.28075 -0.43793,1.29699 -2.77788,1.58813 -1.71988,0.21398 -1.76381,0.24235 -2.50745,1.61923 -0.41629,0.77079 -0.97468,1.61922 -1.24087,1.88541 -0.44753,0.44753 -0.51982,0.44812 -0.96011,0.008 -0.26555,-0.26557 -0.98026,-2.57203 -1.61603,-5.21521 -0.62695,-2.60649 -1.26234,-4.94848 -1.41199,-5.20443 -0.17195,-0.2941 -0.27535,3.35385 -0.28096,9.91233 -0.007,8.16008 -0.0918,10.49106 -0.39679,10.9082 -0.83312,1.13936 -1.4431,0.14347 -4.28729,-6.99973 -2.84714,-7.15058 -2.85111,-7.15694 -4.7127,-7.55303 -0.46853,-0.0997 -1.02994,-0.57251 -1.41007,-1.18758 -0.34738,-0.56207 -0.72605,-1.02195 -0.84149,-1.02195 -0.11544,0 -0.49702,0.59099 -0.84794,1.31331 -0.62833,1.29328 -0.66003,1.3133 -2.08045,1.3133 -1.4135,0 -1.46792,0.0336 -2.71787,1.67811 -0.94197,1.2393 -1.46249,1.67812 -1.9906,1.67812 -0.6852,0 -0.76142,-0.20125 -1.8236,-4.81496 -0.60968,-2.64822 -1.22218,-4.92862 -1.36112,-5.06755 -0.35952,-0.35953 -0.52798,1.72952 -0.90275,11.19581 -0.22916,5.78841 -0.4385,8.43178 -0.68844,8.69312 -0.76862,0.80367 -1.30495,0.0164 -2.41007,-3.53794 -0.60708,-1.95251 -1.56644,-4.929 -2.1319,-6.61441 l -1.02811,-3.06438 -1.75108,0 -1.75107,0 -0.0851,6.56653 c -0.0468,3.61158 -0.009,6.98947 0.0846,7.50643 0.21112,1.16927 1.43687,2.65979 2.6127,3.17705 0.72274,0.31795 4.95861,0.37923 22.5383,0.32612 21.35792,-0.0645 21.6591,-0.0735 22.45407,-0.66712 z m 9.7593,-2.17946 c 0.85528,-0.45773 1.51012,-1.9401 1.29324,-2.92755 -0.35833,-1.63148 -2.44848,-2.52944 -3.97991,-1.70984 -0.32406,0.17344 -0.77891,0.76935 -1.01076,1.32426 -0.37274,0.89208 -0.3681,1.12158 0.04,1.98168 0.6828,1.43891 2.33365,2.03989 3.65739,1.33145 z m -25.99042,-19.27954 c 0,-10.88677 0.0512,-12.2691 0.4604,-12.42611 0.25322,-0.0972 0.63835,0.005 0.85585,0.22804 0.21749,0.22259 1.26589,4.01331 2.32978,8.42381 1.06391,4.4105 2.00385,8.08775 2.08879,8.17167 0.0849,0.0839 0.46211,-0.23245 0.83817,-0.70305 0.60448,-0.75643 0.84699,-0.84818 2.09161,-0.79138 1.78323,0.0814 2.17928,-0.24927 2.99797,-2.50279 1.1625,-3.19994 2.08734,-3.20181 3.38753,-0.007 l 0.8602,2.11375 1.16502,0 1.16503,0 0,-7.78594 c 0,-7.40872 -0.0292,-7.82497 -0.60172,-8.59141 -0.33096,-0.44301 -0.96442,-1.07624 -1.40772,-1.40719 -0.79736,-0.59529 -1.04148,-0.60173 -22.79752,-0.60173 -21.75607,0 -22.00016,0.006 -22.79743,0.60172 -0.44325,0.33094 -1.07668,0.96418 -1.40763,1.40719 -0.57257,0.76644 -0.60172,1.1827 -0.60172,8.59141 l 0,7.78594 2.2483,0.14592 c 1.23657,0.0803 2.38742,0.28554 2.55745,0.45616 0.17002,0.17063 0.81625,1.93809 1.43605,3.92769 1.10272,3.5398 1.78099,4.6822 1.78685,3.00958 0.001,-0.4548 0.19963,-5.35415 0.44008,-10.88745 0.35215,-8.10381 0.52187,-10.14526 0.87264,-10.49603 0.85623,-0.85622 1.30521,0.31372 3.04616,7.93758 0.9379,4.10718 1.79982,7.62058 1.91538,7.80755 0.13838,0.22392 0.50485,-0.0176 1.07355,-0.70755 0.75701,-0.91839 1.025,-1.04753 2.17383,-1.04753 l 1.31036,0 0.86013,-1.89699 c 0.7139,-1.57448 0.98009,-1.897 1.56571,-1.897 0.54962,0 0.94071,0.38705 1.76926,1.75099 0.94115,1.5493 1.19417,1.77187 2.19655,1.93216 0.62309,0.0996 1.32474,0.39517 1.55922,0.65673 0.23448,0.26156 1.15947,2.35898 2.05551,4.66091 0.89605,2.30193 1.70429,4.30686 1.79609,4.4554 0.58908,0.95315 0.71027,-1.14821 0.71027,-12.31519 z m 26.60413,9.76142 c 1.58964,-1.43861 0.2702,-4.48181 -1.94318,-4.48181 -0.90582,0 -2.12917,0.86817 -2.42693,1.72231 -0.96649,2.77247 2.1684,4.75201 4.37011,2.7595 z m -0.80878,-8.26327 c 1.70099,-0.64671 2.02755,-3.22828 0.55491,-4.38666 -1.43972,-1.13248 -3.44419,-0.58842 -4.15506,1.12777 -0.29731,0.71776 -0.27697,1.03213 0.12104,1.87086 0.69757,1.47004 1.94962,1.96955 3.47911,1.38803 z m 0.60071,-9.42455 c 2.34967,-2.0677 -0.18843,-5.63776 -2.98132,-4.1935 -1.59992,0.82735 -1.83555,3.1676 -0.43023,4.27302 0.9874,0.77669 2.47806,0.74194 3.41155,-0.0795 z"
       id="path3181"
       inkscape:connector-curvature="0" />
  </g>
</svg>
