<?xml version="1.0" encoding="UTF-8" standalone="no"?>
<!-- Created with Inkscape (http://www.inkscape.org/) -->

<svg
   xmlns:dc="http://purl.org/dc/elements/1.1/"
   xmlns:cc="http://creativecommons.org/ns#"
   xmlns:rdf="http://www.w3.org/1999/02/22-rdf-syntax-ns#"
   xmlns:svg="http://www.w3.org/2000/svg"
   xmlns="http://www.w3.org/2000/svg"
   xmlns:sodipodi="http://sodipodi.sourceforge.net/DTD/sodipodi-0.dtd"
   xmlns:inkscape="http://www.inkscape.org/namespaces/inkscape"
   version="1.1"
   width="57.284069"
   height="46.286442"
   id="svg2"
   inkscape:version="0.48.4 r9939"
   sodipodi:docname="f_grabimages.svg">
  <sodipodi:namedview
     pagecolor="#ffffff"
     bordercolor="#666666"
     borderopacity="1"
     objecttolerance="10"
     gridtolerance="10"
     guidetolerance="10"
     inkscape:pageopacity="0"
     inkscape:pageshadow="2"
     inkscape:window-width="1600"
     inkscape:window-height="824"
     id="namedview9"
     showgrid="false"
     inkscape:zoom="1.8941035"
     inkscape:cx="-10.989961"
     inkscape:cy="-33.888727"
     inkscape:window-x="0"
     inkscape:window-y="24"
     inkscape:window-maximized="1"
     inkscape:current-layer="layer1"
     fit-margin-top="0"
     fit-margin-left="0"
     fit-margin-right="0"
     fit-margin-bottom="0" />
  <defs
     id="defs4" />
  <metadata
     id="metadata7">
    <rdf:RDF>
      <cc:Work
         rdf:about="">
        <dc:format>image/svg+xml</dc:format>
        <dc:type
           rdf:resource="http://purl.org/dc/dcmitype/StillImage" />
        <dc:title />
      </cc:Work>
    </rdf:RDF>
  </metadata>
  <g
     transform="translate(468.1003,-360.93823)"
     id="layer1">
    <path
       style="fill:#000000"
       d="m -459.23214,406.99656 c -4.03072,-0.67907 -7.7231,-4.27245 -8.57522,-8.34529 -0.43625,-2.08509 -0.36541,-25.35023 0.081,-26.60113 0.48519,-1.3596 1.57799,-2.69821 2.83407,-3.47157 0.79635,-0.49031 1.16033,-0.9238 1.37792,-1.64108 0.40186,-1.32477 1.35897,-1.69929 4.34262,-1.69929 2.60623,0 3.5895,0.34909 4.12213,1.4635 0.31395,0.65685 0.4511,0.70593 2.16817,0.77581 l 1.83301,0.0746 0.61376,-0.96596 c 0.33757,-0.53127 1.11602,-1.82547 1.72989,-2.87599 1.71917,-2.94204 1.21351,-2.82382 11.73037,-2.74241 10.43489,0.0808 9.4792,-0.2253 11.81251,3.78316 l 1.54372,2.65199 2.27636,0.16448 c 1.27363,0.092 2.86184,0.38844 3.60553,0.6729 2.75765,1.05481 5.1104,3.39449 6.27244,6.23759 0.51915,1.27018 0.547,1.79833 0.62733,11.89804 0.058,7.29445 -0.007,11.04227 -0.21121,12.09689 -0.83268,4.3091 -4.46829,7.82652 -8.8274,8.54043 -1.7833,0.29206 -37.61457,0.27688 -39.35699,-0.0166 z m 27.08153,-7.17853 c 0.92719,-0.34166 2.24512,-0.94547 2.92872,-1.34178 1.76015,-1.02044 4.66502,-4.058 5.60485,-5.86088 1.44618,-2.7742 1.74413,-4.03356 1.74728,-7.38547 0.004,-3.75032 -0.6119,-5.91185 -2.47735,-8.70094 -1.55982,-2.33211 -3.34466,-3.90931 -5.85086,-5.17017 -6.1469,-3.09249 -13.19692,-1.98592 -17.9698,2.82055 -8.56932,8.62964 -4.52322,23.07571 7.30658,26.08721 2.20473,0.56125 6.58195,0.33586 8.71058,-0.44852 z m -7.11635,-4.29177 c -3.08415,-0.60694 -6.09356,-2.94182 -7.50246,-5.82086 -0.77209,-1.57772 -0.81926,-1.8361 -0.81926,-4.48738 0,-2.7353 0.0264,-2.86665 0.95112,-4.73907 1.14545,-2.31924 2.61914,-3.76244 4.98791,-4.88466 1.58906,-0.75283 1.88563,-0.80592 4.50249,-0.80592 2.63791,0 2.89908,0.0478 4.47552,0.81926 4.16726,2.03932 6.62593,6.73684 5.85203,11.18088 -0.77676,4.46052 -4.16371,7.92413 -8.53982,8.7331 -1.69375,0.3131 -2.33625,0.31387 -3.90753,0.004 z m -18.24599,-20.87011 c 1.8055,-1.11586 1.99369,-3.81399 0.36179,-5.18715 -2.21842,-1.86667 -5.33221,-0.37124 -5.33484,2.56212 -0.003,2.46393 2.8218,3.95458 4.97305,2.62503 z"
       id="path3088"
       inkscape:connector-curvature="0" />
  </g>
</svg>
