<?xml version="1.0" encoding="UTF-8" standalone="no"?>
<!-- Created with Inkscape (http://www.inkscape.org/) -->

<svg
   xmlns:dc="http://purl.org/dc/elements/1.1/"
   xmlns:cc="http://creativecommons.org/ns#"
   xmlns:rdf="http://www.w3.org/1999/02/22-rdf-syntax-ns#"
   xmlns:svg="http://www.w3.org/2000/svg"
   xmlns="http://www.w3.org/2000/svg"
   xmlns:sodipodi="http://sodipodi.sourceforge.net/DTD/sodipodi-0.dtd"
   xmlns:inkscape="http://www.inkscape.org/namespaces/inkscape"
   width="128.10126"
   height="29.320715"
   id="svg2"
   version="1.1"
   inkscape:version="0.48.4 r9939"
   sodipodi:docname="module_neural_1xN.svg">
  <defs
     id="defs4" />
  <sodipodi:namedview
     id="base"
     pagecolor="#ffffff"
     bordercolor="#666666"
     borderopacity="1.0"
     inkscape:pageopacity="0.0"
     inkscape:pageshadow="2"
     inkscape:zoom="3.959798"
     inkscape:cx="76.579318"
     inkscape:cy="33.842582"
     inkscape:document-units="px"
     inkscape:current-layer="layer1"
     showgrid="false"
     inkscape:window-width="1600"
     inkscape:window-height="824"
     inkscape:window-x="0"
     inkscape:window-y="24"
     inkscape:window-maximized="1"
     fit-margin-top="0"
     fit-margin-left="0"
     fit-margin-right="0"
     fit-margin-bottom="0" />
  <metadata
     id="metadata7">
    <rdf:RDF>
      <cc:Work
         rdf:about="">
        <dc:format>image/svg+xml</dc:format>
        <dc:type
           rdf:resource="http://purl.org/dc/dcmitype/StillImage" />
        <dc:title />
      </cc:Work>
    </rdf:RDF>
  </metadata>
  <g
     inkscape:label="Calque 1"
     inkscape:groupmode="layer"
     id="layer1"
     transform="translate(815.48496,-300.55468)">
    <g
       id="g3774"
       transform="matrix(0,0.40195878,-0.40195878,0,-624.72838,617.26052)">
      <rect
         style="color:#000000;fill:#666666;fill-opacity:1;fill-rule:nonzero;stroke:none;stroke-width:2.29999995;marker:none;visibility:visible;display:inline;overflow:visible;enable-background:accumulate"
         id="rect3772"
         width="69.368469"
         height="315.13104"
         x="-784.33014"
         y="159.43648"
         rx="25.2502"
         ry="25.2502" />
      <rect
         ry="25.2502"
         rx="25.2502"
         y="156.66173"
         x="-787.10486"
         height="315.13104"
         width="69.368469"
         id="rect2985"
         style="color:#000000;fill:#f2f2f2;fill-opacity:1;fill-rule:nonzero;stroke:#000000;stroke-width:1.59547472;stroke-linecap:butt;stroke-linejoin:miter;stroke-miterlimit:4;stroke-opacity:1;stroke-dasharray:none;stroke-dashoffset:0;marker:none;visibility:visible;display:inline;overflow:visible;enable-background:accumulate" />
      <g
         style="stroke-width:2;stroke-miterlimit:4;stroke-dasharray:none"
         transform="matrix(0.69368468,0,0,0.69368468,-229.59465,95.298045)"
         id="g2997">
        <path
           sodipodi:type="arc"
           style="color:#000000;fill:#ffffff;fill-opacity:1;fill-rule:nonzero;stroke:#000000;stroke-width:2;stroke-linecap:butt;stroke-linejoin:miter;stroke-miterlimit:4;stroke-opacity:1;stroke-dasharray:none;stroke-dashoffset:0;marker:none;visibility:visible;display:inline;overflow:visible;enable-background:accumulate"
           id="path2987"
           sodipodi:cx="-755.71429"
           sodipodi:cy="142.36218"
           sodipodi:rx="28.571428"
           sodipodi:ry="28.571428"
           d="m -727.14287,142.36218 c 0,15.77957 -12.79186,28.57143 -28.57142,28.57143 -15.77957,0 -28.57143,-12.79186 -28.57143,-28.57143 0,-15.77956 12.79186,-28.57143 28.57143,-28.57143 15.77956,0 28.57142,12.79187 28.57142,28.57143 z"
           transform="translate(2.020305,0)" />
        <path
           transform="translate(2.020305,86.620605)"
           d="m -727.14287,142.36218 c 0,15.77957 -12.79186,28.57143 -28.57142,28.57143 -15.77957,0 -28.57143,-12.79186 -28.57143,-28.57143 0,-15.77956 12.79186,-28.57143 28.57143,-28.57143 15.77956,0 28.57142,12.79187 28.57142,28.57143 z"
           sodipodi:ry="28.571428"
           sodipodi:rx="28.571428"
           sodipodi:cy="142.36218"
           sodipodi:cx="-755.71429"
           id="path2989"
           style="color:#000000;fill:#ff0000;fill-opacity:1;fill-rule:nonzero;stroke:#000000;stroke-width:2;stroke-linecap:butt;stroke-linejoin:miter;stroke-miterlimit:4;stroke-opacity:1;stroke-dasharray:none;stroke-dashoffset:0;marker:none;visibility:visible;display:inline;overflow:visible;enable-background:accumulate"
           sodipodi:type="arc" />
        <path
           sodipodi:type="arc"
           style="color:#000000;fill:#ff9595;fill-opacity:1;fill-rule:nonzero;stroke:#000000;stroke-width:2;stroke-linecap:butt;stroke-linejoin:miter;stroke-miterlimit:4;stroke-opacity:1;stroke-dasharray:none;stroke-dashoffset:0;marker:none;visibility:visible;display:inline;overflow:visible;enable-background:accumulate"
           id="path2991"
           sodipodi:cx="-755.71429"
           sodipodi:cy="142.36218"
           sodipodi:rx="28.571428"
           sodipodi:ry="28.571428"
           d="m -727.14287,142.36218 c 0,15.77957 -12.79186,28.57143 -28.57142,28.57143 -15.77957,0 -28.57143,-12.79186 -28.57143,-28.57143 0,-15.77956 12.79186,-28.57143 28.57143,-28.57143 15.77956,0 28.57142,12.79187 28.57142,28.57143 z"
           transform="translate(2.020305,173.24115)" />
        <path
           transform="translate(2.020305,259.86169)"
           d="m -727.14287,142.36218 c 0,15.77957 -12.79186,28.57143 -28.57142,28.57143 -15.77957,0 -28.57143,-12.79186 -28.57143,-28.57143 0,-15.77956 12.79186,-28.57143 28.57143,-28.57143 15.77956,0 28.57142,12.79187 28.57142,28.57143 z"
           sodipodi:ry="28.571428"
           sodipodi:rx="28.571428"
           sodipodi:cy="142.36218"
           sodipodi:cx="-755.71429"
           id="path2993"
           style="color:#000000;fill:#ffffff;fill-opacity:1;fill-rule:nonzero;stroke:#000000;stroke-width:2;stroke-linecap:butt;stroke-linejoin:miter;stroke-miterlimit:4;stroke-opacity:1;stroke-dasharray:none;stroke-dashoffset:0;marker:none;visibility:visible;display:inline;overflow:visible;enable-background:accumulate"
           sodipodi:type="arc" />
        <path
           sodipodi:type="arc"
           style="color:#000000;fill:#ffb1b1;fill-opacity:1;fill-rule:nonzero;stroke:#000000;stroke-width:2;stroke-linecap:butt;stroke-linejoin:miter;stroke-miterlimit:4;stroke-opacity:1;stroke-dasharray:none;stroke-dashoffset:0;marker:none;visibility:visible;display:inline;overflow:visible;enable-background:accumulate"
           id="path2995"
           sodipodi:cx="-755.71429"
           sodipodi:cy="142.36218"
           sodipodi:rx="28.571428"
           sodipodi:ry="28.571428"
           d="m -727.14287,142.36218 c 0,15.77957 -12.79186,28.57143 -28.57142,28.57143 -15.77957,0 -28.57143,-12.79186 -28.57143,-28.57143 0,-15.77956 12.79186,-28.57143 28.57143,-28.57143 15.77956,0 28.57142,12.79187 28.57142,28.57143 z"
           transform="translate(2.020305,346.48232)" />
      </g>
      <path
         style="font-size:medium;font-style:normal;font-variant:normal;font-weight:normal;font-stretch:normal;text-indent:0;text-align:start;text-decoration:none;line-height:normal;letter-spacing:normal;word-spacing:normal;text-transform:none;direction:ltr;block-progression:tb;writing-mode:lr-tb;text-anchor:start;baseline-shift:baseline;color:#000000;fill:#000000;fill-opacity:1;fill-rule:nonzero;stroke:none;stroke-width:2;marker:none;visibility:visible;display:inline;overflow:visible;enable-background:accumulate;font-family:Sans;-inkscape-font-specification:Sans"
         d="m -752.42372,173.53267 c -11.32093,0 -20.50705,9.2078 -20.50705,20.52873 0,11.32094 9.18612,20.50705 20.50705,20.50705 11.32093,0 20.50705,-9.18611 20.50705,-20.50705 0,-11.32093 -9.18612,-20.52873 -20.50705,-20.52873 z m 0,1.38737 c 10.57114,0 19.11968,8.57022 19.11968,19.14136 0,10.57115 -8.54854,19.11969 -19.11968,19.11969 -10.57114,0 -19.11968,-8.54854 -19.11968,-19.11969 0,-10.57114 8.54854,-19.14136 19.11968,-19.14136 z"
         id="path2994"
         inkscape:connector-curvature="0" />
      <path
         style="font-size:medium;font-style:normal;font-variant:normal;font-weight:normal;font-stretch:normal;text-indent:0;text-align:start;text-decoration:none;line-height:normal;letter-spacing:normal;word-spacing:normal;text-transform:none;direction:ltr;block-progression:tb;writing-mode:lr-tb;text-anchor:start;baseline-shift:baseline;color:#000000;fill:#000000;fill-opacity:1;fill-rule:nonzero;stroke:none;stroke-width:2;marker:none;visibility:visible;display:inline;overflow:visible;enable-background:accumulate;font-family:Sans;-inkscape-font-specification:Sans"
         d="m -752.42372,233.62006 c -11.32093,0 -20.50705,9.20779 -20.50705,20.52873 0,11.32093 9.18612,20.50705 20.50705,20.50705 11.32093,0 20.50705,-9.18612 20.50705,-20.50705 0,-11.32094 -9.18612,-20.52873 -20.50705,-20.52873 z m 0,1.38736 c 10.57114,0 19.11968,8.57022 19.11968,19.14137 0,10.57114 -8.54854,19.11968 -19.11968,19.11968 -10.57114,0 -19.11968,-8.54854 -19.11968,-19.11968 0,-10.57115 8.54854,-19.14137 19.11968,-19.14137 z"
         id="path2996"
         inkscape:connector-curvature="0" />
      <path
         style="font-size:medium;font-style:normal;font-variant:normal;font-weight:normal;font-stretch:normal;text-indent:0;text-align:start;text-decoration:none;line-height:normal;letter-spacing:normal;word-spacing:normal;text-transform:none;direction:ltr;block-progression:tb;writing-mode:lr-tb;text-anchor:start;baseline-shift:baseline;color:#000000;fill:#000000;fill-opacity:1;fill-rule:nonzero;stroke:none;stroke-width:2;marker:none;visibility:visible;display:inline;overflow:visible;enable-background:accumulate;font-family:Sans;-inkscape-font-specification:Sans"
         d="m -752.42372,293.70741 c -11.32093,0 -20.50705,9.20779 -20.50705,20.52873 0,11.32093 9.18612,20.50705 20.50705,20.50705 11.32093,0 20.50705,-9.18612 20.50705,-20.50705 0,-11.32094 -9.18612,-20.52873 -20.50705,-20.52873 z m 0,1.38736 c 10.57114,0 19.11968,8.57022 19.11968,19.14137 0,10.57114 -8.54854,19.11968 -19.11968,19.11968 -10.57114,0 -19.11968,-8.54854 -19.11968,-19.11968 0,-10.57115 8.54854,-19.14137 19.11968,-19.14137 z"
         id="path2998"
         inkscape:connector-curvature="0" />
      <path
         style="font-size:medium;font-style:normal;font-variant:normal;font-weight:normal;font-stretch:normal;text-indent:0;text-align:start;text-decoration:none;line-height:normal;letter-spacing:normal;word-spacing:normal;text-transform:none;direction:ltr;block-progression:tb;writing-mode:lr-tb;text-anchor:start;baseline-shift:baseline;color:#000000;fill:#000000;fill-opacity:1;fill-rule:nonzero;stroke:none;stroke-width:2;marker:none;visibility:visible;display:inline;overflow:visible;enable-background:accumulate;font-family:Sans;-inkscape-font-specification:Sans"
         d="m -752.42372,353.79475 c -11.32093,0 -20.50705,9.20779 -20.50705,20.52873 0,11.32093 9.18612,20.50705 20.50705,20.50705 11.32093,0 20.50705,-9.18612 20.50705,-20.50705 0,-11.32094 -9.18612,-20.52873 -20.50705,-20.52873 z m 0,1.38736 c 10.57114,0 19.11968,8.57022 19.11968,19.14137 0,10.57114 -8.54854,19.11968 -19.11968,19.11968 -10.57114,0 -19.11968,-8.54854 -19.11968,-19.11968 0,-10.57115 8.54854,-19.14137 19.11968,-19.14137 z"
         id="path3000"
         inkscape:connector-curvature="0" />
      <path
         style="font-size:medium;font-style:normal;font-variant:normal;font-weight:normal;font-stretch:normal;text-indent:0;text-align:start;text-decoration:none;line-height:normal;letter-spacing:normal;word-spacing:normal;text-transform:none;direction:ltr;block-progression:tb;writing-mode:lr-tb;text-anchor:start;baseline-shift:baseline;color:#000000;fill:#000000;fill-opacity:1;fill-rule:nonzero;stroke:none;stroke-width:2;marker:none;visibility:visible;display:inline;overflow:visible;enable-background:accumulate;font-family:Sans;-inkscape-font-specification:Sans"
         d="m -752.42372,413.88215 c -11.32093,0 -20.50705,9.20779 -20.50705,20.52873 0,11.32093 9.18612,20.50705 20.50705,20.50705 11.32093,0 20.50705,-9.18612 20.50705,-20.50705 0,-11.32094 -9.18612,-20.52873 -20.50705,-20.52873 z m 0,1.38736 c 10.57114,0 19.11968,8.57022 19.11968,19.14137 0,10.57114 -8.54854,19.11968 -19.11968,19.11968 -10.57114,0 -19.11968,-8.54854 -19.11968,-19.11968 0,-10.57115 8.54854,-19.14137 19.11968,-19.14137 z"
         id="path3002"
         inkscape:connector-curvature="0" />
    </g>
  </g>
</svg>
