<?xml version="1.0" encoding="UTF-8" standalone="no"?>
<!-- Created with Inkscape (http://www.inkscape.org/) -->

<svg
   xmlns:dc="http://purl.org/dc/elements/1.1/"
   xmlns:cc="http://creativecommons.org/ns#"
   xmlns:rdf="http://www.w3.org/1999/02/22-rdf-syntax-ns#"
   xmlns:svg="http://www.w3.org/2000/svg"
   xmlns="http://www.w3.org/2000/svg"
   xmlns:sodipodi="http://sodipodi.sourceforge.net/DTD/sodipodi-0.dtd"
   xmlns:inkscape="http://www.inkscape.org/namespaces/inkscape"
   width="129.44354"
   height="104.21378"
   id="svg2"
   version="1.1"
   inkscape:version="0.48.4 r9939"
   sodipodi:docname="module_neural_NxN.svg">
  <defs
     id="defs4" />
  <sodipodi:namedview
     id="base"
     pagecolor="#ffffff"
     bordercolor="#666666"
     borderopacity="1.0"
     inkscape:pageopacity="0.0"
     inkscape:pageshadow="2"
     inkscape:zoom="3.959798"
     inkscape:cx="61.035749"
     inkscape:cy="68.459265"
     inkscape:document-units="px"
     inkscape:current-layer="g3774"
     showgrid="false"
     inkscape:window-width="1600"
     inkscape:window-height="824"
     inkscape:window-x="0"
     inkscape:window-y="24"
     inkscape:window-maximized="1"
     fit-margin-top="0"
     fit-margin-left="0"
     fit-margin-right="0"
     fit-margin-bottom="0" />
  <metadata
     id="metadata7">
    <rdf:RDF>
      <cc:Work
         rdf:about="">
        <dc:format>image/svg+xml</dc:format>
        <dc:type
           rdf:resource="http://purl.org/dc/dcmitype/StillImage" />
        <dc:title />
      </cc:Work>
    </rdf:RDF>
  </metadata>
  <g
     inkscape:label="Calque 1"
     inkscape:groupmode="layer"
     id="layer1"
     transform="translate(816.15991,-130.7729)">
    <g
       id="g3774"
       transform="matrix(0,1,-1,0,-436.21637,1066.6479)">
      <rect
         style="color:#000000;fill:#666666;fill-opacity:1;fill-rule:nonzero;stroke:none;stroke-width:2.29999995;marker:none;visibility:visible;display:inline;overflow:visible;enable-background:accumulate"
         id="rect3772"
         width="100.61582"
         height="128.00446"
         x="-932.27704"
         y="251.93909"
         rx="10.25649"
         ry="10.25649" />
      <rect
         ry="10.25649"
         rx="10.25649"
         y="250.812"
         x="-935.53888"
         height="128.00446"
         width="102.75063"
         id="rect2985"
         style="color:#000000;fill:#f2f2f2;fill-opacity:1;fill-rule:nonzero;stroke:#000000;stroke-width:0.6480729;stroke-linecap:butt;stroke-linejoin:miter;stroke-miterlimit:4;stroke-opacity:1;stroke-dasharray:none;stroke-dashoffset:0;marker:none;visibility:visible;display:inline;overflow:visible;enable-background:accumulate" />
      <path
         transform="matrix(0.28177083,0,0,0.28177083,-683.65428,225.88641)"
         d="m -727.14287,142.36218 a 28.571428,28.571428 0 1 1 -57.14285,0 28.571428,28.571428 0 1 1 57.14285,0 z"
         sodipodi:ry="28.571428"
         sodipodi:rx="28.571428"
         sodipodi:cy="142.36218"
         sodipodi:cx="-755.71429"
         id="path2987"
         style="color:#000000;fill:#ffffff;fill-opacity:1;fill-rule:nonzero;stroke:#000000;stroke-width:3.54898341;stroke-linecap:butt;stroke-linejoin:miter;stroke-miterlimit:4;stroke-opacity:1;stroke-dasharray:none;stroke-dashoffset:0;marker:none;visibility:visible;display:inline;overflow:visible;enable-background:accumulate"
         sodipodi:type="arc" />
      <path
         sodipodi:type="arc"
         style="color:#000000;fill:#ffffff;fill-opacity:1;fill-rule:nonzero;stroke:#000000;stroke-width:3.54898340999999995;stroke-linecap:butt;stroke-linejoin:miter;stroke-miterlimit:4;stroke-opacity:1;stroke-dasharray:none;stroke-dashoffset:0;marker:none;visibility:visible;display:inline;overflow:visible;enable-background:accumulate"
         id="path2989"
         sodipodi:cx="-755.71429"
         sodipodi:cy="142.36218"
         sodipodi:rx="28.571428"
         sodipodi:ry="28.571428"
         d="m -727.14287,142.36218 a 28.571428,28.571428 0 1 1 -57.14285,0 28.571428,28.571428 0 1 1 57.14285,0 z"
         transform="matrix(0.28177083,0,0,0.28177083,-683.65428,250.29357)" />
      <path
         transform="matrix(0.28177083,0,0,0.28177083,-683.65428,274.70071)"
         d="m -727.14287,142.36218 a 28.571428,28.571428 0 1 1 -57.14285,0 28.571428,28.571428 0 1 1 57.14285,0 z"
         sodipodi:ry="28.571428"
         sodipodi:rx="28.571428"
         sodipodi:cy="142.36218"
         sodipodi:cx="-755.71429"
         id="path2991"
         style="color:#000000;fill:#ff9595;fill-opacity:1;fill-rule:nonzero;stroke:#000000;stroke-width:3.54898341;stroke-linecap:butt;stroke-linejoin:miter;stroke-miterlimit:4;stroke-opacity:1;stroke-dasharray:none;stroke-dashoffset:0;marker:none;visibility:visible;display:inline;overflow:visible;enable-background:accumulate"
         sodipodi:type="arc" />
      <path
         sodipodi:type="arc"
         style="color:#000000;fill:#ffffff;fill-opacity:1;fill-rule:nonzero;stroke:#000000;stroke-width:3.54898341;stroke-linecap:butt;stroke-linejoin:miter;stroke-miterlimit:4;stroke-opacity:1;stroke-dasharray:none;stroke-dashoffset:0;marker:none;visibility:visible;display:inline;overflow:visible;enable-background:accumulate"
         id="path2993"
         sodipodi:cx="-755.71429"
         sodipodi:cy="142.36218"
         sodipodi:rx="28.571428"
         sodipodi:ry="28.571428"
         d="m -727.14287,142.36218 a 28.571428,28.571428 0 1 1 -57.14285,0 28.571428,28.571428 0 1 1 57.14285,0 z"
         transform="matrix(0.28177083,0,0,0.28177083,-683.65428,299.10785)" />
      <path
         transform="matrix(0.28177083,0,0,0.28177083,-683.65428,323.51502)"
         d="m -727.14287,142.36218 a 28.571428,28.571428 0 1 1 -57.14285,0 28.571428,28.571428 0 1 1 57.14285,0 z"
         sodipodi:ry="28.571428"
         sodipodi:rx="28.571428"
         sodipodi:cy="142.36218"
         sodipodi:cx="-755.71429"
         id="path2995"
         style="color:#000000;fill:#ff2d2d;fill-opacity:1;fill-rule:nonzero;stroke:#000000;stroke-width:3.54898340999999995;stroke-linecap:butt;stroke-linejoin:miter;stroke-miterlimit:4;stroke-opacity:1;stroke-dasharray:none;stroke-dashoffset:0;marker:none;visibility:visible;display:inline;overflow:visible;enable-background:accumulate"
         sodipodi:type="arc" />
      <path
         sodipodi:type="arc"
         style="color:#000000;fill:#ffffff;fill-opacity:1;fill-rule:nonzero;stroke:#000000;stroke-width:3.54898341;stroke-linecap:butt;stroke-linejoin:miter;stroke-miterlimit:4;stroke-opacity:1;stroke-dasharray:none;stroke-dashoffset:0;marker:none;visibility:visible;display:inline;overflow:visible;enable-background:accumulate"
         id="path3824"
         sodipodi:cx="-755.71429"
         sodipodi:cy="142.36218"
         sodipodi:rx="28.571428"
         sodipodi:ry="28.571428"
         d="m -727.14287,142.36218 a 28.571428,28.571428 0 1 1 -57.14285,0 28.571428,28.571428 0 1 1 57.14285,0 z"
         transform="matrix(0.28177083,0,0,0.28177083,-658.79644,225.88641)" />
      <path
         transform="matrix(0.28177083,0,0,0.28177083,-658.79644,250.29357)"
         d="m -727.14287,142.36218 a 28.571428,28.571428 0 1 1 -57.14285,0 28.571428,28.571428 0 1 1 57.14285,0 z"
         sodipodi:ry="28.571428"
         sodipodi:rx="28.571428"
         sodipodi:cy="142.36218"
         sodipodi:cx="-755.71429"
         id="path3826"
         style="color:#000000;fill:#ff0000;fill-opacity:1;fill-rule:nonzero;stroke:#000000;stroke-width:3.54898341;stroke-linecap:butt;stroke-linejoin:miter;stroke-miterlimit:4;stroke-opacity:1;stroke-dasharray:none;stroke-dashoffset:0;marker:none;visibility:visible;display:inline;overflow:visible;enable-background:accumulate"
         sodipodi:type="arc" />
      <path
         sodipodi:type="arc"
         style="color:#000000;fill:#ff2727;fill-opacity:1;fill-rule:nonzero;stroke:#000000;stroke-width:3.54898340999999995;stroke-linecap:butt;stroke-linejoin:miter;stroke-miterlimit:4;stroke-opacity:1;stroke-dasharray:none;stroke-dashoffset:0;marker:none;visibility:visible;display:inline;overflow:visible;enable-background:accumulate"
         id="path3828"
         sodipodi:cx="-755.71429"
         sodipodi:cy="142.36218"
         sodipodi:rx="28.571428"
         sodipodi:ry="28.571428"
         d="m -727.14287,142.36218 a 28.571428,28.571428 0 1 1 -57.14285,0 28.571428,28.571428 0 1 1 57.14285,0 z"
         transform="matrix(0.28177083,0,0,0.28177083,-658.79644,274.70071)" />
      <path
         transform="matrix(0.28177083,0,0,0.28177083,-658.79644,299.10785)"
         d="m -727.14287,142.36218 a 28.571428,28.571428 0 1 1 -57.14285,0 28.571428,28.571428 0 1 1 57.14285,0 z"
         sodipodi:ry="28.571428"
         sodipodi:rx="28.571428"
         sodipodi:cy="142.36218"
         sodipodi:cx="-755.71429"
         id="path3830"
         style="color:#000000;fill:#ffffff;fill-opacity:1;fill-rule:nonzero;stroke:#000000;stroke-width:3.54898341;stroke-linecap:butt;stroke-linejoin:miter;stroke-miterlimit:4;stroke-opacity:1;stroke-dasharray:none;stroke-dashoffset:0;marker:none;visibility:visible;display:inline;overflow:visible;enable-background:accumulate"
         sodipodi:type="arc" />
      <path
         sodipodi:type="arc"
         style="color:#000000;fill:#ffb1b1;fill-opacity:1;fill-rule:nonzero;stroke:#000000;stroke-width:3.54898341;stroke-linecap:butt;stroke-linejoin:miter;stroke-miterlimit:4;stroke-opacity:1;stroke-dasharray:none;stroke-dashoffset:0;marker:none;visibility:visible;display:inline;overflow:visible;enable-background:accumulate"
         id="path3832"
         sodipodi:cx="-755.71429"
         sodipodi:cy="142.36218"
         sodipodi:rx="28.571428"
         sodipodi:ry="28.571428"
         d="m -727.14287,142.36218 a 28.571428,28.571428 0 1 1 -57.14285,0 28.571428,28.571428 0 1 1 57.14285,0 z"
         transform="matrix(0.28177083,0,0,0.28177083,-658.79644,323.51502)" />
      <path
         transform="matrix(0.28177083,0,0,0.28177083,-633.93863,225.88641)"
         d="m -727.14287,142.36218 a 28.571428,28.571428 0 1 1 -57.14285,0 28.571428,28.571428 0 1 1 57.14285,0 z"
         sodipodi:ry="28.571428"
         sodipodi:rx="28.571428"
         sodipodi:cy="142.36218"
         sodipodi:cx="-755.71429"
         id="path3836"
         style="color:#000000;fill:#ff6767;fill-opacity:1;fill-rule:nonzero;stroke:#000000;stroke-width:3.54898340999999995;stroke-linecap:butt;stroke-linejoin:miter;stroke-miterlimit:4;stroke-opacity:1;stroke-dasharray:none;stroke-dashoffset:0;marker:none;visibility:visible;display:inline;overflow:visible;enable-background:accumulate"
         sodipodi:type="arc" />
      <path
         sodipodi:type="arc"
         style="color:#000000;fill:#ff0000;fill-opacity:1;fill-rule:nonzero;stroke:#000000;stroke-width:3.54898341;stroke-linecap:butt;stroke-linejoin:miter;stroke-miterlimit:4;stroke-opacity:1;stroke-dasharray:none;stroke-dashoffset:0;marker:none;visibility:visible;display:inline;overflow:visible;enable-background:accumulate"
         id="path3838"
         sodipodi:cx="-755.71429"
         sodipodi:cy="142.36218"
         sodipodi:rx="28.571428"
         sodipodi:ry="28.571428"
         d="m -727.14287,142.36218 a 28.571428,28.571428 0 1 1 -57.14285,0 28.571428,28.571428 0 1 1 57.14285,0 z"
         transform="matrix(0.28177083,0,0,0.28177083,-633.93863,250.29357)" />
      <path
         transform="matrix(0.28177083,0,0,0.28177083,-633.93863,274.70071)"
         d="m -727.14287,142.36218 a 28.571428,28.571428 0 1 1 -57.14285,0 28.571428,28.571428 0 1 1 57.14285,0 z"
         sodipodi:ry="28.571428"
         sodipodi:rx="28.571428"
         sodipodi:cy="142.36218"
         sodipodi:cx="-755.71429"
         id="path3840"
         style="color:#000000;fill:#ff9595;fill-opacity:1;fill-rule:nonzero;stroke:#000000;stroke-width:3.54898341;stroke-linecap:butt;stroke-linejoin:miter;stroke-miterlimit:4;stroke-opacity:1;stroke-dasharray:none;stroke-dashoffset:0;marker:none;visibility:visible;display:inline;overflow:visible;enable-background:accumulate"
         sodipodi:type="arc" />
      <path
         sodipodi:type="arc"
         style="color:#000000;fill:#ffffff;fill-opacity:1;fill-rule:nonzero;stroke:#000000;stroke-width:3.54898341;stroke-linecap:butt;stroke-linejoin:miter;stroke-miterlimit:4;stroke-opacity:1;stroke-dasharray:none;stroke-dashoffset:0;marker:none;visibility:visible;display:inline;overflow:visible;enable-background:accumulate"
         id="path3842"
         sodipodi:cx="-755.71429"
         sodipodi:cy="142.36218"
         sodipodi:rx="28.571428"
         sodipodi:ry="28.571428"
         d="m -727.14287,142.36218 a 28.571428,28.571428 0 1 1 -57.14285,0 28.571428,28.571428 0 1 1 57.14285,0 z"
         transform="matrix(0.28177083,0,0,0.28177083,-633.93863,299.10785)" />
      <path
         transform="matrix(0.28177083,0,0,0.28177083,-633.93863,323.51502)"
         d="m -727.14287,142.36218 a 28.571428,28.571428 0 1 1 -57.14285,0 28.571428,28.571428 0 1 1 57.14285,0 z"
         sodipodi:ry="28.571428"
         sodipodi:rx="28.571428"
         sodipodi:cy="142.36218"
         sodipodi:cx="-755.71429"
         id="path3844"
         style="color:#000000;fill:#ff1717;fill-opacity:1;fill-rule:nonzero;stroke:#000000;stroke-width:3.54898340999999995;stroke-linecap:butt;stroke-linejoin:miter;stroke-miterlimit:4;stroke-opacity:1;stroke-dasharray:none;stroke-dashoffset:0;marker:none;visibility:visible;display:inline;overflow:visible;enable-background:accumulate"
         sodipodi:type="arc" />
      <path
         sodipodi:type="arc"
         style="color:#000000;fill:#ffffff;fill-opacity:1;fill-rule:nonzero;stroke:#000000;stroke-width:3.54898341;stroke-linecap:butt;stroke-linejoin:miter;stroke-miterlimit:4;stroke-opacity:1;stroke-dasharray:none;stroke-dashoffset:0;marker:none;visibility:visible;display:inline;overflow:visible;enable-background:accumulate"
         id="path3848"
         sodipodi:cx="-755.71429"
         sodipodi:cy="142.36218"
         sodipodi:rx="28.571428"
         sodipodi:ry="28.571428"
         d="m -727.14287,142.36218 a 28.571428,28.571428 0 1 1 -57.14285,0 28.571428,28.571428 0 1 1 57.14285,0 z"
         transform="matrix(0.28177083,0,0,0.28177083,-708.51209,225.88641)" />
      <path
         transform="matrix(0.28177083,0,0,0.28177083,-708.51209,250.29357)"
         d="m -727.14287,142.36218 a 28.571428,28.571428 0 1 1 -57.14285,0 28.571428,28.571428 0 1 1 57.14285,0 z"
         sodipodi:ry="28.571428"
         sodipodi:rx="28.571428"
         sodipodi:cy="142.36218"
         sodipodi:cx="-755.71429"
         id="path3850"
         style="color:#000000;fill:#ff0000;fill-opacity:1;fill-rule:nonzero;stroke:#000000;stroke-width:3.54898341;stroke-linecap:butt;stroke-linejoin:miter;stroke-miterlimit:4;stroke-opacity:1;stroke-dasharray:none;stroke-dashoffset:0;marker:none;visibility:visible;display:inline;overflow:visible;enable-background:accumulate"
         sodipodi:type="arc" />
      <path
         sodipodi:type="arc"
         style="color:#000000;fill:#ffffff;fill-opacity:1;fill-rule:nonzero;stroke:#000000;stroke-width:3.54898340999999995;stroke-linecap:butt;stroke-linejoin:miter;stroke-miterlimit:4;stroke-opacity:1;stroke-dasharray:none;stroke-dashoffset:0;marker:none;visibility:visible;display:inline;overflow:visible;enable-background:accumulate"
         id="path3852"
         sodipodi:cx="-755.71429"
         sodipodi:cy="142.36218"
         sodipodi:rx="28.571428"
         sodipodi:ry="28.571428"
         d="m -727.14287,142.36218 a 28.571428,28.571428 0 1 1 -57.14285,0 28.571428,28.571428 0 1 1 57.14285,0 z"
         transform="matrix(0.28177083,0,0,0.28177083,-708.51209,274.70071)" />
      <path
         transform="matrix(0.28177083,0,0,0.28177083,-708.51209,299.10785)"
         d="m -727.14287,142.36218 a 28.571428,28.571428 0 1 1 -57.14285,0 28.571428,28.571428 0 1 1 57.14285,0 z"
         sodipodi:ry="28.571428"
         sodipodi:rx="28.571428"
         sodipodi:cy="142.36218"
         sodipodi:cx="-755.71429"
         id="path3854"
         style="color:#000000;fill:#ffffff;fill-opacity:1;fill-rule:nonzero;stroke:#000000;stroke-width:3.54898341;stroke-linecap:butt;stroke-linejoin:miter;stroke-miterlimit:4;stroke-opacity:1;stroke-dasharray:none;stroke-dashoffset:0;marker:none;visibility:visible;display:inline;overflow:visible;enable-background:accumulate"
         sodipodi:type="arc" />
      <path
         sodipodi:type="arc"
         style="color:#000000;fill:#ffb1b1;fill-opacity:1;fill-rule:nonzero;stroke:#000000;stroke-width:3.54898341;stroke-linecap:butt;stroke-linejoin:miter;stroke-miterlimit:4;stroke-opacity:1;stroke-dasharray:none;stroke-dashoffset:0;marker:none;visibility:visible;display:inline;overflow:visible;enable-background:accumulate"
         id="path3856"
         sodipodi:cx="-755.71429"
         sodipodi:cy="142.36218"
         sodipodi:rx="28.571428"
         sodipodi:ry="28.571428"
         d="m -727.14287,142.36218 a 28.571428,28.571428 0 1 1 -57.14285,0 28.571428,28.571428 0 1 1 57.14285,0 z"
         transform="matrix(0.28177083,0,0,0.28177083,-708.51209,323.51502)" />
      <path
         style="font-size:medium;font-style:normal;font-variant:normal;font-weight:normal;font-stretch:normal;text-indent:0;text-align:start;text-decoration:none;line-height:normal;letter-spacing:normal;word-spacing:normal;text-transform:none;direction:ltr;block-progression:tb;writing-mode:lr-tb;text-anchor:start;baseline-shift:baseline;color:#000000;fill:#000000;fill-opacity:1;fill-rule:nonzero;stroke:none;stroke-width:3.54898334;marker:none;visibility:visible;display:inline;overflow:visible;enable-background:accumulate;font-family:Sans;-inkscape-font-specification:Sans"
         d="m -896.59378,257.45355 c -4.71644,0 -8.54998,3.83354 -8.54998,8.54998 0,4.71644 3.83354,8.54999 8.54998,8.54999 4.71644,0 8.54998,-3.83355 8.54998,-8.54999 0,-4.71644 -3.83354,-8.54998 -8.54998,-8.54998 z m 0,0.995 c 4.176,0 7.55498,3.37898 7.55498,7.55498 0,4.176 -3.37898,7.54618 -7.55498,7.54618 -4.176,0 -7.54617,-3.37018 -7.54617,-7.54618 0,-4.176 3.37017,-7.55498 7.54617,-7.55498 z"
         id="path2987"
         inkscape:connector-curvature="0" />
      <path
         style="font-size:medium;font-style:normal;font-variant:normal;font-weight:normal;font-stretch:normal;text-indent:0;text-align:start;text-decoration:none;line-height:normal;letter-spacing:normal;word-spacing:normal;text-transform:none;direction:ltr;block-progression:tb;writing-mode:lr-tb;text-anchor:start;baseline-shift:baseline;color:#000000;fill:#000000;fill-opacity:1;fill-rule:nonzero;stroke:none;stroke-width:3.54898334;marker:none;visibility:visible;display:inline;overflow:visible;enable-background:accumulate;font-family:Sans;-inkscape-font-specification:Sans"
         d="m -896.59378,281.86071 c -4.71644,0 -8.54998,3.83354 -8.54998,8.54998 0,4.71644 3.83354,8.54999 8.54998,8.54999 4.71644,0 8.54998,-3.83355 8.54998,-8.54999 0,-4.71644 -3.83354,-8.54998 -8.54998,-8.54998 z m 0,0.995 c 4.176,0 7.55498,3.37898 7.55498,7.55498 0,4.176 -3.37898,7.54618 -7.55498,7.54618 -4.176,0 -7.54617,-3.37018 -7.54617,-7.54618 0,-4.176 3.37017,-7.55498 7.54617,-7.55498 z"
         id="path2989"
         inkscape:connector-curvature="0" />
      <path
         style="font-size:medium;font-style:normal;font-variant:normal;font-weight:normal;font-stretch:normal;text-indent:0;text-align:start;text-decoration:none;line-height:normal;letter-spacing:normal;word-spacing:normal;text-transform:none;direction:ltr;block-progression:tb;writing-mode:lr-tb;text-anchor:start;baseline-shift:baseline;color:#000000;fill:#000000;fill-opacity:1;fill-rule:nonzero;stroke:none;stroke-width:3.54898334;marker:none;visibility:visible;display:inline;overflow:visible;enable-background:accumulate;font-family:Sans;-inkscape-font-specification:Sans"
         d="m -896.59378,306.26785 c -4.71644,0 -8.54998,3.83354 -8.54998,8.54998 0,4.71644 3.83354,8.54999 8.54998,8.54999 4.71644,0 8.54998,-3.83355 8.54998,-8.54999 0,-4.71644 -3.83354,-8.54998 -8.54998,-8.54998 z m 0,0.995 c 4.176,0 7.55498,3.37898 7.55498,7.55498 0,4.176 -3.37898,7.54618 -7.55498,7.54618 -4.176,0 -7.54617,-3.37018 -7.54617,-7.54618 0,-4.176 3.37017,-7.55498 7.54617,-7.55498 z"
         id="path2991"
         inkscape:connector-curvature="0" />
      <path
         style="font-size:medium;font-style:normal;font-variant:normal;font-weight:normal;font-stretch:normal;text-indent:0;text-align:start;text-decoration:none;line-height:normal;letter-spacing:normal;word-spacing:normal;text-transform:none;direction:ltr;block-progression:tb;writing-mode:lr-tb;text-anchor:start;baseline-shift:baseline;color:#000000;fill:#000000;fill-opacity:1;fill-rule:nonzero;stroke:none;stroke-width:3.54898334;marker:none;visibility:visible;display:inline;overflow:visible;enable-background:accumulate;font-family:Sans;-inkscape-font-specification:Sans"
         d="m -896.59378,330.67499 c -4.71644,0 -8.54998,3.83354 -8.54998,8.54998 0,4.71644 3.83354,8.54999 8.54998,8.54999 4.71644,0 8.54998,-3.83355 8.54998,-8.54999 0,-4.71644 -3.83354,-8.54998 -8.54998,-8.54998 z m 0,0.995 c 4.176,0 7.55498,3.37898 7.55498,7.55498 0,4.176 -3.37898,7.54618 -7.55498,7.54618 -4.176,0 -7.54617,-3.37018 -7.54617,-7.54618 0,-4.176 3.37017,-7.55498 7.54617,-7.55498 z"
         id="path2993"
         inkscape:connector-curvature="0" />
      <path
         style="font-size:medium;font-style:normal;font-variant:normal;font-weight:normal;font-stretch:normal;text-indent:0;text-align:start;text-decoration:none;line-height:normal;letter-spacing:normal;word-spacing:normal;text-transform:none;direction:ltr;block-progression:tb;writing-mode:lr-tb;text-anchor:start;baseline-shift:baseline;color:#000000;fill:#000000;fill-opacity:1;fill-rule:nonzero;stroke:none;stroke-width:3.54898334;marker:none;visibility:visible;display:inline;overflow:visible;enable-background:accumulate;font-family:Sans;-inkscape-font-specification:Sans"
         d="m -896.59378,355.08216 c -4.71644,0 -8.54998,3.83354 -8.54998,8.54998 0,4.71644 3.83354,8.54999 8.54998,8.54999 4.71644,0 8.54998,-3.83355 8.54998,-8.54999 0,-4.71644 -3.83354,-8.54998 -8.54998,-8.54998 z m 0,0.995 c 4.176,0 7.55498,3.37898 7.55498,7.55498 0,4.176 -3.37898,7.54618 -7.55498,7.54618 -4.176,0 -7.54617,-3.37018 -7.54617,-7.54618 0,-4.176 3.37017,-7.55498 7.54617,-7.55498 z"
         id="path2995"
         inkscape:connector-curvature="0" />
      <path
         style="font-size:medium;font-style:normal;font-variant:normal;font-weight:normal;font-stretch:normal;text-indent:0;text-align:start;text-decoration:none;line-height:normal;letter-spacing:normal;word-spacing:normal;text-transform:none;direction:ltr;block-progression:tb;writing-mode:lr-tb;text-anchor:start;baseline-shift:baseline;color:#000000;fill:#000000;fill-opacity:1;fill-rule:nonzero;stroke:none;stroke-width:3.54898334;marker:none;visibility:visible;display:inline;overflow:visible;enable-background:accumulate;font-family:Sans;-inkscape-font-specification:Sans"
         d="m -871.73594,257.45355 c -4.71644,0 -8.54998,3.83354 -8.54998,8.54998 0,4.71644 3.83354,8.54999 8.54998,8.54999 4.71644,0 8.54998,-3.83355 8.54998,-8.54999 0,-4.71644 -3.83354,-8.54998 -8.54998,-8.54998 z m 0,0.995 c 4.176,0 7.55498,3.37898 7.55498,7.55498 0,4.176 -3.37898,7.54618 -7.55498,7.54618 -4.176,0 -7.54617,-3.37018 -7.54617,-7.54618 0,-4.176 3.37017,-7.55498 7.54617,-7.55498 z"
         id="path3824"
         inkscape:connector-curvature="0" />
      <path
         style="font-size:medium;font-style:normal;font-variant:normal;font-weight:normal;font-stretch:normal;text-indent:0;text-align:start;text-decoration:none;line-height:normal;letter-spacing:normal;word-spacing:normal;text-transform:none;direction:ltr;block-progression:tb;writing-mode:lr-tb;text-anchor:start;baseline-shift:baseline;color:#000000;fill:#000000;fill-opacity:1;fill-rule:nonzero;stroke:none;stroke-width:3.54898334;marker:none;visibility:visible;display:inline;overflow:visible;enable-background:accumulate;font-family:Sans;-inkscape-font-specification:Sans"
         d="m -871.73594,281.86071 c -4.71644,0 -8.54998,3.83354 -8.54998,8.54998 0,4.71644 3.83354,8.54999 8.54998,8.54999 4.71644,0 8.54998,-3.83355 8.54998,-8.54999 0,-4.71644 -3.83354,-8.54998 -8.54998,-8.54998 z m 0,0.995 c 4.176,0 7.55498,3.37898 7.55498,7.55498 0,4.176 -3.37898,7.54618 -7.55498,7.54618 -4.176,0 -7.54617,-3.37018 -7.54617,-7.54618 0,-4.176 3.37017,-7.55498 7.54617,-7.55498 z"
         id="path3826"
         inkscape:connector-curvature="0" />
      <path
         style="font-size:medium;font-style:normal;font-variant:normal;font-weight:normal;font-stretch:normal;text-indent:0;text-align:start;text-decoration:none;line-height:normal;letter-spacing:normal;word-spacing:normal;text-transform:none;direction:ltr;block-progression:tb;writing-mode:lr-tb;text-anchor:start;baseline-shift:baseline;color:#000000;fill:#000000;fill-opacity:1;fill-rule:nonzero;stroke:none;stroke-width:3.54898334;marker:none;visibility:visible;display:inline;overflow:visible;enable-background:accumulate;font-family:Sans;-inkscape-font-specification:Sans"
         d="m -871.73594,306.26785 c -4.71644,0 -8.54998,3.83354 -8.54998,8.54998 0,4.71644 3.83354,8.54999 8.54998,8.54999 4.71644,0 8.54998,-3.83355 8.54998,-8.54999 0,-4.71644 -3.83354,-8.54998 -8.54998,-8.54998 z m 0,0.995 c 4.176,0 7.55498,3.37898 7.55498,7.55498 0,4.176 -3.37898,7.54618 -7.55498,7.54618 -4.176,0 -7.54617,-3.37018 -7.54617,-7.54618 0,-4.176 3.37017,-7.55498 7.54617,-7.55498 z"
         id="path3828"
         inkscape:connector-curvature="0" />
      <path
         style="font-size:medium;font-style:normal;font-variant:normal;font-weight:normal;font-stretch:normal;text-indent:0;text-align:start;text-decoration:none;line-height:normal;letter-spacing:normal;word-spacing:normal;text-transform:none;direction:ltr;block-progression:tb;writing-mode:lr-tb;text-anchor:start;baseline-shift:baseline;color:#000000;fill:#000000;fill-opacity:1;fill-rule:nonzero;stroke:none;stroke-width:3.54898334;marker:none;visibility:visible;display:inline;overflow:visible;enable-background:accumulate;font-family:Sans;-inkscape-font-specification:Sans"
         d="m -871.73594,330.67499 c -4.71644,0 -8.54998,3.83354 -8.54998,8.54998 0,4.71644 3.83354,8.54999 8.54998,8.54999 4.71644,0 8.54998,-3.83355 8.54998,-8.54999 0,-4.71644 -3.83354,-8.54998 -8.54998,-8.54998 z m 0,0.995 c 4.176,0 7.55498,3.37898 7.55498,7.55498 0,4.176 -3.37898,7.54618 -7.55498,7.54618 -4.176,0 -7.54617,-3.37018 -7.54617,-7.54618 0,-4.176 3.37017,-7.55498 7.54617,-7.55498 z"
         id="path3830"
         inkscape:connector-curvature="0" />
      <path
         style="font-size:medium;font-style:normal;font-variant:normal;font-weight:normal;font-stretch:normal;text-indent:0;text-align:start;text-decoration:none;line-height:normal;letter-spacing:normal;word-spacing:normal;text-transform:none;direction:ltr;block-progression:tb;writing-mode:lr-tb;text-anchor:start;baseline-shift:baseline;color:#000000;fill:#000000;fill-opacity:1;fill-rule:nonzero;stroke:none;stroke-width:3.54898334;marker:none;visibility:visible;display:inline;overflow:visible;enable-background:accumulate;font-family:Sans;-inkscape-font-specification:Sans"
         d="m -871.73594,355.08216 c -4.71644,0 -8.54998,3.83354 -8.54998,8.54998 0,4.71644 3.83354,8.54999 8.54998,8.54999 4.71644,0 8.54998,-3.83355 8.54998,-8.54999 0,-4.71644 -3.83354,-8.54998 -8.54998,-8.54998 z m 0,0.995 c 4.176,0 7.55498,3.37898 7.55498,7.55498 0,4.176 -3.37898,7.54618 -7.55498,7.54618 -4.176,0 -7.54617,-3.37018 -7.54617,-7.54618 0,-4.176 3.37017,-7.55498 7.54617,-7.55498 z"
         id="path3832"
         inkscape:connector-curvature="0" />
      <path
         style="font-size:medium;font-style:normal;font-variant:normal;font-weight:normal;font-stretch:normal;text-indent:0;text-align:start;text-decoration:none;line-height:normal;letter-spacing:normal;word-spacing:normal;text-transform:none;direction:ltr;block-progression:tb;writing-mode:lr-tb;text-anchor:start;baseline-shift:baseline;color:#000000;fill:#000000;fill-opacity:1;fill-rule:nonzero;stroke:none;stroke-width:3.54898334;marker:none;visibility:visible;display:inline;overflow:visible;enable-background:accumulate;font-family:Sans;-inkscape-font-specification:Sans"
         d="m -846.87813,257.45355 c -4.71644,0 -8.54998,3.83354 -8.54998,8.54998 0,4.71644 3.83354,8.54999 8.54998,8.54999 4.71644,0 8.54998,-3.83355 8.54998,-8.54999 0,-4.71644 -3.83354,-8.54998 -8.54998,-8.54998 z m 0,0.995 c 4.176,0 7.55498,3.37898 7.55498,7.55498 0,4.176 -3.37898,7.54618 -7.55498,7.54618 -4.176,0 -7.54617,-3.37018 -7.54617,-7.54618 0,-4.176 3.37017,-7.55498 7.54617,-7.55498 z"
         id="path3836"
         inkscape:connector-curvature="0" />
      <path
         style="font-size:medium;font-style:normal;font-variant:normal;font-weight:normal;font-stretch:normal;text-indent:0;text-align:start;text-decoration:none;line-height:normal;letter-spacing:normal;word-spacing:normal;text-transform:none;direction:ltr;block-progression:tb;writing-mode:lr-tb;text-anchor:start;baseline-shift:baseline;color:#000000;fill:#000000;fill-opacity:1;fill-rule:nonzero;stroke:none;stroke-width:3.54898334;marker:none;visibility:visible;display:inline;overflow:visible;enable-background:accumulate;font-family:Sans;-inkscape-font-specification:Sans"
         d="m -846.87813,281.86071 c -4.71644,0 -8.54998,3.83354 -8.54998,8.54998 0,4.71644 3.83354,8.54999 8.54998,8.54999 4.71644,0 8.54998,-3.83355 8.54998,-8.54999 0,-4.71644 -3.83354,-8.54998 -8.54998,-8.54998 z m 0,0.995 c 4.176,0 7.55498,3.37898 7.55498,7.55498 0,4.176 -3.37898,7.54618 -7.55498,7.54618 -4.176,0 -7.54617,-3.37018 -7.54617,-7.54618 0,-4.176 3.37017,-7.55498 7.54617,-7.55498 z"
         id="path3838"
         inkscape:connector-curvature="0" />
      <path
         style="font-size:medium;font-style:normal;font-variant:normal;font-weight:normal;font-stretch:normal;text-indent:0;text-align:start;text-decoration:none;line-height:normal;letter-spacing:normal;word-spacing:normal;text-transform:none;direction:ltr;block-progression:tb;writing-mode:lr-tb;text-anchor:start;baseline-shift:baseline;color:#000000;fill:#000000;fill-opacity:1;fill-rule:nonzero;stroke:none;stroke-width:3.54898334;marker:none;visibility:visible;display:inline;overflow:visible;enable-background:accumulate;font-family:Sans;-inkscape-font-specification:Sans"
         d="m -846.87813,306.26785 c -4.71644,0 -8.54998,3.83354 -8.54998,8.54998 0,4.71644 3.83354,8.54999 8.54998,8.54999 4.71644,0 8.54998,-3.83355 8.54998,-8.54999 0,-4.71644 -3.83354,-8.54998 -8.54998,-8.54998 z m 0,0.995 c 4.176,0 7.55498,3.37898 7.55498,7.55498 0,4.176 -3.37898,7.54618 -7.55498,7.54618 -4.176,0 -7.54617,-3.37018 -7.54617,-7.54618 0,-4.176 3.37017,-7.55498 7.54617,-7.55498 z"
         id="path3840"
         inkscape:connector-curvature="0" />
      <path
         style="font-size:medium;font-style:normal;font-variant:normal;font-weight:normal;font-stretch:normal;text-indent:0;text-align:start;text-decoration:none;line-height:normal;letter-spacing:normal;word-spacing:normal;text-transform:none;direction:ltr;block-progression:tb;writing-mode:lr-tb;text-anchor:start;baseline-shift:baseline;color:#000000;fill:#000000;fill-opacity:1;fill-rule:nonzero;stroke:none;stroke-width:3.54898334;marker:none;visibility:visible;display:inline;overflow:visible;enable-background:accumulate;font-family:Sans;-inkscape-font-specification:Sans"
         d="m -846.87813,330.67499 c -4.71644,0 -8.54998,3.83354 -8.54998,8.54998 0,4.71644 3.83354,8.54999 8.54998,8.54999 4.71644,0 8.54998,-3.83355 8.54998,-8.54999 0,-4.71644 -3.83354,-8.54998 -8.54998,-8.54998 z m 0,0.995 c 4.176,0 7.55498,3.37898 7.55498,7.55498 0,4.176 -3.37898,7.54618 -7.55498,7.54618 -4.176,0 -7.54617,-3.37018 -7.54617,-7.54618 0,-4.176 3.37017,-7.55498 7.54617,-7.55498 z"
         id="path3842"
         inkscape:connector-curvature="0" />
      <path
         style="font-size:medium;font-style:normal;font-variant:normal;font-weight:normal;font-stretch:normal;text-indent:0;text-align:start;text-decoration:none;line-height:normal;letter-spacing:normal;word-spacing:normal;text-transform:none;direction:ltr;block-progression:tb;writing-mode:lr-tb;text-anchor:start;baseline-shift:baseline;color:#000000;fill:#000000;fill-opacity:1;fill-rule:nonzero;stroke:none;stroke-width:3.54898334;marker:none;visibility:visible;display:inline;overflow:visible;enable-background:accumulate;font-family:Sans;-inkscape-font-specification:Sans"
         d="m -846.87813,355.08216 c -4.71644,0 -8.54998,3.83354 -8.54998,8.54998 0,4.71644 3.83354,8.54999 8.54998,8.54999 4.71644,0 8.54998,-3.83355 8.54998,-8.54999 0,-4.71644 -3.83354,-8.54998 -8.54998,-8.54998 z m 0,0.995 c 4.176,0 7.55498,3.37898 7.55498,7.55498 0,4.176 -3.37898,7.54618 -7.55498,7.54618 -4.176,0 -7.54617,-3.37018 -7.54617,-7.54618 0,-4.176 3.37017,-7.55498 7.54617,-7.55498 z"
         id="path3844"
         inkscape:connector-curvature="0" />
      <path
         style="font-size:medium;font-style:normal;font-variant:normal;font-weight:normal;font-stretch:normal;text-indent:0;text-align:start;text-decoration:none;line-height:normal;letter-spacing:normal;word-spacing:normal;text-transform:none;direction:ltr;block-progression:tb;writing-mode:lr-tb;text-anchor:start;baseline-shift:baseline;color:#000000;fill:#000000;fill-opacity:1;fill-rule:nonzero;stroke:none;stroke-width:3.54898334;marker:none;visibility:visible;display:inline;overflow:visible;enable-background:accumulate;font-family:Sans;-inkscape-font-specification:Sans"
         d="m -921.45159,257.45355 c -4.71644,0 -8.54998,3.83354 -8.54998,8.54998 0,4.71644 3.83354,8.54999 8.54998,8.54999 4.71644,0 8.54998,-3.83355 8.54998,-8.54999 0,-4.71644 -3.83354,-8.54998 -8.54998,-8.54998 z m 0,0.995 c 4.176,0 7.55498,3.37898 7.55498,7.55498 0,4.176 -3.37898,7.54618 -7.55498,7.54618 -4.176,0 -7.54617,-3.37018 -7.54617,-7.54618 0,-4.176 3.37017,-7.55498 7.54617,-7.55498 z"
         id="path3848"
         inkscape:connector-curvature="0" />
      <path
         style="font-size:medium;font-style:normal;font-variant:normal;font-weight:normal;font-stretch:normal;text-indent:0;text-align:start;text-decoration:none;line-height:normal;letter-spacing:normal;word-spacing:normal;text-transform:none;direction:ltr;block-progression:tb;writing-mode:lr-tb;text-anchor:start;baseline-shift:baseline;color:#000000;fill:#000000;fill-opacity:1;fill-rule:nonzero;stroke:none;stroke-width:3.54898334;marker:none;visibility:visible;display:inline;overflow:visible;enable-background:accumulate;font-family:Sans;-inkscape-font-specification:Sans"
         d="m -921.45159,281.86071 c -4.71644,0 -8.54998,3.83354 -8.54998,8.54998 0,4.71644 3.83354,8.54999 8.54998,8.54999 4.71644,0 8.54998,-3.83355 8.54998,-8.54999 0,-4.71644 -3.83354,-8.54998 -8.54998,-8.54998 z m 0,0.995 c 4.176,0 7.55498,3.37898 7.55498,7.55498 0,4.176 -3.37898,7.54618 -7.55498,7.54618 -4.176,0 -7.54617,-3.37018 -7.54617,-7.54618 0,-4.176 3.37017,-7.55498 7.54617,-7.55498 z"
         id="path3850"
         inkscape:connector-curvature="0" />
      <path
         style="font-size:medium;font-style:normal;font-variant:normal;font-weight:normal;font-stretch:normal;text-indent:0;text-align:start;text-decoration:none;line-height:normal;letter-spacing:normal;word-spacing:normal;text-transform:none;direction:ltr;block-progression:tb;writing-mode:lr-tb;text-anchor:start;baseline-shift:baseline;color:#000000;fill:#000000;fill-opacity:1;fill-rule:nonzero;stroke:none;stroke-width:3.54898334;marker:none;visibility:visible;display:inline;overflow:visible;enable-background:accumulate;font-family:Sans;-inkscape-font-specification:Sans"
         d="m -921.45159,306.26785 c -4.71644,0 -8.54998,3.83354 -8.54998,8.54998 0,4.71644 3.83354,8.54999 8.54998,8.54999 4.71644,0 8.54998,-3.83355 8.54998,-8.54999 0,-4.71644 -3.83354,-8.54998 -8.54998,-8.54998 z m 0,0.995 c 4.176,0 7.55498,3.37898 7.55498,7.55498 0,4.176 -3.37898,7.54618 -7.55498,7.54618 -4.176,0 -7.54617,-3.37018 -7.54617,-7.54618 0,-4.176 3.37017,-7.55498 7.54617,-7.55498 z"
         id="path3852"
         inkscape:connector-curvature="0" />
      <path
         style="font-size:medium;font-style:normal;font-variant:normal;font-weight:normal;font-stretch:normal;text-indent:0;text-align:start;text-decoration:none;line-height:normal;letter-spacing:normal;word-spacing:normal;text-transform:none;direction:ltr;block-progression:tb;writing-mode:lr-tb;text-anchor:start;baseline-shift:baseline;color:#000000;fill:#000000;fill-opacity:1;fill-rule:nonzero;stroke:none;stroke-width:3.54898334;marker:none;visibility:visible;display:inline;overflow:visible;enable-background:accumulate;font-family:Sans;-inkscape-font-specification:Sans"
         d="m -921.45159,330.67499 c -4.71644,0 -8.54998,3.83354 -8.54998,8.54998 0,4.71644 3.83354,8.54999 8.54998,8.54999 4.71644,0 8.54998,-3.83355 8.54998,-8.54999 0,-4.71644 -3.83354,-8.54998 -8.54998,-8.54998 z m 0,0.995 c 4.176,0 7.55498,3.37898 7.55498,7.55498 0,4.176 -3.37898,7.54618 -7.55498,7.54618 -4.176,0 -7.54617,-3.37018 -7.54617,-7.54618 0,-4.176 3.37017,-7.55498 7.54617,-7.55498 z"
         id="path3854"
         inkscape:connector-curvature="0" />
      <path
         style="font-size:medium;font-style:normal;font-variant:normal;font-weight:normal;font-stretch:normal;text-indent:0;text-align:start;text-decoration:none;line-height:normal;letter-spacing:normal;word-spacing:normal;text-transform:none;direction:ltr;block-progression:tb;writing-mode:lr-tb;text-anchor:start;baseline-shift:baseline;color:#000000;fill:#000000;fill-opacity:1;fill-rule:nonzero;stroke:none;stroke-width:3.54898334;marker:none;visibility:visible;display:inline;overflow:visible;enable-background:accumulate;font-family:Sans;-inkscape-font-specification:Sans"
         d="m -921.45159,355.08216 c -4.71644,0 -8.54998,3.83354 -8.54998,8.54998 0,4.71644 3.83354,8.54999 8.54998,8.54999 4.71644,0 8.54998,-3.83355 8.54998,-8.54999 0,-4.71644 -3.83354,-8.54998 -8.54998,-8.54998 z m 0,0.995 c 4.176,0 7.55498,3.37898 7.55498,7.55498 0,4.176 -3.37898,7.54618 -7.55498,7.54618 -4.176,0 -7.54617,-3.37018 -7.54617,-7.54618 0,-4.176 3.37017,-7.55498 7.54617,-7.55498 z"
         id="path3856"
         inkscape:connector-curvature="0" />
    </g>
  </g>
</svg>
