<?xml version="1.0" encoding="UTF-8" standalone="no"?>
<!-- Created with Inkscape (http://www.inkscape.org/) -->

<svg
   xmlns:dc="http://purl.org/dc/elements/1.1/"
   xmlns:cc="http://creativecommons.org/ns#"
   xmlns:rdf="http://www.w3.org/1999/02/22-rdf-syntax-ns#"
   xmlns:svg="http://www.w3.org/2000/svg"
   xmlns="http://www.w3.org/2000/svg"
   xmlns:sodipodi="http://sodipodi.sourceforge.net/DTD/sodipodi-0.dtd"
   xmlns:inkscape="http://www.inkscape.org/namespaces/inkscape"
   width="52.46875"
   height="32.90625"
   id="svg2"
   version="1.1"
   inkscape:version="0.48.4 r9939"
   sodipodi:docname="ProcessImg.svg">
  <defs
     id="defs4">
    <clipPath
       clipPathUnits="userSpaceOnUse"
       id="clipPath3025">
      <rect
         ry="28.571428"
         rx="28.571428"
         y="252.45224"
         x="38.214283"
         height="281.50479"
         width="360.75015"
         id="rect3027"
         style="fill:none;stroke:#000000" />
    </clipPath>
  </defs>
  <sodipodi:namedview
     id="base"
     pagecolor="#ffffff"
     bordercolor="#666666"
     borderopacity="1.0"
     inkscape:pageopacity="0.0"
     inkscape:pageshadow="2"
     inkscape:zoom="2.8"
     inkscape:cx="-45.014151"
     inkscape:cy="0.043394088"
     inkscape:document-units="px"
     inkscape:current-layer="layer1"
     showgrid="false"
     fit-margin-top="0"
     fit-margin-left="0"
     fit-margin-right="0"
     fit-margin-bottom="0"
     inkscape:window-width="1600"
     inkscape:window-height="824"
     inkscape:window-x="0"
     inkscape:window-y="24"
     inkscape:window-maximized="1" />
  <metadata
     id="metadata7">
    <rdf:RDF>
      <cc:Work
         rdf:about="">
        <dc:format>image/svg+xml</dc:format>
        <dc:type
           rdf:resource="http://purl.org/dc/dcmitype/StillImage" />
        <dc:title />
      </cc:Work>
    </rdf:RDF>
  </metadata>
  <g
     inkscape:label="Calque 1"
     inkscape:groupmode="layer"
     id="layer1"
     transform="translate(-809.6875,-207.15625)">
    <g
       id="g3087"
       transform="matrix(0.1794145,0,0,0.1794145,745.4641,184.35884)">
      <path
         style="fill:#aecfe6"
         d="m 362.0032,218.43362 c 0,-29.5 0,-59 0,-88.5 94.66667,0 189.33333,0 284,0 0,59 0,118 0,177 -94.66667,0 -189.33333,0 -284,0 0,-29.5 0,-59 0,-88.5 z m 216.44721,7.58541 c -2.28806,-4.87009 -11.16703,3.03673 -1.31335,0.66447 l 1.31335,-0.6645 0,3e-5 z m -87.00068,-12.83541 c -6.01297,-7.35306 -20.25856,-3.10456 -28.87815,-8.25 -4.93214,-0.6352 -21.8873,9.93 -8.96266,7.52268 4.56635,-3.75787 22.26698,-0.48065 8.64718,2.69047 9.68541,1.12672 19.54618,0.54924 29.31314,0.78685 -0.0398,-0.91667 -0.0797,-1.83333 -0.11951,-2.75 z m 109.93745,-4.36421 c 16.25829,-4.27875 -11.60733,-5.76518 -15.38398,0.661 5.00603,1.08659 10.39081,0.19801 15.38398,-0.661 z M 442.5032,200.41362 c 4.63562,-0.97228 21.87355,-1.64899 9.29695,-5.70722 -7.94823,-0.73168 -22.75497,1.82913 -25.35596,6.46547 5.26868,1.20473 10.84469,0.34685 16.05901,-0.75825 z m -0.5,-14.77865 c -9.45504,0.54436 -23.1029,-9.6853 -29.74533,-1.15821 8.53235,2.986 23.79473,2.41411 29.74533,1.15821 z m -60,-16.28651 c 5.99832,-1.59462 9.16205,-9.34278 15.69606,-5.10874 6.63848,0.0564 13.38333,8.72414 18.59317,2.04127 -10.85503,-10.46869 11.69225,1.68157 17.0877,0.24409 2.84442,-0.61067 -2.25885,-8.63656 -2.60307,-10.41562 -8.60511,-1.23836 -15.52917,0.88077 -23.60367,2.44987 -7.52005,-2.07042 -19.20564,-12.49687 -21.81109,0.70017 -5.75355,4.71967 -13.59608,3.2264 -17.61548,9.44029 2.85219,4.24813 10.18025,1.50527 14.25638,0.64867 z"
         id="path3137"
         inkscape:connector-curvature="0" />
      <path
         style="fill:#91c7e4"
         d="m 362.0032,218.43362 c 0,-29.5 0,-59 0,-88.5 94.66667,0 189.33333,0 284,0 0,59 0,118 0,177 -94.66667,0 -189.33333,0 -284,0 0,-29.5 0,-59 0,-88.5 z m 111,38.04639 c 9.67879,1.80037 5.90809,-10.21198 8.54017,-13.38274 10.70258,-4.52748 22.24464,-6.91312 33.67752,-2.58038 4.99922,0.18253 10.67339,2.84055 7.68092,6.67139 7.16331,11.47418 19.80098,10.35899 31.80578,7.46841 4.87496,-2.01692 0.34874,-3.89506 6.72882,-5.43382 10.26931,0.26766 -1.45811,-6.5268 6.81679,-8.35792 1.21638,-8.95589 19.01601,-1.56073 17.93029,-6.63758 -10.2589,-2.00083 -21.04998,-5.17127 -30.69892,-0.19597 -36.05306,0.93851 -72.10134,-0.82975 -108.12901,-1.80884 -9.36707,0.79177 -20.33499,1.62471 -28.15498,6.52477 13.10263,0.51564 19.21043,12.90867 32.10349,15.34657 -9.0845,6.75553 15.89509,2.31531 21.69913,2.38611 z m 0.47301,-1.59006 c 2.5729,-3.26339 4.88266,1.97502 0,0 z m -12.20398,-0.64932 c 6.50737,-0.73849 0.14774,1.54434 0,0 z m 102.23097,-1.30701 c -4.31969,-3.86806 -6.15231,4.44901 0,0 z m 11,-1 c -3.18426,-3.64554 -10.00637,2.82603 -1.31773,0.70625 l 1.31773,-0.70625 z m 9.89917,-7.30261 c 4.24943,-5.77462 -9.77649,-1.53451 -2.25842,1.22942 l 2.25842,-1.22942 0,0 z m 24.3513,-1.44739 c -4.71181,-3.83969 -21.64448,1.19004 -6.09089,1.18471 1.86629,-0.20282 5.12085,1.08847 6.09089,-1.18471 z m -26.90945,-16.18091 c -0.69098,-9.88859 -24.59385,4.0616 -8.24759,1.51473 2.75956,-0.33988 5.6376,-0.46486 8.24759,-1.51473 z m -130.84102,-0.0691 c -2.0146,-2.92947 -18.60751,0.50676 -6.19539,0.95849 2.09115,-0.0401 4.23997,-0.0849 6.19539,-0.95849 z m 4.72917,-0.60417 c -3.25773,-1.10202 -2.68924,1.85676 0,0 z m 36.77083,-3.39583 c -3.90132,-3.02632 -21.96783,-2.09096 -20.39072,1.18106 6.4761,-0.11978 14.80219,1.92215 20.39072,-1.18106 z m 24,-0.89101 c -3.34792,-9.5066 -11.11491,6.25201 0,0 z m -15.68816,-2.84751 c -6.54229,-5.53407 -11.19613,-12.75068 -21.91028,-11.2281 -10.81999,-3.76091 -23.19718,-5.97324 -31.81169,3.3235 2.18003,7.73329 11.3885,-2.06325 13.22631,5.81581 12.63405,0.73687 25.87897,-2.12589 37.78006,3.51711 0.98081,0.27512 3.32357,0.41479 2.7156,-1.42832 z M 462.8157,212.2505 c 6.14828,-1.00297 -1.85742,1.93472 0,0 z m 123.6875,4.68311 c -4.35051,-3.68101 -12.13872,2.61576 -1.44728,0.70625 l 1.44728,-0.70625 z m -6.04271,-4.9309 c -2.5813,-5.37459 -8.73484,4.19297 0,3e-5 l 0,-3e-5 z m 25.79271,-2.95387 c 8.20514,-6.63948 -13.40935,-5.26872 -16.87676,-2.61031 -17.20163,7.0477 12.15179,4.01622 16.87676,2.61031 z m -33,-2.77751 c -3.96734,-0.84663 -3.35362,1.57429 0,0 z m -129.65893,-4.8269 c 5.93751,-0.54271 21.90577,-2.16494 8.88935,-7.61377 -10.20711,-0.96523 -21.22191,2.49683 -30.18659,6.48694 5.81559,3.90034 14.71728,2.51375 21.29724,1.12683 z m 3.35837,-14.84812 c -10.57184,-2.44873 -21.21097,-7.10908 -32.07042,-5.55075 -6.82814,1.02411 -7.68013,7.97739 0.34801,5.73306 10.17945,0.47638 23.02771,2.29909 31.72241,-0.18231 l 0,0 z m -65.31375,-16.15654 c 7.81061,-5.24644 19.65411,-10.06296 25.6066,0.90818 8.29809,1.28299 13.95557,-10.27599 23.4623,-3.96578 7.53664,3.49109 5.46954,-6.17967 2.88224,-10.12396 -10.88232,-7.7464 -20.99012,3.25805 -31.54931,-1.11087 -7.34298,-6.12747 -15.22692,-4.8741 -18.5816,3.70701 -4.4491,2.39427 -21.43678,5.73804 -12.45592,11.19762 3.50394,0.59787 7.38834,1.40034 10.63569,-0.6122 z"
         id="path3135"
         inkscape:connector-curvature="0" />
      <path
         style="fill:#92b5d8"
         d="m 362.01431,218.43362 c 6.7e-4,-29.5 10e-4,-59 0.002,-88.5 94.66222,0 189.32444,0 283.98666,0 0,59 0,118 0,177 -94.66371,0 -189.32741,0 -283.99112,0 9.7e-4,-29.49985 7.2e-4,-59.00092 0.002,-88.5 z m 99.97348,39.16507 c 6.16153,-0.38836 12.32307,-0.77671 18.4846,-1.16507 0.64477,-8.38755 5.64479,-16.23384 14.11987,-18.19463 9.50813,-1.58153 19.93137,1.71243 24.16688,8.88077 10.43917,2.5444 15.90555,14.93939 28.52357,8.55062 9.59421,-2.25386 19.92843,-1.45464 29.1073,-4.60737 5.19329,-5.31758 7.82698,4.12372 9.93023,-0.18218 -5.41451,-3.87243 -0.97934,-6.15319 1.14576,-10.38214 7.14159,0.87036 8.59417,-14.01797 2.28579,-6.6756 -1.25831,-9.66245 -21.13137,0.35899 -18.85151,-4.45992 4.89071,-0.96434 22.6159,-0.7763 9.5584,-5.67155 -11.66905,-4.01521 -19.69739,10.99908 -31.54711,5.57049 8.66919,-5.47844 -15.70054,-5.3756 -17.36169,-2.55634 5.19682,5.87399 -16.14816,6.01902 -17.92478,3.23999 10.06038,-5.1545 2.77886,-16.87117 -5.85185,-7.90884 -9.37815,-3.18202 -15.02706,-17.8547 -28.07268,-14.14313 -10.84999,-2.43689 -20.75235,-9.28049 -30.33851,0.78034 -8.40956,4.89154 3.92453,8.24349 7.26474,6.07932 5.05043,8.95417 18.23201,-0.1289 26.71223,3.08485 14.9943,2.83177 -11.66068,2.04445 -15.9248,4.01672 -16.7741,2.88566 -34.24823,0.46349 -50.82324,4.16278 1.99332,9.18584 -21.95443,10.93314 -5.03506,13.80032 6.05517,1.33989 -1.18157,5.80982 7.24375,7.36005 2.08508,2.11731 13.2977,4.05675 6.27078,6.22063 -13.41717,7.36863 11.32134,4.48147 16.73959,5.18593 6.73039,-0.22461 13.45676,-0.56866 20.17774,-0.98604 z m 115.59836,-14.53086 c -1.16321,-5.30336 3.46628,1.78346 0,0 z m 6.22955,-2.81732 c 6.14914,-1.00311 -1.85774,1.93437 0,0 z m -90.18579,-18.84728 c 1.48653,-5.0208 4.13477,4.46855 0,0 z m -30.81421,-9.15272 c 6.14828,-1.00297 -1.85742,1.93472 0,0 z m 146.1875,31.18311 c -0.4715,-4.4348 -23.58762,-0.80669 -9.31604,0.75904 2.97048,-0.47115 7.0336,2.02369 9.31604,-0.75904 z m -3,-8.94098 c -1.54693,-3.4314 -4.92918,2.08878 0,0 z m -3.5,-5.55902 c -1.086,-2.9241 -5.53404,3.6434 0,0 z m 7,-1 c -5.1625,-3.83576 -2.12195,3.50712 0,0 z m -21.63112,-10.34201 c 1.06381,-7.47052 -20.45684,1.90342 -5.80873,1.32215 1.92844,-0.19938 4.1797,-0.0836 5.80873,-1.32215 z m -7.72424,-5.40263 c 0.94271,-7.12836 -25.77592,4.32735 -10.18208,1.50015 3.38804,-0.37219 6.92653,-0.43052 10.18208,-1.50015 z m 23.84769,-2.60179 c 13.63893,-3.26722 -3.68526,-8.58637 -9.32163,-5.01542 -5.47115,-0.377 -17.38872,6.08578 -5.21999,6.26175 4.87074,0.1583 9.76662,-0.27896 14.54162,-1.24633 z m -28.53504,-2.58447 c -1.83599,-5.574 -14.44329,2.44515 -3.00963,0.85693 l 1.36783,-0.16923 1.6418,-0.68769 0,-1e-5 z m -133.45729,-4.5691 c 4.46316,-1.50899 24.10238,-0.96156 12.67879,-8.19731 -11.75662,-2.75391 -24.66277,1.40428 -34.80712,6.63171 6.51748,1.67409 15.38848,4.26872 22.12833,1.5656 z m 6.75295,-15.24385 c -7.87122,-4.91113 -20.1524,-4.87833 -29.59819,-6.93267 -6.91819,-0.73417 -16.02988,8.1501 -3.25322,6.59969 10.63547,-0.14866 21.76665,1.87973 32.04266,1.21107 l 0.80875,-0.87809 0,0 z m -67.11726,-16.74999 c 7.80865,-5.24877 19.66836,-10.06423 25.60703,0.91686 8.20523,1.58271 13.54094,-10.69276 22.90882,-4.05073 12.4855,7.02574 4.83905,-16.69298 -4.97715,-12.09584 -9.91427,-3.23877 -18.37963,7.97678 -27.82588,-1.44129 -11.12744,-6.84265 -13.33233,11.60666 -24.85107,10.0415 -13.10396,6.63352 3.57569,9.89927 9.13825,6.6295 z"
         id="path3133"
         inkscape:connector-curvature="0" />
      <path
         style="fill:#75c2e5"
         d="m 362.01741,238.37727 c 0.4074,-22.33008 -0.79562,-44.79589 1.03825,-67.04201 10.4292,3.47358 23.2076,3.82478 31.88901,-4.02413 8.14545,1.63193 15.34615,12.16556 23.49245,2.23858 5.13875,-3.92297 15.2663,1.38149 18.56608,-1.87214 2.71557,-11.75504 -9.03614,-14.81422 -18.3777,-14.49306 -9.91806,8.58542 -20.13646,-2.33772 -30.39243,-1.63924 -3.11848,11.57642 -17.90429,7.79326 -24.97779,15.71491 -2.41585,-7.10349 -0.82473,-15.81939 -1.25208,-23.64919 0,-4.55912 0,-9.11825 0,-13.67737 94.66667,0 189.33333,0 284,0 0,59 0,118 0,177 -94.66725,0 -189.33449,0 -284.00174,0 0.005,-22.8521 0.0105,-45.70433 0.0159,-68.55635 z m 105.71916,19.95407 c 11.86028,2.65451 15.1819,-5.9325 19.38398,-14.53534 8.91539,-8.90987 25.5703,-5.45751 30.07327,5.30299 9.45885,-0.77438 15.42139,12.96592 26.84192,8.47052 14.70023,-3.79268 30.20912,-2.35959 45.2677,-3.58514 6.26042,-2.35021 23.13136,3.58306 23.45132,-1.94317 -6.68021,-2.52344 -8.62731,-2.45632 -0.58286,-3.63988 11.03133,-2.18529 -9.02114,-11.46532 3.77056,-13.01375 7.73873,1.07262 8.45707,-8.03584 0.38089,-4.7141 -6.55,2.99406 -10.27439,-9.13446 -17.49607,-0.9788 -10.64121,5.81563 -15.36805,-10.61429 -26.30546,-6.34215 -6.37173,3.48031 -18.23805,9.79896 -22.76862,5.3606 5.70971,-4.8837 -16.39577,-4.7646 -18.20332,-2.00735 5.19682,5.87399 -16.14816,6.01902 -17.92478,3.23999 10.06038,-5.1545 2.77886,-16.87117 -5.85185,-7.90884 -9.37815,-3.18202 -15.02706,-17.8547 -28.07268,-14.14313 -10.85186,-2.43811 -20.76706,-9.28781 -30.34572,0.79717 -9.20225,6.3324 5.79757,6.1292 7.95305,8.29981 7.53325,5.53527 24.04695,-2.15086 30.06951,2.65771 -12.37779,0.45076 -24.82011,3.43465 -37.37421,3.75817 -11.11044,0.63266 -22.63047,-0.0462 -33.42584,2.62647 2.72283,10.92835 -27.95002,8.50637 -9.69462,14.2085 2.59929,5.01868 3.27872,12.57277 2.51745,17.10588 17.64443,1.19365 35.41649,2.94256 53.11298,1.26566 l 2.64353,-0.14339 2.57989,-0.13847 -2e-5,4e-5 z m 153.03746,-17.21022 c -2.95437,-4.4313 -3.45894,5.05624 0,0 z M 588.39832,217.9385 c -4.83533,-10.97091 17.2718,-1.37788 21.34229,-10.63763 -5.84126,-8.64778 -21.25154,-0.36761 -30.35753,1.45814 -4.258,1.4425 -22.79489,5.70709 -9.02559,5.06086 5.02551,-0.88119 8.68774,0.35371 6.78309,4.52264 3.56594,1.60525 7.86467,1.73057 11.25774,-0.40401 z m -12.93783,-10.93578 c -1.83599,-5.574 -14.44329,2.44515 -3.00963,0.85693 l 1.36783,-0.16923 1.6418,-0.68769 0,-1e-5 z M 444.5032,202.40478 c 4.58846,-0.51789 21.32467,-2.85686 9.94692,-8.00961 -11.65692,-3.42969 -24.26223,1.66212 -34.23444,6.23861 5.01634,5.1463 17.38866,2.91015 24.28752,1.771 z m 4,-15.47116 c -8.6469,-4.82235 -20.26127,-4.9418 -29.76356,-7.79346 -7.67511,-1.06674 -18.02257,12.01723 -3.86865,9.20667 11.11105,-0.31383 22.58657,1.09774 33.46979,-0.97978 l 0.16242,-0.43343 0,0 z"
         id="path3131"
         inkscape:connector-curvature="0" />
      <path
         style="fill:#6facd6"
         d="m 362.0032,260.01695 c 0.39667,-15.77959 -0.87683,-31.83278 1.25,-47.42105 -1.95935,-7.68695 -1.05321,-20.72273 -1.225,-30.51881 -0.45591,-6.96285 -0.72767,-14.22724 7.89701,-9.0563 12.32026,6.11524 22.45472,-10.471 32.90159,-2.92235 7.62077,11.39192 19.49021,-8.02735 30.48015,-1.23545 9.68823,3.32928 2.21947,-19.12413 -7.5071,-14.69994 -10.78803,-2.20639 -20.94138,6.92096 -31.02075,-2.26155 -9.73896,-4.73448 -8.68735,11.09079 -18.91564,9.02326 -6.7498,0.65534 -16.01868,12.43344 -13.81957,-1.34882 -0.0744,-9.88054 -0.0274,-19.76155 -0.0407,-29.64232 94.66667,0 189.33333,0 284,0 0,59 0,118 0,177 -94.66667,0 -189.33333,0 -284,0 0,-15.63889 0,-31.27778 0,-46.91667 z m 105.73337,-1.68561 c 11.86028,2.65451 15.1819,-5.9325 19.38398,-14.53534 8.91539,-8.90987 25.5703,-5.45751 30.07327,5.30299 9.45885,-0.77438 15.42139,12.96592 26.84192,8.47052 14.70023,-3.79268 30.20912,-2.35959 45.2677,-3.58514 6.26042,-2.35021 23.13136,3.58306 23.45132,-1.94317 -6.68021,-2.52344 -8.62731,-2.45632 -0.58286,-3.63988 11.03133,-2.18529 -9.02114,-11.46532 3.77056,-13.01375 9.1263,0.65719 7.00198,-9.01882 -1.38594,-4.26704 -6.05673,1.75061 -4.02041,-8.46253 -11.52687,-3.8926 -4.35266,-0.45254 -10.58571,4.35571 -13.75857,0.85242 -3.72057,-4.48261 -20.49878,-8.09343 -6.31521,-8.19463 5.3277,1.42461 7.25915,-3.68361 4.24958,-6.24249 6.71446,-2.98157 21.55132,0.53473 23.18526,-7.91899 -10.08585,-5.86709 -21.39364,0.23232 -31.2868,2.72195 -5.75584,3.248 -15.28552,1.19727 -19.76562,2.23474 1.24029,11.45643 15.9858,-0.32901 17.8571,5.08753 -9.95001,7.00608 -20.88272,1.22473 -31.73505,1.96392 -11.91275,1.20003 -23.96736,-0.68077 -35.74632,0.35208 -3.65925,0.62404 -13.21874,-3.27259 -10.21811,-5.95648 -8.88849,-7.63624 -22.1907,-2.15108 -31.24594,-8.72175 -6.28977,-7.952 -16.15108,4.97698 -23.1133,6.92962 -0.30422,6.87758 7.36533,7.03411 10.56066,5.01856 -7.70539,6.30739 -24.9569,0.31608 -30.53809,5.44695 9.06875,3.98737 -13.29283,1.16314 -16.76214,2.50643 -6.47786,-0.26384 -10.95621,2.09033 -5.06847,6.87124 -5.38548,3.79037 -10.00364,6.65277 -1.21046,10.20333 4.67177,4.61138 11.48769,11.06189 5.17075,17.17031 20.05713,2.04997 40.33405,2.37152 60.44765,0.77867 z m -7.73337,-38.39772 c 3.68219,-4.02435 3.83641,3.91193 0,0 z m 21,-1 c 5.65619,-3.6675 10.34218,2.77551 1.02812,0.70625 l -0.75195,-0.31797 -0.27617,-0.38828 z m 139.77083,22.1875 c -2.95437,-4.4313 -3.45894,5.05624 0,0 z m -63.77083,-31.6875 c -4.03878,-6.04498 -3.53498,5.84009 0,0 z m 15.93174,-0.8984 c 15.73639,-2.75589 -14.47821,-7.11338 -5.746,0.9122 1.92879,-0.054 3.79163,-0.87658 5.746,-0.9122 z M 439.0032,205.11624 c 4.22816,-5.51737 27.51123,-1.28819 17.11892,-10.88552 -11.40634,-4.85924 -23.33041,2.34969 -34.60895,4.25149 -7.13269,4.42654 0.0763,4.55231 4.43794,4.7419 4.30437,-0.78871 9.77617,3.46414 13.05209,1.89213 z m 128,-4.6236 c -1.54693,-3.4314 -4.92918,2.08878 0,0 z M 449.44743,189.02386 c -4.33197,-9.44394 -19.58531,-4.35826 -27.78193,-9.98896 -8.51409,-2.90052 -22.17269,12.19888 -6.41707,9.28132 11.31965,-1.161 23.28759,2.02956 34.199,0.70764 z"
         id="path3129"
         inkscape:connector-curvature="0" />
      <path
         style="fill:#31b1e7"
         d="m 362.0032,262.00101 c 0.31078,-14.78199 -0.70662,-29.67207 0.86025,-44.38007 3.35385,-2.64878 11.183,0.4228 3.13975,-4.68732 -5.08225,-1.18955 -4.07424,-5.77465 -4,-9.83913 0.28831,-10.69511 -0.79111,-21.6752 0.90518,-32.12984 8.20078,3.41317 19.29131,6.9736 27.35191,1.21652 6.81076,-7.8753 11.67598,6.34924 20.32599,3.0462 5.91675,4.95818 5.36292,-9.07992 13.92294,-5.5419 3.92078,-1.4118 12.42765,1.9622 14.06098,-1.29993 1.37882,-12.02696 -8.86045,-16.188 -18.91062,-16.13789 -10.4483,8.60106 -21.69145,-2.24237 -32.71838,-0.26486 -3.27384,10.44989 -17.47625,7.16117 -24.33236,14.95083 -1.04643,-12.2894 -0.44664,-24.66939 -0.60564,-37 94.66667,0 189.33333,0 284,0 0,36.07227 0,72.14455 0,108.21682 -10.59136,-0.22638 -18.2812,-7.56025 -27.81416,-9.34847 -9.90473,-5.24929 -21.83549,-0.40903 -31.51383,-5.61972 6.24284,-4.91347 16.90523,-0.77147 23.24313,-3.44121 -1.21276,-3.49218 -16.16943,-5.67737 -4.64105,-7.02487 12.14774,-4.16844 1.98994,-13.18145 -6.49677,-9.98801 -12.31817,6.22779 -27.80173,-3.06579 -37.92352,7.11317 -4.24136,-2.47576 -10.26173,-0.48452 -2.64358,1.76779 4.92606,9.09782 -14.68022,4.49975 -19.60137,6.28305 -11.6612,-0.76294 -24.96169,2.37975 -35.54591,-3.09187 -9.55364,-10.92158 -26.01966,-3.89708 -36.09776,-13.2126 -10.36127,-2.49205 -14.59894,-13.69513 -22.69654,-18.0111 -11.33496,0.54482 -22.51792,-9.07937 -33.17157,-2.62904 -7.14311,3.08623 -7.8488,14.46693 1.92015,8.39808 11.19824,-0.0596 22.74158,0.0386 33.68068,1.963 -8.66978,3.47552 -24.37633,1.88846 -29.60033,11.79294 8.59458,1.60391 19.18547,5.1966 27.99614,0.83638 5.26132,-3.96467 19.29353,-1.82524 6.21746,2.50821 -9.60115,1.42823 -3.71293,14.46643 -15.16659,11.56332 -11.63647,0.62066 -24.01996,2.36856 -34.92621,-0.45099 -0.80866,5.99192 -6.24791,-6.73791 -8.82346,1.63195 -4.29673,2.57899 -12.08467,3.85516 -3.57718,7.78138 0.36285,6.45718 -7.2523,-0.41755 -8.47444,7.25283 -4.39187,7.97424 11.73078,13.05123 9.32424,22.43574 11.49059,4.69753 25.24824,1.81824 37.59061,2.9911 17.78037,-0.44573 35.83889,0.26345 53.38725,-2.86848 2.5475,-11.22556 12.23086,-21.12277 24.67489,-17.47888 8.77806,-0.11924 8.00002,12.02489 16.71554,9.869 7.70469,9.7797 20.11459,9.85814 31.27092,6.50731 20.40992,-1.52867 40.92259,-0.62037 61.33195,-2.01559 11.02352,-0.15877 15.09889,-12.33052 26.16771,-8.56497 0.69207,-9.16127 7.06315,-5.28342 5.0025,2.28851 0.338,19.84614 0.13591,39.69694 0.1911,59.54524 -94.66667,0 -189.33333,0 -284,0 0,-14.97754 0,-29.95509 0,-44.93263 z m 205,-61.50837 c -1.54693,-3.4314 -4.92918,2.08878 0,0 z m -205,14.44098 c 2.69252,-4.02999 2.35666,3.89339 0,0 z"
         id="path3127"
         inkscape:connector-curvature="0" />
      <path
         style="fill:#4d93cf"
         d="m 362.0032,262.00101 c 0.31078,-14.78199 -0.70662,-29.67207 0.86025,-44.38007 3.35385,-2.64878 11.183,0.4228 3.13975,-4.68732 -5.08225,-1.18955 -4.07424,-5.77465 -4,-9.83913 0.28831,-10.69511 -0.79111,-21.6752 0.90518,-32.12984 8.20078,3.41317 19.29131,6.9736 27.35191,1.21652 6.81076,-7.8753 11.67598,6.34924 20.32599,3.0462 5.91675,4.95818 5.36292,-9.07992 13.92294,-5.5419 3.92078,-1.4118 12.42765,1.9622 14.06098,-1.29993 1.37882,-12.02696 -8.86045,-16.188 -18.91062,-16.13789 -10.4483,8.60106 -21.69145,-2.24237 -32.71838,-0.26486 -3.27384,10.44989 -17.47625,7.16117 -24.33236,14.95083 -1.04643,-12.2894 -0.44664,-24.66939 -0.60564,-37 94.66667,0 189.33333,0 284,0 0,36.07227 0,72.14455 0,108.21682 -10.59135,-0.22713 -18.28135,-7.55866 -27.81416,-9.34978 -4.67061,-3.48436 -19.64852,-2.26786 -19.8486,-4.01804 2.49735,-5.12767 5.36073,-3.66235 10.73491,-3.96485 3.35154,-4.92328 -16.78805,-6.29026 -3.80014,-8.10158 11.0145,-3.45507 3.86161,-13.1977 -5.19005,-10.38624 -5.79073,-2.10946 -18.49469,8.16298 -15.18696,0.61695 -8.57368,0.0377 -15.3538,1.37714 -19.58602,-5.4305 -11.20465,2.35284 7.40221,6.29628 -3.02686,8.68185 -9.5692,-2.89213 -15.35684,5.58167 -24.76242,0.44443 -19.20563,-1.43411 -38.87841,2.83686 -57.69057,-2.48959 -4.99253,-2.7815 1.76604,-10.31641 -7.60319,-6.58629 -11.89259,4.19597 -20.10357,-8.13529 -27.33027,-13.82624 -11.51922,0.46323 -22.95362,-9.21849 -33.7986,-2.79297 -6.24436,2.22026 -8.53622,14.46238 0.78601,8.41376 11.13217,0.16494 25.38353,-0.62358 34.55466,2.67304 -9.61115,1.79104 -21.88885,2.70084 -28.60322,9.37557 -3.81147,7.0673 12.75383,-0.38995 4.47886,6.10915 -6.27188,5.23806 -22.05513,2.98521 -21.31338,13.04795 -2.1448,-0.72147 -5.29432,-7.97661 -7.49773,-2.43099 -3.36234,3.76168 -14.22627,4.31997 -4.68454,8.83573 0.36285,6.45718 -7.2523,-0.41755 -8.47444,7.25283 -4.39187,7.97424 11.73078,13.05123 9.32424,22.43574 11.49059,4.69753 25.24824,1.81824 37.59061,2.9911 17.78037,-0.44573 35.83889,0.26345 53.38725,-2.86848 2.5475,-11.22556 12.23086,-21.12277 24.67489,-17.47888 8.77806,-0.11924 8.00002,12.02489 16.71554,9.869 7.70469,9.7797 20.11459,9.85814 31.27092,6.50731 20.40992,-1.52867 40.92259,-0.62037 61.33195,-2.01559 11.02352,-0.15877 15.09889,-12.33052 26.16771,-8.56497 0.69207,-9.16127 7.06315,-5.28342 5.0025,2.28851 0.338,19.84614 0.13591,39.69694 0.1911,59.54524 -94.66667,0 -189.33333,0 -284,0 0,-14.97753 0,-29.95511 0,-44.9326 z m 54,-55.68402 c -4.35206,-1.87682 -5.16414,2.94867 0,0 z m 47.77083,-18.19587 c -5.30631,-5.24516 -4.07851,5.6637 0,0 z m -101.77083,26.8125 c 2.69252,-4.02999 2.35666,3.89339 0,0 z m 66.5,-9 c -2.81964,-3.19367 10.39292,1.50277 2.06297,0.67464 l -2.06297,-0.67464 z m 11.5,-0.38342 c 7.16552,-3.37744 4.4307,1.72393 0,0 z m 139.8125,-0.29969 c 6.14828,-1.00297 -1.85742,1.93472 0,0 z m -124.3125,-2.31689 c 1.51654,-3.80867 3.05358,3.16631 0,0 z"
         id="path3125"
         inkscape:connector-curvature="0" />
      <path
         style="fill:#12aaea"
         d="m 362.0032,282.04061 c 1.80054,-9.23129 -5.63218,-28.41568 9.57574,-26.58602 8.0617,-2.02973 16.71911,-3.22164 20.87323,4.68607 12.86341,-0.43909 25.70744,0.38824 38.51693,0.90472 16.16774,-1.48464 32.44823,-1.98286 48.55397,-3.95586 4.49609,-8.38612 10.30393,-21.36928 23.21426,-18.06173 10.62087,-2.03734 10.0017,12.18936 19.30169,10.14533 7.69095,9.75278 20.07356,9.87595 31.21257,6.51285 21.0732,-1.84302 42.4646,-0.0731 63.39336,-2.61569 9.08695,-1.64539 21.15905,-7.02789 29.35825,-3.23367 0,19.03233 0,38.06467 0,57.09701 -94.66667,0 -189.33333,0 -284,0 0,-8.29767 0,-16.59534 0,-24.89301 z m 280.83416,-53.60617 c -10.15711,-1.70571 -22.62093,0.10901 -31.27065,-5.06716 4.95757,-4.68287 8.11467,-11.56694 0.70746,-13.00324 2.15435,-12.91331 -18.35927,-7.9915 -25.44151,-5.47898 -4.32492,-5.47172 -17.7402,2.60507 -19.27657,-6.62272 -8.59328,-3.10708 -5.09184,5.34388 -1.65393,5.69137 -5.7358,4.79017 -14.19724,-0.85825 -19.11464,4.93174 -13.76992,-4.64274 -28.71591,-1.5994 -42.9932,-2.03058 -7.64777,-1.11009 -26.40989,2.35914 -25.71743,-8.05895 -2.0712,-5.30032 -16.42347,4.76452 -20.18101,-4.72478 -8.39516,-3.28107 -9.51249,-14.65849 -21.16611,-12.37113 -5.3022,-0.88997 -19.90681,-2.50163 -18.55565,-8.34049 6.35429,-3.15722 13.90098,-1.91206 20.82908,-2.69843 0.93283,-7.77934 -1.16142,-17.64252 -10.73158,-18.29188 -12.57372,-0.99152 -24.16707,5.62896 -36.17031,-2.22388 -8.9986,-2.64844 -6.10456,12.67275 -15.6178,7.58389 -4.48368,1.90435 -12.23382,7.97314 -13.90261,7.95439 -0.96694,-11.88722 -0.44344,-23.83406 -0.5777,-35.75 94.66667,0 189.33333,0 284,0 -0.22909,32.05771 0.58852,64.1477 -0.68679,96.17888 0.0752,1.20871 -0.70209,3.21377 -2.47905,2.32195 z M 463.77403,188.12112 c -5.30631,-5.24516 -4.07851,5.6637 0,0 z m -101.77083,34.3125 c 0.0153,-8.26589 17.3328,-0.11827 3.99003,2.05505 -2.68896,1.64037 -4.71723,2.2781 -3.99003,-2.05505 z m 15.90726,-4.8042 c -5.65638,-7.11797 -19.95806,-3.85924 -15.88606,-16.70189 -0.0387,-8.66456 -0.0143,-17.32927 -0.0212,-25.99391 9.4935,-1.98912 13.82877,9.56748 23.48291,2.92154 6.12108,-1.83905 23.22796,-4.05544 23.38596,2.70265 -8.27395,5.13635 -4.64916,15.21091 5.11988,10.35291 5.59536,-0.63173 20.84336,-3.91959 20.14889,2.3956 -7.82679,3.5027 -17.06834,3.9458 -20.63764,12.6273 -5.10489,3.24206 17.73267,-2.24041 6.85312,2.33645 -10.40338,6.05356 -21.7599,6.15544 -32.92985,9.14544 -2.71241,0.8329 -7.77421,4.41051 -9.51601,0.21391 z m 3.09274,-7.6958 c -2.39488,-3.99516 -1.59482,3.71895 0,0 z m 14.65492,-22.54313 c -0.28888,-7.49177 -6.01974,5.61517 0,0 z M 373.5032,174.93362 c -3.48209,-2.38827 14.57017,1.80075 3.67734,0.7622 l -1.38359,-0.16937 -2.29375,-0.59286 0,3e-5 z m -11.5,-2.94098 c 0.78746,-6.03568 1.952,5.24693 0,0 z m 32,-2.09041 c 2.93571,-3.34286 4.63406,1.90173 0,0 z"
         id="path3123"
         inkscape:connector-curvature="0" />
      <path
         style="fill:#6493a3"
         d="m 362.0032,282.04061 c 1.80054,-9.23129 -5.63218,-28.41568 9.57574,-26.58602 8.0617,-2.02973 16.71911,-3.22164 20.87323,4.68607 12.86341,-0.43909 25.70744,0.38824 38.51693,0.90472 16.16774,-1.48464 32.44823,-1.98286 48.55397,-3.95586 4.49609,-8.38612 10.30393,-21.36928 23.21426,-18.06173 10.62087,-2.03734 10.0017,12.18936 19.30169,10.14533 7.69095,9.75278 20.07356,9.87595 31.21257,6.51285 21.0732,-1.84302 42.4646,-0.0731 63.39336,-2.61569 9.08695,-1.64539 21.15905,-7.02789 29.35825,-3.23367 0,19.03233 0,38.06467 0,57.09701 -94.66667,0 -189.33333,0 -284,0 0,-8.29767 0,-16.59534 0,-24.89301 z m 280.83416,-53.60617 c -10.15711,-1.70571 -22.62093,0.10901 -31.27065,-5.06716 4.95757,-4.68287 8.11467,-11.56694 0.70746,-13.00324 2.08721,-13.07442 -18.59668,-7.81428 -25.77097,-5.48462 1.61416,-0.91354 9.10563,-7.65716 -0.5721,-7.45817 -8.94158,-7.26303 -20.93506,-7.26994 -31.41694,-11.4819 -25.04231,-2.99673 -50.43398,-3.73054 -75.56358,-1.44479 -5.37987,-2.68871 -10.55869,0.23647 -13.11463,2.67177 -8.27478,-5.62553 -11.88551,14.46547 -15.27875,-0.66993 -8.78681,-7.93131 -26.14622,-2.58432 -33.25502,-12.16719 5.91605,-4.76301 14.50351,-2.63413 21.70102,-3.66815 0.93283,-7.77934 -1.16142,-17.64252 -10.73158,-18.29188 -12.57372,-0.99152 -24.16707,5.62896 -36.17031,-2.22388 -8.9986,-2.64844 -6.10456,12.67275 -15.6178,7.58388 -4.48368,1.90436 -12.23382,7.97315 -13.90261,7.9544 -0.96694,-11.88722 -0.44344,-23.83406 -0.5777,-35.75 94.66667,0 189.33333,0 284,0 -0.22909,32.05771 0.58852,64.1477 -0.68679,96.17888 0.0752,1.20873 -0.70212,3.21377 -2.47905,2.32198 z M 362.0032,222.43362 c 0.0153,-8.26589 17.3328,-0.11827 3.99003,2.05505 -2.68896,1.64037 -4.71723,2.2781 -3.99003,-2.05505 z m 15.90726,-4.8042 c -5.65638,-7.11797 -19.95806,-3.85924 -15.88606,-16.70189 -0.0387,-8.66456 -0.0143,-17.32927 -0.0212,-25.99391 9.4935,-1.98912 13.82877,9.56748 23.48291,2.92154 6.12108,-1.83905 23.22796,-4.05544 23.38596,2.70265 -8.27395,5.13635 -4.64916,15.21091 5.11988,10.35291 5.59536,-0.63173 20.84336,-3.91959 20.14889,2.3956 -7.82679,3.5027 -17.06834,3.9458 -20.63764,12.6273 -5.10489,3.24206 17.73267,-2.24041 6.85312,2.33645 -10.40338,6.05356 -21.7599,6.15544 -32.92985,9.14544 -2.71241,0.8329 -7.77421,4.41051 -9.51601,0.21391 z m 3.09274,-7.6958 c -2.39488,-3.99516 -1.59482,3.71895 0,0 z m 14.65492,-22.54313 c -0.28888,-7.49177 -6.01974,5.61517 0,0 z M 373.5032,174.93362 c -3.48209,-2.38827 14.57017,1.80075 3.67734,0.7622 l -1.38359,-0.16937 -2.29375,-0.59286 0,3e-5 z m -11.5,-2.94098 c 0.78746,-6.03568 1.952,5.24693 0,0 z m 32,-2.09041 c 2.93571,-3.34286 4.63406,1.90173 0,0 z"
         id="path3121"
         inkscape:connector-curvature="0" />
      <path
         style="fill:#2f8fd8"
         d="m 362.0032,282.43362 c 0,-8.16667 0,-16.33333 0,-24.5 8.72518,0.89674 19.0091,-3.90614 26.42867,0.20032 6.15958,6.15369 17.54727,-0.26812 27.10877,2.56488 22.06974,1.13827 44.27168,-0.0696 66.14001,-3.06586 2.19042,-6.4812 5.44773,-13.85072 11.14789,-17.69934 6.23529,0.63111 15.32495,-2.14718 18.92488,4.09222 1.00151,8.73777 15.29995,5.81449 20.65321,12.77337 12.15785,1.72809 24.3854,-1.86198 36.64146,-1.11945 16.86315,-0.77117 33.93577,0.77385 50.65011,-1.67807 8.24757,-2.36364 17.00706,-2.79939 25.72183,-3.06807 1.35635,2.8564 0.1977,8.2278 0.58317,12.05507 0,14.64831 0,29.29662 0,43.94493 -94.66667,0 -189.33333,0 -284,0 0,-8.16667 0,-16.33333 0,-24.5 z m 58.25,-20.23221 c -4.51357,-0.63656 -14.15601,0.47961 -4.25,0.3828 0.67023,-0.0305 6.99286,0.0779 4.25,-0.3828 z m -17,-0.93007 c -3.96764,-0.84658 -3.35327,1.57428 0,0 z m 239.58416,-32.8369 c -10.15711,-1.70571 -22.62093,0.10901 -31.27065,-5.06716 4.95757,-4.68287 8.11467,-11.56694 0.70746,-13.00324 2.08721,-13.07442 -18.59668,-7.81428 -25.77097,-5.48462 1.61416,-0.91354 9.10563,-7.65716 -0.5721,-7.45817 -8.94158,-7.26303 -20.93506,-7.26994 -31.41694,-11.4819 -25.04231,-2.99673 -50.43398,-3.73054 -75.56358,-1.44479 -5.37987,-2.68871 -10.55869,0.23647 -13.11463,2.67177 -8.27478,-5.62553 -11.88551,14.46547 -15.27875,-0.66993 -8.78681,-7.93131 -26.14622,-2.58432 -33.25502,-12.16719 5.91605,-4.76301 14.50351,-2.63413 21.70102,-3.66815 0.93283,-7.77934 -1.16142,-17.64252 -10.73158,-18.29188 -12.08314,-1.67108 -23.31148,6.31975 -34.78094,-1.91763 -8.88819,-2.24761 -9.91885,10.22032 -19.16692,8.62888 -4.83095,-0.75405 -13.8137,12.9867 -12.32056,4.12683 0,-11.09123 0,-22.18245 0,-33.27368 94.66667,0 189.33333,0 284,0 -0.22909,32.05771 0.58852,64.1477 -0.68679,96.17888 0.0752,1.20873 -0.70212,3.21377 -2.47905,2.32198 z M 362.0032,222.43362 c 0.0153,-8.26589 17.3328,-0.11827 3.99003,2.05505 -2.68896,1.64037 -4.71723,2.2781 -3.99003,-2.05505 z m 15.90726,-4.8042 c -5.65638,-7.11797 -19.95806,-3.85924 -15.88606,-16.70189 -0.0387,-8.66456 -0.0143,-17.32927 -0.0212,-25.99391 9.4935,-1.98912 13.82877,9.56748 23.48291,2.92154 6.12108,-1.83905 23.22796,-4.05544 23.38596,2.70265 -8.27395,5.13635 -4.64916,15.21091 5.11988,10.35291 5.59536,-0.63173 20.84336,-3.91959 20.14889,2.3956 -7.82679,3.5027 -17.06834,3.9458 -20.63764,12.6273 -5.10489,3.24206 17.73267,-2.24041 6.85312,2.33645 -10.40338,6.05356 -21.7599,6.15544 -32.92985,9.14544 -2.71241,0.8329 -7.77421,4.41051 -9.51601,0.21391 z m 3.09274,-7.6958 c -2.39488,-3.99516 -1.59482,3.71895 0,0 z m 14.65492,-22.54313 c -0.28888,-7.49177 -6.01974,5.61517 0,0 z"
         id="path3119"
         inkscape:connector-curvature="0" />
      <path
         style="fill:#108fe8"
         d="m 362.0032,282.43362 c 0,-8.16667 0,-16.33333 0,-24.5 8.72539,0.95938 19.1813,-4.07783 26.45871,0.34576 10.98846,6.54183 25.74609,3.55934 38.27207,3.99805 18.30759,-1.47765 36.74559,-2.13044 54.93116,-4.63488 2.21446,-6.47512 5.45417,-13.85949 11.1634,-17.70893 6.23529,0.63111 15.32495,-2.14718 18.92488,4.09222 1.00151,8.73777 15.29995,5.81449 20.65321,12.77337 12.15785,1.72809 24.3854,-1.86198 36.64146,-1.11945 16.86315,-0.77117 33.93577,0.77385 50.65011,-1.67807 8.24757,-2.36364 17.00706,-2.79939 25.72183,-3.06807 1.35635,2.8564 0.1977,8.2278 0.58317,12.05507 0,14.64831 0,29.29662 0,43.94493 -94.66667,0 -189.33333,0 -284,0 0,-8.16667 0,-16.33333 0,-24.5 z m 280.89287,-70.94046 c -10.90781,-0.83908 -20.72759,-4.68313 -30.57308,-9.09493 -9.86235,-2.15043 -19.08931,1.23216 -26.38295,-4.96254 -8.93857,-7.28538 -20.94115,-7.27874 -31.42588,-11.49633 -25.04231,-2.99673 -50.43398,-3.73054 -75.56358,-1.44479 -5.37987,-2.68871 -10.55869,0.23647 -13.11463,2.67177 -6.23384,-5.67658 -11.7735,11.30343 -13.97714,-1.14282 -8.78795,-7.64067 -21.40122,-3.68255 -31.11428,-9.4838 -0.37652,-9.55827 25.75165,2.25579 18.88214,-13.1865 -1.50552,-14.22987 -20.7964,-13.67508 -30.32754,-8.5466 -10.07074,-1.3945 -22.37706,-9.89877 -28.01832,2.99777 -7.09281,-1.78736 -15.75308,6.52552 -19.26786,8.95947 -0.003,-12.27675 -0.007,-24.55351 -0.01,-36.83027 94.66667,0 189.33333,0 284,0 -0.21969,26.76614 0.56453,53.56642 -0.66539,80.30469 0.24898,1.19632 -1.16465,2.86774 -2.44167,1.25488 z M 365.2532,210.21022 c -5.64933,0.77456 -2.40223,-6.31152 -3.25,-9.77949 0,-8.49904 0,-16.99807 0,-25.49711 6.16344,-1.24575 10.57952,1.80791 13.10633,5.63204 10.55173,-2.20414 23.7173,-6.45517 33.29943,-0.97017 -7.97685,4.68387 -9.00894,16.8439 2.99892,14.2297 5.55062,0.49239 19.13975,-6.9904 20.71586,-0.81435 -9.35713,2.4716 -17.29742,6.81789 -23.89817,13.44783 -10.54462,6.52059 -25.02036,-5.88674 -33.22237,2.58194 -1.26234,3.49435 -6.94491,0.99199 -9.75,1.16961 z m 32.75,-21.7766 c 1.38189,-11.51585 -15.81602,4.43758 -1.64333,1.01726 l 1.64333,-1.01726 z"
         id="path3117"
         inkscape:connector-curvature="0" />
      <path
         style="fill:#85a657"
         d="m 362.0032,282.43362 c 0,-8.16667 0,-16.33333 0,-24.5 8.72539,0.95938 19.1813,-4.07783 26.45871,0.34576 10.98846,6.54183 25.74609,3.55934 38.27207,3.99805 18.30759,-1.47765 36.74559,-2.13044 54.93116,-4.63488 2.21446,-6.47512 5.45417,-13.85949 11.1634,-17.70893 6.23529,0.63111 15.32495,-2.14718 18.92488,4.09222 1.00151,8.73777 15.29995,5.81449 20.65321,12.77337 12.15785,1.72809 24.3854,-1.86198 36.64146,-1.11945 16.86315,-0.77117 33.93577,0.77385 50.65011,-1.67807 8.24757,-2.36364 17.00706,-2.79939 25.72183,-3.06807 1.35635,2.8564 0.1977,8.2278 0.58317,12.05507 0,14.64831 0,29.29662 0,43.94493 -94.66667,0 -189.33333,0 -284,0 0,-8.16667 0,-16.33333 0,-24.5 z m 280.5,-70.99148 c -9.74171,-3.11339 -14.51445,-15.18566 -26.5,-15.33873 -14.0828,-9.90196 -31.932,-12.64565 -47.48744,-19.73695 -26.18623,-7.41478 -53.8778,-7.94724 -80.88746,-6.54424 -11.11662,0.44459 -21.84735,3.03426 -32.47179,6.10278 -11.80304,1.53133 -24.61267,8.08598 -35.09212,-0.32971 4.34527,-7.38476 26.68438,2.26229 19.30944,-13.84328 -3.60623,-13.97828 -21.87207,-10.56335 -31.77028,-6.933 -9.45862,-2.92428 -21.08452,-8.82015 -26.32274,2.98541 -7.09281,-1.78736 -15.75308,6.52552 -19.26786,8.95947 -0.003,-12.27675 -0.007,-24.55351 -0.01,-36.83027 94.66667,0 189.33333,0 284,0 -0.2358,26.3393 0.58225,52.71643 -0.61802,79.02541 -0.0531,1.56482 -0.94951,3.7157 -2.88191,2.48311 z m -277.25,-1.23192 c -5.64933,0.77456 -2.40223,-6.31152 -3.25,-9.77949 0,-8.49904 0,-16.99807 0,-25.49711 6.16344,-1.24575 10.57952,1.80791 13.10633,5.63204 10.55173,-2.20414 23.7173,-6.45517 33.29943,-0.97017 -5.85644,4.04724 -10.51757,14.90969 0.067,15.1472 -11.00576,0.89834 -18.50508,11.94167 -29.75406,11.35732 -4.9319,2.9076 -5.76999,6.7299 -13.4687,4.11021 z m 32.75,-21.7766 c 1.38189,-11.51585 -15.81602,4.43758 -1.64333,1.01726 l 1.64333,-1.01726 z"
         id="path3115"
         inkscape:connector-curvature="0" />
      <path
         style="fill:#0e6fe6"
         d="m 362.0032,282.42532 c 0,-8.1639 0,-16.3278 0,-24.4917 8.72539,0.95938 19.1813,-4.07783 26.45871,0.34576 11.21297,6.61064 26.23195,3.54705 38.9814,3.91853 18.06958,-1.72447 36.38606,-1.44035 54.28063,-4.5917 2.12297,-6.49807 5.42987,-13.82623 11.1046,-17.67259 6.21305,0.67041 15.61302,-2.27587 18.88668,4.25331 -0.0945,10.37612 15.18914,2.35012 17.7577,13.71824 10.26199,6.47089 19.81296,-3.25567 30.32575,-1.59639 19.46252,-1.08434 39.05666,0.14329 58.45002,-1.86554 8.47937,-2.90776 17.51763,-3.00885 26.50161,-3.50962 2.81152,1.40123 0.49954,7.92596 1.2529,11.38535 0,14.86786 0,29.73571 0,44.60357 -94.66667,-0.002 -189.33333,-0.004 -284,-0.006 0,-8.16342 0,-16.3294 0,-24.49122 z m 115.82365,-19.77921 c -2.23485,-4.94521 -18.92935,1.32566 -5.77329,1.26191 1.91272,-0.1952 4.14292,-0.0572 5.77329,-1.26191 z m 53.67635,-0.71249 c -0.26392,-3.66733 -3.00162,3.36878 0,0 z m 55,-2 c -1.51654,-3.80867 -3.05358,3.16631 0,0 z m 56,-48.49148 c -9.74171,-3.11339 -14.51445,-15.18566 -26.5,-15.33873 -14.0828,-9.90196 -31.932,-12.64565 -47.48744,-19.73695 -26.18623,-7.41478 -53.8778,-7.94724 -80.88746,-6.54424 -11.11662,0.44459 -21.84735,3.03426 -32.47179,6.10278 -11.80304,1.53133 -24.61267,8.08598 -35.09212,-0.32971 4.34527,-7.38476 26.68438,2.26229 19.30944,-13.84328 -3.60623,-13.97828 -21.87207,-10.56335 -31.77028,-6.933 -9.45862,-2.92428 -21.08452,-8.82015 -26.32274,2.98541 -7.09281,-1.78736 -15.75308,6.52552 -19.26786,8.95947 -0.003,-12.27675 -0.007,-24.55351 -0.01,-36.83027 94.66667,0 189.33333,0 284,0 -0.2358,26.3393 0.58225,52.71643 -0.61802,79.02541 -0.0531,1.56482 -0.94951,3.7157 -2.88191,2.48311 z m -277.25,-1.23192 c -5.64933,0.77456 -2.40223,-6.31152 -3.25,-9.77949 0,-8.49904 0,-16.99807 0,-25.49711 6.16344,-1.24575 10.57952,1.80791 13.10633,5.63204 10.55173,-2.20414 23.7173,-6.45517 33.29943,-0.97017 -5.85644,4.04724 -10.51757,14.90969 0.067,15.1472 -11.00576,0.89834 -18.50508,11.94167 -29.75406,11.35732 -4.9319,2.9076 -5.76999,6.7299 -13.4687,4.11021 z m 32.75,-21.7766 c 1.38189,-11.51585 -15.81602,4.43758 -1.64333,1.01726 l 1.64333,-1.01726 z"
         id="path3113"
         inkscape:connector-curvature="0" />
      <path
         style="fill:#6c8d5d"
         d="m 362.0032,282.42532 c 0,-8.1639 0,-16.3278 0,-24.4917 8.72539,0.95938 19.1813,-4.07783 26.45871,0.34576 11.21297,6.61064 26.23195,3.54705 38.9814,3.91853 18.06958,-1.72447 36.38606,-1.44035 54.28063,-4.5917 2.12297,-6.49807 5.42987,-13.82623 11.1046,-17.67259 6.21305,0.67041 15.61302,-2.27587 18.88668,4.25331 -0.0945,10.37612 15.18914,2.35012 17.7577,13.71824 10.26199,6.47089 19.81296,-3.25567 30.32575,-1.59639 19.46252,-1.08434 39.05666,0.14329 58.45002,-1.86554 8.47937,-2.90776 17.51763,-3.00885 26.50161,-3.50962 2.81152,1.40123 0.49954,7.92596 1.2529,11.38535 0,14.86786 0,29.73571 0,44.60357 -94.66667,-0.002 -189.33333,-0.004 -284,-0.006 0,-8.16342 0,-16.3294 0,-24.49122 z m 115.82365,-19.77921 c -2.23485,-4.94521 -18.92935,1.32566 -5.77329,1.26191 1.91272,-0.1952 4.14292,-0.0572 5.77329,-1.26191 z m 53.67635,-0.71249 c -0.26392,-3.66733 -3.00162,3.36878 0,0 z m 55,-2 c -1.51654,-3.80867 -3.05358,3.16631 0,0 z m 53.65735,-48.99501 c -10.45362,-2.00468 -0.89843,-12.44013 -10.89297,-14.93366 -1.23915,-11.07642 -10.24392,-17.80087 -20.97058,-20.28781 -10.64166,-2.01148 -19.12725,-10.39844 -30.62499,-10.98967 -14.09481,-1.90252 -27.67183,-6.55333 -41.71707,-8.68369 -11.75534,-0.32908 -23.35994,-2.77106 -35.12114,-0.3476 -17.59048,1.8224 -35.5253,2.01586 -52.71144,6.46817 -4.09881,1.43866 -10.6131,2.42319 -9.90184,-3.9199 -6.24498,-8.46225 -15.73292,-7.32924 -25.02291,-4.98666 -9.91494,6.20362 -25.2627,-12.2303 -30.68277,4.21431 -7.70162,-0.43591 -15.51786,4.0417 -20.50171,9.96163 -0.003,-12.5 -0.007,-25 -0.01,-37.5 94.66667,0 189.33333,0 284,0 -0.20089,26.68763 0.52367,53.40367 -0.64068,80.06771 0.37822,3.57055 -3.49631,0.83091 -5.2019,0.93717 z M 365.2532,210.21022 c -5.64933,0.77456 -2.40223,-6.31152 -3.25,-9.77949 0,-8.49904 0,-16.99807 0,-25.49711 6.16344,-1.24575 10.57952,1.80791 13.10633,5.63204 10.55173,-2.20414 23.7173,-6.45517 33.29943,-0.97017 -6.16538,6.5555 -6.425,13.90218 -16.30871,15.11469 -7.43158,1.11957 -15.28147,10.99258 -3.51021,4.62822 12.9633,-3.77008 -4.13142,9.7496 -9.89392,6.76262 -4.90417,2.94241 -5.76379,6.71084 -13.44292,4.1092 z m 32.75,-21.7766 c 1.38189,-11.51585 -15.81602,4.43758 -1.64333,1.01726 l 1.64333,-1.01726 z m 5,-6.5 c -3.68219,-4.02435 -3.83641,3.91193 0,0 z m 0,11.98608 c 0.006,-2.15555 10.83075,2.42607 1.76927,0.69911 l -1.76927,-0.69911 z m 23.55887,-15.51788 c -8.80478,-0.0437 -6.71575,-6.77365 0.99341,-6.14696 5.50423,-2.43702 14.91578,3.59852 4.4119,1.05735 -7.61701,-4.13828 -0.2832,10.66709 -5.40531,5.08961 z m 14.04113,-9.0682 c -1.04597,-7.02473 3.16778,4.44683 0,0 z"
         id="path3111"
         inkscape:connector-curvature="0" />
      <path
         style="fill:#0f6dda"
         d="m 362.0032,282.42532 c 0,-8.1639 0,-16.3278 0,-24.4917 8.04346,-0.24343 16.16878,-0.73025 24.0757,-1.62703 7.65714,8.69025 20.9067,4.85762 31.21571,6.019 16.34132,0.38043 32.84056,-1.30431 49.08388,0.58332 15.42351,6.64991 16.47046,-13.76137 24.88154,-20.66524 8.47336,-4.54442 20.41097,-1.28755 21.55432,7.5169 4.61551,6.13154 7.79343,-2.74374 11.72403,4.17305 6.3943,9.91592 19.1107,4.1742 27.76546,4.78744 13.3996,-2.05157 27.37224,-2.62006 40.72655,-2.52972 10.70643,-0.24417 20.77026,3.78288 29.71523,-2.74603 7.33637,-0.47153 16.96691,-4.18863 23.25758,-1.84194 0,18.43973 0,36.87946 0,55.31919 -94.66667,-0.002 -189.33333,-0.004 -284,-0.006 0,-8.16344 0,-16.32934 0,-24.49124 z m 143.45729,-1.4226 c -0.35791,-4.75601 -2.76994,2.96428 0,0 z m 26.04271,-19.0691 c -0.26392,-3.66733 -3.00162,3.36878 0,0 z m 55,-2 c -1.51654,-3.80867 -3.05358,3.16631 0,0 z m 53.65735,-48.99501 c -10.45362,-2.00468 -0.89843,-12.44013 -10.89297,-14.93366 -1.23915,-11.07642 -10.24392,-17.80087 -20.97058,-20.28781 -10.64166,-2.01148 -19.12725,-10.39844 -30.62499,-10.98967 -14.09481,-1.90252 -27.67183,-6.55333 -41.71707,-8.68369 -11.75534,-0.32908 -23.35994,-2.77106 -35.12114,-0.3476 -17.59048,1.8224 -35.5253,2.01586 -52.71144,6.46817 -4.09881,1.43866 -10.6131,2.42319 -9.90184,-3.9199 -6.24498,-8.46225 -15.73292,-7.32924 -25.02291,-4.98666 -9.91494,6.20362 -25.2627,-12.2303 -30.68277,4.21431 -7.70162,-0.43591 -15.51786,4.0417 -20.50171,9.96163 -0.003,-12.5 -0.007,-25 -0.01,-37.5 94.66667,0 189.33333,0 284,0 -0.20089,26.68763 0.52367,53.40367 -0.64068,80.06771 0.37822,3.57055 -3.49631,0.83091 -5.2019,0.93717 z M 365.2532,210.21022 c -5.64933,0.77456 -2.40223,-6.31152 -3.25,-9.77949 0,-8.49904 0,-16.99807 0,-25.49711 6.16344,-1.24575 10.57952,1.80791 13.10633,5.63204 10.55173,-2.20414 23.7173,-6.45517 33.29943,-0.97017 -6.16538,6.5555 -6.425,13.90218 -16.30871,15.11469 -7.43158,1.11957 -15.28147,10.99258 -3.51021,4.62822 12.9633,-3.77008 -4.13142,9.7496 -9.89392,6.76262 -4.90417,2.94241 -5.76379,6.71084 -13.44292,4.1092 z m 32.75,-21.7766 c 1.38189,-11.51585 -15.81602,4.43758 -1.64333,1.01726 l 1.64333,-1.01726 z m 5,-6.5 c -3.68219,-4.02435 -3.83641,3.91193 0,0 z m 0,11.98608 c 0.006,-2.15555 10.83075,2.42607 1.76927,0.69911 l -1.76927,-0.69911 z m 23.55887,-15.51788 c -8.80478,-0.0437 -6.71575,-6.77365 0.99341,-6.14696 5.50423,-2.43702 14.91578,3.59852 4.4119,1.05735 -7.61701,-4.13828 -0.2832,10.66709 -5.40531,5.08961 z m 14.04113,-9.0682 c -1.04597,-7.02473 3.16778,4.44683 0,0 z"
         id="path3109"
         inkscape:connector-curvature="0" />
      <path
         style="fill:#0c51e3"
         d="m 362.0032,282.42532 c 0,-8.1639 0,-16.3278 0,-24.4917 8.04813,-0.23731 16.18067,-0.74634 24.09001,-1.61685 7.23573,8.36351 19.70204,5.27568 29.64897,6.28464 16.85726,-0.4078 33.8931,-1.78405 50.65962,0.33081 15.42185,6.58709 16.44338,-13.78694 24.85823,-20.68855 8.47336,-4.54442 20.41097,-1.28755 21.55432,7.5169 4.61551,6.13154 7.79343,-2.74374 11.72403,4.17305 6.3943,9.91592 19.1107,4.1742 27.76546,4.78744 13.3996,-2.05157 27.37224,-2.62006 40.72655,-2.52972 10.70643,-0.24417 20.77026,3.78288 29.71523,-2.74603 7.33637,-0.47153 16.96691,-4.18863 23.25758,-1.84194 0,18.43973 0,36.87946 0,55.31919 -94.66667,-0.002 -189.33333,-0.004 -284,-0.006 0,-8.16344 0,-16.32934 0,-24.49124 z m 143.45729,-1.4226 c -0.35791,-4.75601 -2.76994,2.96428 0,0 z m 26.04271,-19.0691 c -0.26392,-3.66733 -3.00162,3.36878 0,0 z m 55,-2 c -1.51654,-3.80867 -3.05358,3.16631 0,0 z m -224.5,-74.80826 c -4.04653,-7.50004 7.334,-14.52811 9.71196,-6.6131 -3.68154,9.85314 8.68242,1.9531 13.78804,2.2803 -7.25688,3.95576 -13.45698,9.11808 -21.22286,12.26798 -3.5303,3.05775 -1.63935,-6.8346 -2.27714,-7.93518 z m 275.25771,-0.20007 c -8.74252,-7.66947 -21.37274,-4.62026 -30.83396,-10.73567 -10.92535,-2.09939 -19.53916,-8.97384 -30.94072,-10.03939 -16.61056,-1.67974 -32.2831,-9.02649 -49.15287,-8.50063 -15.34652,-2.85775 -30.89835,1.35153 -46.32737,1.80654 -11.41405,1.47621 -23.60307,1.37412 -34.23455,5.82037 -8.42768,-7.31138 -18.26879,-16.38342 -31.09703,-11.26008 -9.09395,8.59137 -25.7036,-11.13301 -31.11917,4.26406 -6.76478,-0.14103 -18.11454,6.15568 -20.97907,9.24927 -0.98933,-11.8317 -0.4235,-23.73212 -0.57297,-35.59609 94.69219,0 189.38438,0 284.07657,0 -0.33647,18.05204 0.49187,36.1759 -1.02801,54.16634 -1.09422,5.02148 -5.28977,3.91488 -7.79085,0.82528 z m 1.7389,-7.98534 c -0.77575,-5.94275 -16.95537,3.7001 -4.86318,2.1468 1.68095,-0.40165 3.72426,-0.68386 4.86318,-2.1468 z m -270.24675,-22.5898 c -4.98382,-1.25517 -0.38554,5.8879 0,0 z"
         id="path3107"
         inkscape:connector-curvature="0" />
      <path
         style="fill:#0d4cd8"
         d="m 362.0032,282.42532 c 0,-8.1639 0,-16.3278 0,-24.4917 8.04813,-0.23731 16.18067,-0.74634 24.09001,-1.61685 7.23573,8.36351 19.70204,5.27568 29.64897,6.28464 16.85726,-0.4078 33.8931,-1.78405 50.65962,0.33081 15.42185,6.58709 16.44338,-13.78694 24.85823,-20.68855 8.47336,-4.54442 20.41097,-1.28755 21.55432,7.5169 4.61551,6.13154 7.79343,-2.74374 11.72403,4.17305 6.3943,9.91592 19.1107,4.1742 27.76546,4.78744 13.3996,-2.05157 27.37224,-2.62006 40.72655,-2.52972 10.70643,-0.24417 20.77026,3.78288 29.71523,-2.74603 7.33637,-0.47153 16.96691,-4.18863 23.25758,-1.84194 0,18.43973 0,36.87946 0,55.31919 -94.66667,-0.002 -189.33333,-0.004 -284,-0.006 0,-8.16344 0,-16.32934 0,-24.49124 z m 143.45729,-1.4226 c -0.35791,-4.75601 -2.76994,2.96428 0,0 z m 26.04271,-19.0691 c -0.26392,-3.66733 -3.00162,3.36878 0,0 z m 55,-2 c -1.51654,-3.80867 -3.05358,3.16631 0,0 z m -224.5,-74.89159 c -4.03746,-7.49148 7.3923,-14.40208 9.71196,-6.52977 -3.68154,9.85314 8.68242,1.9531 13.78804,2.2803 -7.59544,4.50943 -15.18219,9.08824 -23.03042,13.14106 -0.53111,-2.93311 -0.41861,-5.92645 -0.46958,-8.89159 z m 281.54817,-1.95665 c -5.87152,-2.91624 -5.13396,-6.46887 -1.75608,-10.51337 -4.92205,5.94856 -11.35499,-0.67871 -14.49834,4.05217 -2.62621,-10.36649 -15.63101,-9.21536 -20.80628,-16.71889 -10.76204,0.23362 -22.62107,-2.26482 -31.93484,-8.28482 -10.26485,-4.12686 -21.09079,-3.70303 -30.04207,-7.09771 -28.13179,-0.32999 -56.56732,-0.77296 -84.40484,3.78024 -7.89293,3.04683 -19.63291,1.79067 -24.80164,3.16411 3.635,7.88561 -8.9168,-5.98709 -12.98326,-0.009 -5.45921,-3.82353 -14.10226,7.88496 -11.32086,-0.50869 -2.61755,-2.50225 -9.78819,0.35928 -4.26119,2.87798 -8.32025,-0.95319 -20.46866,-8.95461 -24.16673,3.50586 -7.44969,-3.75834 -18.73667,9.96026 -20.17373,6.84805 -0.67531,-11.40117 -0.3006,-22.83187 -0.39835,-34.2472 94.69035,0 189.3807,0 284.07105,0 -0.31712,17.98729 0.48024,36.03867 -1.03655,53.97101 0.18689,2.36009 -2.04741,-0.32143 -1.48629,-0.81925 z M 368.75306,154.35015 c -4.98382,-1.25517 -0.38554,5.8879 0,0 z m 65.25014,-5.35751 c -3.74455,-6.28582 -3.44296,3.71384 0,0 z m 8,-1.05902 c -1.49294,-3.1602 -2.25683,3.43448 0,0 z"
         id="path3105"
         inkscape:connector-curvature="0" />
      <path
         style="fill:#507357"
         d="m 362.0032,282.42532 c 0,-8.1639 0,-16.3278 0,-24.4917 8.04813,-0.23731 16.18067,-0.74634 24.09001,-1.61685 7.23573,8.36351 19.70204,5.27568 29.64897,6.28464 16.85726,-0.4078 33.8931,-1.78405 50.65962,0.33081 15.42185,6.58709 16.44338,-13.78694 24.85823,-20.68855 8.47336,-4.54442 20.41097,-1.28755 21.55432,7.5169 4.61551,6.13154 7.79343,-2.74374 11.72403,4.17305 6.3943,9.91592 19.1107,4.1742 27.76546,4.78744 13.3996,-2.05157 27.37224,-2.62006 40.72655,-2.52972 10.70643,-0.24417 20.77026,3.78288 29.71523,-2.74603 7.33637,-0.47153 16.96691,-4.18863 23.25758,-1.84194 0,18.43973 0,36.87946 0,55.31919 -94.66667,-0.002 -189.33333,-0.004 -284,-0.006 0,-8.16344 0,-16.32934 0,-24.49124 z m 143.45729,-1.4226 c -0.35791,-4.75601 -2.76994,2.96428 0,0 z m 26.04271,-19.0691 c -0.26392,-3.66733 -3.00162,3.36878 0,0 z m 55,-2 c -1.51654,-3.80867 -3.05358,3.16631 0,0 z m 48,-93.6187 c -13.73367,-6.12699 -27.53325,-12.46038 -42.58032,-14.48274 -19.26482,-7.75778 -40.08974,-11.20354 -60.84854,-11.15691 -30.74794,-0.47705 -61.73681,-0.57463 -92.10328,4.66694 -8.33171,2.12579 -15.81271,-0.28101 -24.96925,3.13376 -11.51735,1.71986 -24.44617,-1.58448 -34.06142,5.17551 -7.48236,1.61744 -17.11317,-3.31792 -17.35594,5.25089 -0.96542,-9.62049 -0.44936,-19.31329 -0.58125,-28.96875 94.68106,0 189.36213,0 284.04319,0 -0.18107,12.83333 -0.36213,25.66667 -0.54319,38.5 -3.81451,0.63877 -7.5001,-0.72513 -11,-2.1187 z M 373.60443,146.76983 c -0.87813,-10.66016 -18.21453,-0.43579 -4.39803,0.78246 1.35114,0.18604 3.46974,0.70084 4.39803,-0.78246 z"
         id="path3103"
         inkscape:connector-curvature="0" />
      <path
         style="fill:#5e911c"
         d="m 362.0032,282.30288 c 1.63336,-9.28356 -5.63085,-27.93629 9.98105,-23.47727 12.76663,-4.10123 19.75964,8.06209 32.67276,5.99673 12.35625,0.90013 24.70793,0.5437 36.87074,-1.74858 10.99722,-1.44659 22.02054,-0.90391 32.74416,0.75346 12.40831,-0.12509 8.66984,-17.95886 19.31151,-18.34778 -0.11474,-7.82137 20.2206,-5.34493 15.29656,3.84592 10.41433,1.9548 19.09783,10.4672 29.99872,10.70917 11.88123,-1.85519 23.93098,-2.47818 36.02872,-2.70556 13.79129,-0.61736 27.62501,-0.58847 41.38393,0.2811 8.97104,-4.73669 19.29762,-3.41305 29.11276,-5.6694 1.39194,2.64024 0.20416,8.20764 0.59909,11.97917 0,14.33425 0,28.66849 0,43.00274 -94.66667,-0.002 -189.33333,-0.004 -284,-0.006 0,-8.20427 0,-16.41089 0,-24.6137 z m 143.45729,-1.30016 c -0.35791,-4.75601 -2.76994,2.96428 0,0 z m 26.04271,-19.0691 c -0.26392,-3.66733 -3.00162,3.36878 0,0 z m 55,-2 c -1.51654,-3.80867 -3.05358,3.16631 0,0 z m -85.28333,-8.18333 c -5.33677,-2.05677 1.80062,6.67546 0,0 z M 634.5032,166.31492 c -13.73367,-6.12699 -27.53325,-12.46038 -42.58032,-14.48274 -19.26482,-7.75778 -40.08974,-11.20354 -60.84854,-11.15691 -30.74794,-0.47705 -61.73681,-0.57463 -92.10328,4.66694 -8.33171,2.12579 -15.81271,-0.28101 -24.96925,3.13376 -11.51735,1.71986 -24.44617,-1.58448 -34.06142,5.17551 -7.48236,1.61744 -17.11317,-3.31792 -17.35594,5.25089 -0.96542,-9.62049 -0.44936,-19.31329 -0.58125,-28.96875 94.68106,0 189.36213,0 284.04319,0 -0.18107,12.83333 -0.36213,25.66667 -0.54319,38.5 -3.81451,0.63877 -7.5001,-0.72513 -11,-2.1187 z M 373.60443,146.76983 c -0.87813,-10.66016 -18.21453,-0.43579 -4.39803,0.78246 1.35114,0.18604 3.46974,0.70084 4.39803,-0.78246 z"
         id="path3101"
         inkscape:connector-curvature="0" />
      <path
         style="fill:#0a32cf"
         d="m 362.0032,282.35261 c 1.64227,-9.29019 -5.64669,-27.98471 9.98105,-23.527 12.10145,-5.28521 18.81138,9.17657 29.9246,5.15578 12.19593,5.6851 26.29712,4.38908 39.48453,4.0349 11.90237,-1.35708 23.85994,-0.98734 35.68493,0.79483 6.94855,-4.52656 5.7154,-18.77255 14.12976,-23.37809 2.81474,-3.41802 12.28517,-6.95073 18.06021,-1.44178 -3.54653,11.54163 13.84937,6.04517 17.82681,13.29113 -1.18727,13.18059 17.08079,4.17189 25.21173,6.39312 20.31957,-0.51332 40.67191,-0.52617 60.97321,-1.19536 6.73594,-9.63272 18.70942,-8.15338 29.46642,-10.20285 5.65391,-2.19572 2.41163,5.70288 3.25675,8.96359 0,15.23091 0,30.46181 0,45.69272 -17.97217,-0.18503 -35.9801,0.50258 -53.92146,-0.65956 -5.07446,-0.59117 -14.31466,0.77393 -15.84385,-0.77489 -10.79088,3.20257 -16.92882,-1.35516 -26.87251,1.16519 -6.26268,-0.40041 -11.06441,-1.79585 -13.90206,-0.0456 -2.10474,-2.66392 -9.72669,2.65009 -7.95236,-4.52694 3.51087,-3.5998 5.78993,-6.79984 10.43354,-6.80983 -3.94894,-6.82203 14.15043,-3.09974 18.43995,-7.17967 9.30432,-2.18022 24.17607,-10.18824 29.0675,-12.83206 -20.3781,2.53832 -40.78228,5.06249 -61.19864,7.37986 -7.19655,2.29554 -17.04691,2.03992 -20.3168,-2.98129 -5.13433,9.0924 -18.6822,4.9872 -27.64264,6.25863 -9.38836,0.57561 -22.83885,1.5223 -29.39832,3.00621 -4.59087,2.42277 -19.02739,6.05951 -25.77691,8.57174 5.37408,1.70975 -5.86092,5.17092 -6.00423,8.63366 -17.6615,1.14144 -35.41037,0.55936 -53.11121,0.87748 0,-8.2213 0,-16.44259 0,-24.66389 z m 139.21667,-30.60232 c -5.33677,-2.05677 1.80062,6.67546 0,0 z m -83.61956,53.57579 c 3.11457,-3.06991 16.47598,-2.469 18.27588,0.9354 -4.54651,0.28752 -7.86741,-1.97985 -12.35973,0.35143 1.5831,-3.93569 -4.59395,2.42618 -5.91615,-1.28683 z m 10.21539,0.92443 c 6.14919,-1.00312 -1.85776,1.93436 0,0 z m 12.1875,-0.31689 c 1.96561,-3.56975 4.14356,3.81394 0,0 z m 7,0 c 7.06594,-3.1807 -1.18721,3.79283 0,0 z m 5.5,0 c 0.26392,-3.66733 3.00162,3.36878 0,0 z m 4,0 c 3.06645,-3.21518 0.31598,3.44574 0,0 z m 12,0 c 0.30797,-3.53542 4.42066,3.57239 0,0 z m 5.5,0 c -2.57941,-3.6436 5.49761,3.19613 0,0 z m 5,0 c 1.96561,-3.56975 4.14356,3.81394 0,0 z m 8,0 c 2.39488,-3.99516 1.59482,3.71895 0,0 z m 33,0.0936 c 4.23045,-2.16145 6.00949,3.36685 0,0 z m -36.1875,-0.77673 c 6.14916,-1.00312 -1.85775,1.93437 0,0 z m 29.1875,-0.78549 c 3.30272,-3.78825 3.53356,4.91643 0,0 z m -92.25,-39.23711 c 10.04966,-0.5826 1.7684,1.33181 0,0 z m 11.25,-0.67769 c 1.71325,-2.30211 7.99434,-0.008 2.5,0.38342 l -2.5,-0.38342 z m 7.8125,-1.29969 c 6.14919,-1.00312 -1.85776,1.93436 0,0 z m 140.1875,-3.81689 c 2.53031,-5.20727 2.03781,5.01988 0,0 z m -15.46877,-0.44947 c 2.7127,-5.1086 17.83326,0.72855 6.14688,0.98048 -1.99687,-0.13295 -4.41863,0.2805 -6.14688,-0.98048 z m -8.2622,-0.74352 c 6.50737,-0.73853 0.14775,1.54468 0,0 z m 78.23097,-91.92571 c -13.73367,-6.12699 -27.53325,-12.46038 -42.58032,-14.48274 -19.26482,-7.75778 -40.08974,-11.20354 -60.84854,-11.15691 -30.74794,-0.47705 -61.73681,-0.57463 -92.10328,4.66694 -8.33171,2.12579 -15.81271,-0.28101 -24.96925,3.13376 -11.51735,1.71986 -24.44617,-1.58448 -34.06142,5.17551 -7.48236,1.61744 -17.11317,-3.31792 -17.35594,5.25089 -0.96542,-9.62049 -0.44936,-19.31329 -0.58125,-28.96875 94.68106,0 189.36213,0 284.04319,0 -0.18107,12.83333 -0.36213,25.66667 -0.54319,38.5 -3.81451,0.63877 -7.5001,-0.72513 -11,-2.1187 z M 373.60443,146.76983 c -0.87813,-10.66016 -18.21453,-0.43579 -4.39803,0.78246 1.35114,0.18604 3.46974,0.70084 4.39803,-0.78246 z"
         id="path3099"
         inkscape:connector-curvature="0" />
      <path
         style="fill:#0924b7"
         d="m 362.0032,282.35261 c 1.64227,-9.29019 -5.64669,-27.98471 9.98105,-23.527 12.10145,-5.28521 18.81138,9.17657 29.9246,5.15578 12.19593,5.6851 26.29712,4.38908 39.48453,4.0349 11.90237,-1.35708 23.85994,-0.98734 35.68493,0.79483 6.94855,-4.52656 5.7154,-18.77255 14.12976,-23.37809 2.81474,-3.41802 12.28517,-6.95073 18.06021,-1.44178 -3.54653,11.54163 13.84937,6.04517 17.82681,13.29113 -1.18727,13.18059 17.08079,4.17189 25.21173,6.39312 20.31957,-0.51332 40.67191,-0.52617 60.97321,-1.19536 6.73594,-9.63272 18.70942,-8.15338 29.46642,-10.20285 5.65391,-2.19572 2.41163,5.70288 3.25675,8.96359 0,15.23091 0,30.46181 0,45.69272 -17.97217,-0.18503 -35.9801,0.50258 -53.92146,-0.65956 -5.07446,-0.59117 -14.31466,0.77393 -15.84385,-0.77489 -10.79088,3.20257 -16.92882,-1.35516 -26.87251,1.16519 -6.26268,-0.40041 -11.06441,-1.79585 -13.90206,-0.0456 -2.10474,-2.66392 -9.72669,2.65009 -7.95236,-4.52694 3.51087,-3.5998 5.78993,-6.79984 10.43354,-6.80983 -3.94894,-6.82203 14.15043,-3.09974 18.43995,-7.17967 9.30432,-2.18022 24.17607,-10.18824 29.0675,-12.83206 -20.3781,2.53832 -40.78228,5.06249 -61.19864,7.37986 -7.19655,2.29554 -17.04691,2.03992 -20.3168,-2.98129 -5.13433,9.0924 -18.6822,4.9872 -27.64264,6.25863 -9.38836,0.57561 -22.83885,1.5223 -29.39832,3.00621 -4.59087,2.42277 -19.02739,6.05951 -25.77691,8.57174 5.37408,1.70975 -5.86092,5.17092 -6.00423,8.63366 -17.6615,1.14144 -35.41037,0.55936 -53.11121,0.87748 0,-8.2213 0,-16.44259 0,-24.66389 z m 139.21667,-30.60232 c -5.33677,-2.05677 1.80062,6.67546 0,0 z m -83.61956,53.57579 c 3.11457,-3.06991 16.47598,-2.469 18.27588,0.9354 -4.54651,0.28752 -7.86741,-1.97985 -12.35973,0.35143 1.5831,-3.93569 -4.59395,2.42618 -5.91615,-1.28683 z m 10.21539,0.92443 c 6.14919,-1.00312 -1.85776,1.93436 0,0 z m 12.1875,-0.31689 c 1.96561,-3.56975 4.14356,3.81394 0,0 z m 7,0 c 7.06594,-3.1807 -1.18721,3.79283 0,0 z m 5.5,0 c 0.26392,-3.66733 3.00162,3.36878 0,0 z m 4,0 c 3.06645,-3.21518 0.31598,3.44574 0,0 z m 12,0 c 0.30797,-3.53542 4.42066,3.57239 0,0 z m 5.5,0 c -2.57941,-3.6436 5.49761,3.19613 0,0 z m 5,0 c 1.96561,-3.56975 4.14356,3.81394 0,0 z m 8,0 c 2.39488,-3.99516 1.59482,3.71895 0,0 z m 33,0.0936 c 4.23045,-2.16145 6.00949,3.36685 0,0 z m -36.1875,-0.77673 c 6.14916,-1.00312 -1.85775,1.93437 0,0 z m 29.1875,-0.78549 c 3.30272,-3.78825 3.53356,4.91643 0,0 z m -92.25,-39.23711 c 10.04966,-0.5826 1.7684,1.33181 0,0 z m 11.25,-0.67769 c 1.71325,-2.30211 7.99434,-0.008 2.5,0.38342 l -2.5,-0.38342 z m 7.8125,-1.29969 c 6.14919,-1.00312 -1.85776,1.93436 0,0 z m 140.1875,-3.81689 c 2.53031,-5.20727 2.03781,5.01988 0,0 z m -15.46877,-0.44947 c 2.7127,-5.1086 17.83326,0.72855 6.14688,0.98048 -1.99687,-0.13295 -4.41863,0.2805 -6.14688,-0.98048 z m -8.2622,-0.74352 c 6.50737,-0.73853 0.14775,1.54468 0,0 z M 367.54591,151.00272 c 1.12581,-5.84556 8.05452,3.55126 0,0 z m 265.45729,-5.0691 c -11.58476,-1.4865 -21.85024,-7.95969 -33.50614,-9.20742 -11.67148,-1.01647 -23.0614,-3.81305 -34.54054,-5.85295 -8.57974,-0.71165 15.09949,-0.48169 19.43943,-0.64575 20.53556,-0.13262 41.0715,-0.19571 61.60725,-0.29388 0,5.66667 0,11.33333 0,17 -4.32126,-0.14516 -8.85487,0.4419 -13,-1 z m -270.884,-7.75 c 0.39697,-3.6412 -2.14604,-10.18133 3.90236,-8.25 29.97976,0.27558 60.01908,-0.71548 89.95081,0.84644 -9.1659,3.00739 -21.76407,1.68976 -32.25726,3.22319 -11.92885,1.98427 -23.91657,3.71517 -35.84209,5.75471 -5.0936,2.48455 -12.17312,0.57159 -14.7092,3.55821 -5.7148,-8.31921 -12.96687,7.9686 -11.04462,-5.13255 z"
         id="path3097"
         inkscape:connector-curvature="0" />
      <path
         style="fill:#487019"
         d="m 362.0032,282.35261 c 1.64227,-9.29019 -5.64669,-27.98471 9.98105,-23.527 12.10145,-5.28521 18.81138,9.17657 29.9246,5.15578 12.19593,5.6851 26.29712,4.38908 39.48453,4.0349 11.90237,-1.35708 23.85994,-0.98734 35.68493,0.79483 6.94855,-4.52656 5.7154,-18.77255 14.12976,-23.37809 2.81474,-3.41802 12.28517,-6.95073 18.06021,-1.44178 -3.54653,11.54163 13.84937,6.04517 17.82681,13.29113 -1.18727,13.18059 17.08079,4.17189 25.21173,6.39312 20.31957,-0.51332 40.67191,-0.52617 60.97321,-1.19536 6.73594,-9.63272 18.70942,-8.15338 29.46642,-10.20285 5.65391,-2.19572 2.41163,5.70288 3.25675,8.96359 0,15.23091 0,30.46181 0,45.69272 -17.97217,-0.18503 -35.9801,0.50258 -53.92146,-0.65956 -5.07446,-0.59117 -14.31466,0.77393 -15.84385,-0.77489 -10.79088,3.20257 -16.92882,-1.35516 -26.87251,1.16519 -6.26268,-0.40041 -11.06441,-1.79585 -13.90206,-0.0456 -2.10474,-2.66392 -9.72669,2.65009 -7.95236,-4.52694 3.51087,-3.5998 5.78993,-6.79984 10.43354,-6.80983 -3.94894,-6.82203 14.15043,-3.09974 18.43995,-7.17967 9.30432,-2.18022 24.17607,-10.18824 29.0675,-12.83206 -20.3781,2.53832 -40.78228,5.06249 -61.19864,7.37986 -7.19655,2.29554 -17.04691,2.03992 -20.3168,-2.98129 -5.13433,9.0924 -18.6822,4.9872 -27.64264,6.25863 -9.38836,0.57561 -22.83885,1.5223 -29.39832,3.00621 -4.59087,2.42277 -19.02739,6.05951 -25.77691,8.57174 5.37408,1.70975 -5.86092,5.17092 -6.00423,8.63366 -17.6615,1.14144 -35.41037,0.55936 -53.11121,0.87748 0,-8.2213 0,-16.44259 0,-24.66389 z m 139.21667,-30.60232 c -5.33677,-2.05677 1.80062,6.67546 0,0 z m -83.61956,53.57579 c 3.11457,-3.06991 16.47598,-2.469 18.27588,0.9354 -4.54651,0.28752 -7.86741,-1.97985 -12.35973,0.35143 1.5831,-3.93569 -4.59395,2.42618 -5.91615,-1.28683 z m 10.21539,0.92443 c 6.14919,-1.00312 -1.85776,1.93436 0,0 z m 12.1875,-0.31689 c 1.96561,-3.56975 4.14356,3.81394 0,0 z m 7,0 c 7.06594,-3.1807 -1.18721,3.79283 0,0 z m 5.5,0 c 0.26392,-3.66733 3.00162,3.36878 0,0 z m 4,0 c 3.06645,-3.21518 0.31598,3.44574 0,0 z m 12,0 c 0.30797,-3.53542 4.42066,3.57239 0,0 z m 5.5,0 c -2.57941,-3.6436 5.49761,3.19613 0,0 z m 5,0 c 1.96561,-3.56975 4.14356,3.81394 0,0 z m 8,0 c 2.39488,-3.99516 1.59482,3.71895 0,0 z m 33,0.0936 c 4.23045,-2.16145 6.00949,3.36685 0,0 z m -36.1875,-0.77673 c 6.14916,-1.00312 -1.85775,1.93437 0,0 z m 29.1875,-0.78549 c 3.30272,-3.78825 3.53356,4.91643 0,0 z m -92.25,-39.23711 c 10.04966,-0.5826 1.7684,1.33181 0,0 z m 11.25,-0.67769 c 1.71325,-2.30211 7.99434,-0.008 2.5,0.38342 l -2.5,-0.38342 z m 7.8125,-1.29969 c 6.14919,-1.00312 -1.85776,1.93436 0,0 z m 140.1875,-3.81689 c 2.53031,-5.20727 2.03781,5.01988 0,0 z m -15.46877,-0.44947 c 2.7127,-5.1086 17.83326,0.72855 6.14688,0.98048 -1.99687,-0.13295 -4.41863,0.2805 -6.14688,-0.98048 z m -8.2622,-0.74352 c 6.50737,-0.73853 0.14775,1.54468 0,0 z"
         id="path3095"
         inkscape:connector-curvature="0" />
      <path
         style="fill:#386613"
         d="m 362.01851,282.30776 c 1.95093,-8.79957 -5.23991,-27.72817 8.83963,-21.84029 7.6804,-4.13772 14.9395,10.37224 22.82358,4.07434 2.54524,7.49163 9.77684,-0.66162 15.01974,3.98161 18.2635,1.7617 36.59524,-0.1458 54.85096,-0.26605 5.5351,1.39871 24.75117,7.58333 16.91702,-3.53516 3.43148,-7.53478 8.91491,-14.77292 16.35151,-14.83392 -1.65818,10.30143 12.83512,4.3229 4.68225,-1.03069 -0.22159,-1.66142 1.42424,-7.93373 -5.46925,-5.17057 -3.15375,-4.18104 11.63495,-0.52679 10.46816,5.42193 4.35087,4.12905 9.55827,3.91916 10.56219,10.55395 7.64048,1.95922 2.98792,5.61414 0.4001,7.97141 8.27085,2.07308 -2.49838,3.44341 -3.48421,-1.7007 -8.29186,12.14154 13.91512,5.69347 21.30028,7.10818 8.27327,-0.90357 27.54212,0.38667 30.13056,-3.01783 -14.14123,-2.30408 -28.47028,0.50474 -42.58854,-0.12095 5.92299,-7.35125 21.25702,-4.10956 30.79972,-5.68238 23.35596,-0.13749 46.86741,-0.99741 70.10209,1.70361 6.40866,4.55807 17.69357,-7.23106 22.27286,-0.61269 -0.0791,13.8143 -0.15809,27.62861 -0.23714,41.44291 -8.30336,-0.32088 -16.91882,0.99364 -24.96117,-1.11723 -6.28665,3.04859 -14.8019,-1.25406 -22.21317,1.06634 -5.2471,-1.36901 -8.13235,-0.71172 -11.03723,-0.76991 0.58168,-1.06018 -8.99635,3.32685 -6.84943,-2.8737 -5.91003,1.34218 -9.64781,-3.59631 -8.48996,3.21987 -5.77146,1.22915 -11.91218,2.06969 -8.55078,-5.479 -2.56408,-3.02844 -7.42812,-6.22669 0.94464,-4.8293 4.23936,-2.78664 10.16095,-2.90123 14.48616,2.85122 4.0175,4.826 13.96672,1.13087 4.00285,-0.8423 -3.25538,-3.55637 -13.12507,-6.12636 -5.08873,-7.47945 5.34523,-2.5478 8.8776,2.43629 9.46869,-4.29158 7.22824,4.17122 9.67787,-6.52102 15.929,-7.00798 -6.81309,-7.59542 9.85601,-1.07846 11.61588,-7.26779 5.8654,0.18233 13.36936,-6.84483 2.90208,-3.96292 -28.94329,3.70412 -57.48052,11.111 -86.77051,11.51578 -9.04054,2.08007 -22.22033,7.16947 -27.32639,-1.89033 -6.06095,10.54613 -21.51952,0.91236 -31.04951,5.93451 -11.41234,-1.6841 -22.64205,-0.019 -33.93878,0.97157 -7.44378,2.36499 -19.75548,1.40343 -24.58049,6.38601 -1.92404,5.31181 -16.03815,7.04666 -20.36998,14.21408 -3.04157,2.50882 -7.9875,0.68476 -11.79634,1.44785 -6.69455,0.21057 -13.3891,0.42112 -20.08365,0.63168 0.005,-8.29137 0.0102,-16.58277 0.0153,-24.87413 z m 237.98469,3.62586 c -1.96561,-3.56975 -4.14356,3.81394 0,0 z m -101,-15 c -2.69252,-4.02999 -2.35666,3.89339 0,0 z m 13,-8.94098 c -3.30871,-6.01311 -5.62254,3.86982 0,0 z m -4.60699,-3.64081 c 0.86119,-7.67962 -5.07502,5.06452 0,0 z m -11.12858,-0.016 c 0.9536,-6.25324 -8.88228,-1.76957 -0.6534,0.45799 l 0.6534,-0.45797 0,-2e-5 z m 32.73557,47.59779 c -2.57941,-3.6436 5.49761,3.19613 0,0 z m 15.5,0 c 3.06645,-3.21518 0.31598,3.44574 0,0 z m 2.5,0.125 c 7.6242,-3.93716 3.85236,3.53916 0,0 z m 6,-0.125 c 2.39488,-3.99516 1.59482,3.71895 0,0 z m 2,-8.94098 c 2.13639,-6.40933 1.92166,5.18931 0,0 z m -32.44297,-36.99601 c -2.8869,-13.2328 8.43321,6.97909 0,0 z m 96.44297,-0.0501 c 4.70108,-9.48384 17.27472,-3.28733 25.97946,-7.7175 5.49649,12.33905 -13.94373,8.18502 -21.14945,9.56087 -1.33387,-0.24644 -5.24019,0.86082 -4.83001,-1.84337 z M 490.16109,246.93362 c 1.02557,-6.06157 0.44569,5.68457 0,0 z"
         id="path3093"
         inkscape:connector-curvature="0" />
      <path
         style="fill:#2d5311"
         d="m 362.0032,289.43362 c 0.46367,-9.77177 -3.08173,-23.93174 11.29794,-19.52167 15.61879,-2.52624 -12.07148,0.4851 -10.04794,-2.96302 -5.98287,-12.00254 14.89324,-4.65802 20.30602,-2.00984 6.233,9.07934 20.13711,3.31046 29.58316,5.61207 11.34358,0.75883 22.81585,2.39802 33.74483,-1.30937 11.60648,-2.1152 22.51623,3.22641 34.0829,2.61551 8.47832,1.00515 6.58968,-3.83239 0.45417,-5.6336 0.18744,-7.37603 8.87545,-15.65467 13.56942,-6.38833 6.70877,-8.1899 13.56756,3.16269 16.71267,8.78921 -11.35058,9.98239 20.44389,3.959 10.29683,10.40021 -3.95652,7.00338 -15.16785,3.92708 -18.05847,-1.23333 -6.1146,8.79333 -20.30677,2.58642 -29.17282,1.1384 -4.04134,-0.74241 -22.66966,-7.06637 -18.8493,-2.2493 6.21289,3.70925 -0.21534,2.90719 -4.05617,3.0285 -9.94553,0.42681 -19.91851,1.43367 -29.53498,3.07625 -10.26392,0.96628 -19.58151,3.95497 -27.22424,10.72763 -9.36814,5.10073 -19.81126,8.78152 -28.88507,13.18223 -6.56851,2.57345 -3.5752,-5.37579 -4.21895,-9.13772 0,-2.70794 0,-5.41589 0,-8.12383 z m 91,-14.88337 c -5.70304,-3.34212 -3.46661,1.65554 0,0 z m 47.60949,-5.70888 c -2.2673,-12.68768 -8.91084,9.73837 -0.22122,2.79145 l 0.1246,-1.20584 0.0966,-1.58561 0,0 z M 373.8157,306.25051 c 6.14919,-1.00312 -1.85776,1.93436 0,0 z m 191.1875,-0.1026 c 4.4365,-3.19259 5.55706,3.06088 0,0 z m 16.70437,0.11638 c -0.39877,-6.65732 4.9542,-1.26105 0,0 z m 13.76338,-0.38285 c 8.34198,1.26755 -5.86937,-18.73452 3.38241,-9.94782 1.73497,4.09467 13.79451,9.03721 7.25139,0.3526 -8.29789,-2.85823 -0.0374,-11.03523 4.35971,-3.80559 5.85493,4.12128 6.89064,-1.55637 7.21305,-3.39765 8.23661,-0.64341 25.39346,-3.51748 10.75071,-11.64697 -8.93427,-2.22781 7.8591,-6.41446 11.78283,-6.3259 9.82207,-3.47745 2.50447,5.76067 5.54716,10.49028 -2.33695,7.58223 1.39178,13.65286 -0.41149,23.87415 -5.15679,0.72797 -14.76851,3.1638 -19.39175,-2.39103 -3.76962,7.20741 -4.34434,-0.0277 -8.23894,0.73725 3.56234,5.00943 -4.99777,0.41917 -5.19111,2.51524 -9.27884,-0.71419 -6.97778,-0.0452 -17.05394,-0.45456 l -3e-5,0 z m 26.03225,-8.94782 c -0.26392,-3.66733 -3.00162,3.36878 0,0 z m 0.52919,-5.46482 c -6.3668,-3.67785 3.07121,5.47703 0,0 z m 16.97081,-7.53518 c -2.69252,-4.02999 -2.35666,3.89339 0,0 z m -47.5,19 c 3.06645,-3.21518 0.31598,3.44574 0,0 z m -3.97861,-8.02363 c 8.06187,-3.98661 -3.09661,6.68741 0,0 z m 39.1089,-11.22637 c -3.17298,-9.10445 5.77492,3.79948 0.64356,1.47061 l -0.64356,-1.47061 0,0 z m -5.93644,-1.38948 c 0.13445,-6.81754 6.22289,2.02029 0,0 z m -89.69385,-5.27785 c 4.70421,-1.56168 18.24583,-2.53238 21.78778,-0.52958 -7.12985,1.0872 -14.66621,2.10484 -21.78778,0.52958 z m 28.5,-2.08267 c 3.06645,-3.21518 0.31598,3.44574 0,0 z m 5,-0.82659 c 5.0228,-2.19034 20.63435,-1.9148 6.48294,0.13603 -0.68087,-0.17288 -7.51269,1.25232 -6.48294,-0.13603 z m 14,-4.18335 c -14.91414,-1.86918 -30.17824,-0.70393 -44.95608,-3.26281 15.11938,-3.02615 31.39396,-2.43927 46.98363,-2.35063 9.58144,1.04892 28.51608,-0.53759 32.40666,3.48426 -11.20926,2.45435 -23.00194,3.03969 -34.43421,2.12918 z m 66,-2.99006 c 0.26392,-3.66733 3.00162,3.36878 0,0 z m -131.24675,-2.14675 c -3.4102,-8.29326 15.1233,-0.0711 3.06794,0.53768 l -1.86377,-0.044 -1.20417,-0.49364 z m 106.99675,-3.58343 c -3.74896,-7.25815 10.11066,-7.14985 12.49571,-3.85568 1.42693,-7.06478 17.6171,-5.55818 12.6933,2.38898 -8.62267,0.53461 -16.66885,0.37318 -25.18901,1.46675 l 0,-5e-5 z m -128.0323,-8.42432 c 5.34894,-5.87143 3.2416,3.80114 0,0 z"
         id="path3091"
         inkscape:connector-curvature="0" />
      <path
         style="fill:#1c3412"
         d="m 621.5032,305.93362 c 0.26392,-3.66733 3.00162,3.36878 0,0 z m 14.0374,0.0605 c 3.36177,-3.53 3.81853,3.3421 0,0 z m 7.88114,-0.62191 c 6.48945,-4.43765 -1.73758,5.07511 0,2e-5 l 0,-2e-5 z m 0.58146,-4.93859 c 2.93577,-7.92614 1.63779,7.60451 0,0 z m 0.0306,-5 c 1.68803,-6.55957 3.35689,-1.67343 0,0 z m -280.7806,-6.22691 c -0.51369,-3.06915 -4.02316,-13.86465 1.42872,-13.24133 6.24255,-0.56455 26.94237,0.76671 13.8894,6.96824 -5.65872,0.58773 -9.43472,6.81226 -15.31812,6.27309 z m 124.25,-8.39557 c -7.30493,1.85174 -17.46678,-10.27377 -4.60699,-7.87752 10.03189,3.02677 6.67201,-7.17782 7.93086,-10.58919 10.72182,-4.72682 -4.91447,15.90464 8.90383,12.55553 5.51774,1.17976 1.8492,-15.09865 8.96159,-8.26009 -7.76335,10.38055 7.6643,9.32103 10.51942,14.03448 -6.67251,3.25948 -12.02299,-1.24385 -15.76264,-4.1453 -1.97019,7.98315 -10.15532,4.7885 -15.94607,4.28209 z m -101.5,-0.81697 c 3.64611,-1.863 24.00297,-2.49806 9.96092,0.10012 -3.18766,0.15512 -6.98872,1.21016 -9.96092,-0.10012 z m 185.5,-12.11199 c -4.98838,-0.68391 -22.31366,-0.22059 -20.04877,-1.62851 15.71379,-2.17135 31.80776,-0.70258 47.63225,-0.13212 13.55869,2.44467 -9.3256,3.14548 -13.22264,2.37244 -4.78891,-0.15402 -9.57554,-0.372 -14.36084,-0.61181 z m -209.5,-4.38819 c -0.41397,-9.22244 14.29331,6.16028 1.5798,3.36141 -1.91607,0.30371 -1.53314,-2.43382 -1.5798,-3.36141 z m 10.25,2.69354 c -3.79307,-5.09949 10.12276,1.01661 0,-10e-6 l 0,10e-6 z m 109.76531,-0.93436 c 3.13418,-8.73205 8.41351,3.0327 0,0 z m 17.62417,-5.0134 c -2.54053,-5.3841 6.66908,0.0207 0,0 z m 121.61052,-1.55615 c 4.90704,-4.0147 9.62138,3.0481 0.46116,0.93111 l -0.44624,-0.39142 -0.0149,-0.53969 z m 13.85428,0.34042 c -3.11556,-6.60254 10.47633,-1.84859 10.19443,-3.48717 3.3084,6.74014 -6.52392,2.0853 -10.19443,3.48717 z m -147.10428,-1.0314 c 1.82807,-5.18835 4.2908,3.95296 0,0 z"
         id="path3089"
         inkscape:connector-curvature="0" />
    </g>
    <rect
       style="fill:none;stroke:#000000;stroke-width:1.31475675;stroke-linecap:square;stroke-linejoin:bevel;stroke-miterlimit:4;stroke-opacity:1;stroke-dasharray:none;stroke-dashoffset:0"
       id="rect3183"
       width="51.144409"
       height="31.594049"
       x="810.34052"
       y="207.79811"
       rx="0"
       ry="0" />
  </g>
</svg>
