<?xml version="1.0" encoding="UTF-8" standalone="no"?>
<!-- Created with Inkscape (http://www.inkscape.org/) -->

<svg
   xmlns:dc="http://purl.org/dc/elements/1.1/"
   xmlns:cc="http://creativecommons.org/ns#"
   xmlns:rdf="http://www.w3.org/1999/02/22-rdf-syntax-ns#"
   xmlns:svg="http://www.w3.org/2000/svg"
   xmlns="http://www.w3.org/2000/svg"
   xmlns:sodipodi="http://sodipodi.sourceforge.net/DTD/sodipodi-0.dtd"
   xmlns:inkscape="http://www.inkscape.org/namespaces/inkscape"
   version="1.1"
   width="303.00037"
   height="218.12939"
   id="svg2"
   inkscape:version="0.48.4 r9939"
   sodipodi:docname="script_closed.svg">
  <sodipodi:namedview
     pagecolor="#ffffff"
     bordercolor="#666666"
     borderopacity="1"
     objecttolerance="10"
     gridtolerance="10"
     guidetolerance="10"
     inkscape:pageopacity="0"
     inkscape:pageshadow="2"
     inkscape:window-width="1600"
     inkscape:window-height="824"
     id="namedview9"
     showgrid="false"
     fit-margin-top="0"
     fit-margin-left="0"
     fit-margin-right="0"
     fit-margin-bottom="0"
     inkscape:zoom="0.66966668"
     inkscape:cx="-169.00532"
     inkscape:cy="44.3905"
     inkscape:window-x="0"
     inkscape:window-y="24"
     inkscape:window-maximized="1"
     inkscape:current-layer="svg2" />
  <defs
     id="defs4" />
  <metadata
     id="metadata7">
    <rdf:RDF>
      <cc:Work
         rdf:about="">
        <dc:format>image/svg+xml</dc:format>
        <dc:type
           rdf:resource="http://purl.org/dc/dcmitype/StillImage" />
        <dc:title />
      </cc:Work>
    </rdf:RDF>
  </metadata>
  <path
     inkscape:transform-center-y="0.74152002"
     inkscape:transform-center-x="-0.74156869"
     d="M 687.02321,722.05925 458.48687,684.71977 340.19023,883.79012 189.12259,708.28609 -29.457847,784.74322 -32.37056,553.19493 -248.95858,471.26369 -102.35347,292.01515 -215.60514,90.032078 11.919628,46.955677 54.996034,-180.5691 256.97909,-67.317432 436.22764,-213.92254 518.15888,2.6654751 749.70718,5.5781907 673.25005,224.15862 848.75408,375.22627 649.68373,493.5229 z"
     inkscape:randomized="0"
     inkscape:rounded="0"
     inkscape:flatsided="false"
     sodipodi:arg2="1.134464"
     sodipodi:arg1="0.78539816"
     sodipodi:r2="395.28842"
     sodipodi:r1="559.45221"
     sodipodi:cy="326.4668"
     sodipodi:cx="291.43076"
     sodipodi:sides="9"
     id="path3771"
     style="fill:#9bc5d7;fill-opacity:0.10980392;stroke:none"
     sodipodi:type="star"
     transform="matrix(0.08758124,0,0,0.08758124,21.804101,18.735601)" />
  <rect
     ry="8.5926762"
     rx="8.5926762"
     y="26.384895"
     x="29.860054"
     height="191.74451"
     width="273.14032"
     id="rect4033"
     style="fill:#cccccc;stroke:none" />
  <rect
     style="fill:#ffffff;stroke:#000000;stroke-width:2.19495559;stroke-linecap:square;stroke-linejoin:bevel;stroke-miterlimit:4;stroke-opacity:1;stroke-dasharray:none;stroke-dashoffset:0"
     id="rect2986"
     width="273.14032"
     height="191.74451"
     x="25.134346"
     y="22.334236"
     rx="6.2058225"
     ry="6.2058225" />
  <g
     id="g2991"
     transform="matrix(0.11214751,0,0,0.11214751,23.844301,20.928801)">
    <path
       style="fill:#cccccc;stroke:none"
       d="M 27.091292,720.13581 744.31603,27.317115 l -711.463896,0 z"
       id="path4045"
       inkscape:connector-curvature="0" />
    <path
       sodipodi:nodetypes="cccccc"
       inkscape:connector-curvature="0"
       id="path4035"
       d="M 5.9731208,725.44758 749.62666,14.646212 57.01598,9.5588377 32.008505,27.317115 14.097097,67.255078 z"
       style="fill:#000000;stroke:none" />
  </g>
  <path
     sodipodi:type="star"
     style="fill:#73d6ff;fill-opacity:1;stroke:#000000;stroke-width:16.10000038;stroke-linecap:square;stroke-linejoin:bevel;stroke-miterlimit:4;stroke-opacity:1;stroke-dasharray:none;stroke-dashoffset:0"
     id="path2995"
     sodipodi:sides="9"
     sodipodi:cx="291.43076"
     sodipodi:cy="326.4668"
     sodipodi:r1="559.45221"
     sodipodi:r2="395.28842"
     sodipodi:arg1="0.78539816"
     sodipodi:arg2="1.134464"
     inkscape:flatsided="false"
     inkscape:rounded="0"
     inkscape:randomized="0"
     d="M 687.02321,722.05925 458.48687,684.71977 340.19023,883.79012 189.12259,708.28609 -29.457847,784.74322 -32.37056,553.19493 -248.95858,471.26369 -102.35347,292.01515 -215.60514,90.032078 11.919628,46.955677 54.996034,-180.5691 256.97909,-67.317432 436.22764,-213.92254 518.15888,2.6654751 749.70718,5.5781907 673.25005,224.15862 848.75408,375.22627 649.68373,493.5229 z"
     inkscape:transform-center-x="-0.676638"
     inkscape:transform-center-y="0.67666506"
     transform="matrix(0.07991986,0,0,0.07991986,24.036801,21.236801)" />
  <path
     inkscape:transform-center-y="0.51492717"
     inkscape:transform-center-x="-0.51487769"
     d="M 687.02321,722.05925 458.48687,684.71977 340.19023,883.79012 189.12259,708.28609 -29.457847,784.74322 -32.37056,553.19493 -248.95858,471.26369 -102.35347,292.01515 -215.60514,90.032078 11.919628,46.955677 54.996034,-180.5691 256.97909,-67.317432 436.22764,-213.92254 518.15888,2.6654751 749.70718,5.5781907 673.25005,224.15862 848.75408,375.22627 649.68373,493.5229 z"
     inkscape:randomized="0"
     inkscape:rounded="0"
     inkscape:flatsided="false"
     sodipodi:arg2="1.134464"
     sodipodi:arg1="0.78539816"
     sodipodi:r2="395.28842"
     sodipodi:r1="559.45221"
     sodipodi:cy="326.4668"
     sodipodi:cx="291.43076"
     sodipodi:sides="9"
     id="path3001"
     style="fill:#f9f9f9;fill-opacity:1;stroke:#000000;stroke-width:16.10000038;stroke-linecap:square;stroke-linejoin:bevel;stroke-miterlimit:4;stroke-opacity:1;stroke-dasharray:none;stroke-dashoffset:0"
     sodipodi:type="star"
     transform="matrix(0.06081448,0,0,0.06081448,29.604701,27.474101)" />
  <g
     id="g3779"
     style="stroke:#000000"
     transform="matrix(0.07889956,-0.01272961,0.01272961,0.07889956,20.365801,25.223301)">
    <path
       transform="matrix(1.1185188,-0.58390195,0.58390195,1.1185188,-221.35576,78.420504)"
       d="m 465.90344,350.63425 c 0,41.23579 -86.57908,74.66401 -193.37979,74.66401 -106.80071,0 -193.37979,-33.42822 -193.37979,-74.66401 0,-41.2358 86.57908,-74.66401 193.37979,-74.66401 106.80071,0 193.37979,33.42821 193.37979,74.66401 z"
       sodipodi:ry="74.664009"
       sodipodi:rx="193.37979"
       sodipodi:cy="350.63425"
       sodipodi:cx="272.52365"
       id="path3773"
       style="fill:none;stroke:#000000;stroke-width:21;stroke-miterlimit:4;stroke-dasharray:none"
       sodipodi:type="arc" />
    <path
       sodipodi:nodetypes="ccc"
       inkscape:connector-curvature="0"
       id="path3777"
       d="m 244.09826,285.8202 c 1.49328,-5.97313 32.15858,-75.5543 32.15858,-75.5543 l -86.61025,-14.93281"
       style="fill:none;stroke:#000000;stroke-width:21;stroke-linecap:butt;stroke-linejoin:miter;stroke-miterlimit:4;stroke-opacity:1;stroke-dasharray:none" />
  </g>
</svg>
