<?xml version="1.0" encoding="UTF-8" standalone="no"?>
<!-- Created with Inkscape (http://www.inkscape.org/) -->

<svg
   xmlns:dc="http://purl.org/dc/elements/1.1/"
   xmlns:cc="http://creativecommons.org/ns#"
   xmlns:rdf="http://www.w3.org/1999/02/22-rdf-syntax-ns#"
   xmlns:svg="http://www.w3.org/2000/svg"
   xmlns="http://www.w3.org/2000/svg"
   xmlns:sodipodi="http://sodipodi.sourceforge.net/DTD/sodipodi-0.dtd"
   xmlns:inkscape="http://www.inkscape.org/namespaces/inkscape"
   version="1.1"
   width="52.813442"
   height="52.885532"
   id="svg2"
   inkscape:version="0.48.4 r9939"
   sodipodi:docname="stack_image.svg">
  <sodipodi:namedview
     pagecolor="#ffffff"
     bordercolor="#666666"
     borderopacity="1"
     objecttolerance="10"
     gridtolerance="10"
     guidetolerance="10"
     inkscape:pageopacity="0"
     inkscape:pageshadow="2"
     inkscape:window-width="1600"
     inkscape:window-height="824"
     id="namedview9"
     showgrid="false"
     inkscape:zoom="7.5764138"
     inkscape:cx="23.903682"
     inkscape:cy="29.962364"
     inkscape:window-x="0"
     inkscape:window-y="24"
     inkscape:window-maximized="1"
     inkscape:current-layer="layer1"
     fit-margin-top="0"
     fit-margin-left="0"
     fit-margin-right="0"
     fit-margin-bottom="0" />
  <defs
     id="defs4" />
  <metadata
     id="metadata7">
    <rdf:RDF>
      <cc:Work
         rdf:about="">
        <dc:format>image/svg+xml</dc:format>
        <dc:type
           rdf:resource="http://purl.org/dc/dcmitype/StillImage" />
        <dc:title></dc:title>
      </cc:Work>
    </rdf:RDF>
  </metadata>
  <g
     transform="translate(466.41235,-355.09022)"
     id="layer1">
    <path
       style="fill:#0b0c0e"
       d="m -450.52678,407.79657 c -0.1796,-0.29022 0.24153,-0.6945 2.76144,-2.65261 1.12048,-0.87067 2.19488,-1.88787 2.38759,-2.26051 0.19252,-0.37261 0.40258,-1.3924 0.46645,-2.26615 0.18224,-2.49114 0.15409,-2.47706 4.9641,-2.47706 4.82254,0 4.7969,-0.0114 4.97651,2.51048 0.0637,0.89575 0.29433,1.91867 0.52115,2.31217 0.22392,0.3882 1.46026,1.51302 2.74778,2.49969 1.28751,0.98661 2.34091,1.93937 2.34091,2.11725 0,0.26853 -1.7806,0.33375 -10.51217,0.38461 -6.63408,0.0388 -10.56442,-0.0235 -10.65376,-0.16787 z m -13.6179,-11.545 c -0.36974,-0.11087 -0.88718,-0.39281 -1.14991,-0.62672 -1.13116,-1.007 -1.1186,-0.78226 -1.11767,-20.00248 8.4e-4,-17.60932 0.0114,-18.08247 0.46838,-18.82993 0.25708,-0.42171 0.81249,-0.97709 1.23419,-1.23419 0.75174,-0.45837 1.23284,-0.46752 24.64486,-0.46803 22.2692,-4.1e-4 23.93247,0.0264 24.6848,0.41083 0.44367,0.22626 1.02593,0.71021 1.29388,1.07552 0.48308,0.6585 0.48724,0.82261 0.48724,19.21467 0,18.39205 -0.007,18.55612 -0.48724,19.21466 -0.26792,0.36528 -0.85021,0.84929 -1.29388,1.07552 -0.7529,0.38391 -2.38178,0.40999 -24.44953,0.39146 -13.00362,-0.008 -23.9454,-0.1107 -24.31512,-0.22128 z m 45.75687,-8.64262 c 1.67055,-1.03884 1.6327,-0.68431 1.56021,-14.61315 -0.0634,-12.18155 -0.0756,-12.47684 -0.55208,-13.12588 -0.26792,-0.36519 -0.85024,-0.84908 -1.29386,-1.07533 -0.74969,-0.38225 -2.25265,-0.41133 -21.27366,-0.41133 -19.02103,0 -20.52397,0.0293 -21.27363,0.41133 -0.4437,0.22627 -1.02594,0.71014 -1.29389,1.07533 -0.47615,0.64888 -0.48876,0.94636 -0.55359,13.05653 -0.0599,11.17229 -0.0264,12.47888 0.32744,13.26952 0.40685,0.90602 1.13307,1.51698 2.18872,1.84138 0.33463,0.10267 9.76569,0.16846 20.95784,0.1459 l 20.34935,-0.0411 0.85715,-0.53306 z"
       id="path3137"
       inkscape:connector-curvature="0" />
    <g
       id="g3763"
       transform="translate(0.65994284,1.0559085)">
      <rect
         ry="0"
         rx="0"
         transform="translate(-466.41235,355.09022)"
         y="32.163326"
         x="32.601177"
         height="18.346411"
         width="17.290503"
         id="rect3761"
         style="color:#000000;fill:#cccccc;fill-opacity:1;fill-rule:nonzero;stroke:none;stroke-width:0.40000001;marker:none;visibility:visible;display:inline;overflow:visible;enable-background:accumulate" />
      <rect
         ry="1.1036576"
         rx="1.9691013"
         y="403.14496"
         x="-435.84967"
         height="3.5737486"
         width="21.285049"
         id="rect2983"
         style="color:#000000;fill:#666666;fill-opacity:1;fill-rule:nonzero;stroke:#808080;stroke-width:0.30086428;stroke-miterlimit:4;stroke-dasharray:none;marker:none;visibility:visible;display:inline;overflow:visible;enable-background:accumulate" />
      <rect
         style="color:#000000;fill:#666666;fill-opacity:1;fill-rule:nonzero;stroke:#808080;stroke-width:0.30086428;stroke-miterlimit:4;stroke-dasharray:none;marker:none;visibility:visible;display:inline;overflow:visible;enable-background:accumulate"
         id="rect3753"
         width="21.285049"
         height="3.5737486"
         x="-435.84967"
         y="398.86331"
         rx="1.9691013"
         ry="1.1036576" />
      <rect
         ry="1.1036576"
         rx="1.9691013"
         y="394.58167"
         x="-435.84967"
         height="3.5737486"
         width="21.285049"
         id="rect3755"
         style="color:#000000;fill:#666666;fill-opacity:1;fill-rule:nonzero;stroke:#808080;stroke-width:0.30086428;stroke-miterlimit:4;stroke-dasharray:none;marker:none;visibility:visible;display:inline;overflow:visible;enable-background:accumulate" />
      <rect
         style="color:#000000;fill:#666666;fill-opacity:1;fill-rule:nonzero;stroke:#808080;stroke-width:0.30086428;stroke-miterlimit:4;stroke-dasharray:none;marker:none;visibility:visible;display:inline;overflow:visible;enable-background:accumulate"
         id="rect3757"
         width="21.285049"
         height="3.5737486"
         x="-435.84967"
         y="390.30002"
         rx="1.9691013"
         ry="1.1036576" />
      <rect
         style="color:#000000;fill:#666666;fill-opacity:1;fill-rule:nonzero;stroke:#808080;stroke-width:0.30086428;stroke-miterlimit:4;stroke-dasharray:none;marker:none;visibility:visible;display:inline;overflow:visible;enable-background:accumulate"
         id="rect3759"
         width="21.285049"
         height="3.5737486"
         x="-435.84967"
         y="386.01837"
         rx="1.9691013"
         ry="1.1036576" />
    </g>
    <g
       style="font-size:5.32197762px;font-style:normal;font-weight:bold;line-height:125%;letter-spacing:0px;word-spacing:0px;fill:#1a1a1a;fill-opacity:1;stroke:none;font-family:Sans;-inkscape-font-specification:Sans Bold"
       id="text3790">
      <path
         d="m -427.08141,360.11003 c 0.37247,0 0.74494,0 1.11741,0 0.47035,0.887 0.9407,1.77399 1.41105,2.66099 0,-0.887 0,-1.77399 0,-2.66099 0.31617,0 0.63233,0 0.9485,0 0,1.29325 0,2.5865 0,3.87975 -0.37247,0 -0.74494,0 -1.11741,0 -0.47035,-0.887 -0.9407,-1.77399 -1.41105,-2.66099 0,0.887 0,1.77399 0,2.66099 -0.31617,0 -0.63233,0 -0.9485,0 0,-1.29325 0,-2.5865 0,-3.87975 z"
         id="path3837"
         inkscape:connector-curvature="0" />
    </g>
    <g
       style="font-size:5.32197762px;font-style:normal;font-weight:bold;line-height:125%;letter-spacing:0px;word-spacing:0px;fill:#b3b3b3;fill-opacity:1;stroke:none;font-family:Sans;-inkscape-font-specification:Sans Bold"
       id="text3798">
      <path
         d="m -421.37972,361.61204 c 0.3068,0.0478 0.57212,-0.24965 0.46357,-0.54713 -0.0747,-0.27548 -0.39434,-0.28426 -0.62964,-0.27404 -0.12915,0 -0.25829,0 -0.38744,0 0,0.27372 0,0.54745 0,0.82117 0.1845,0 0.36901,0 0.55351,0 z m 0.0338,1.6969 c 0.33006,0.0416 0.67395,-0.21736 0.60312,-0.57296 1.8e-4,-0.32854 -0.35439,-0.47068 -0.63633,-0.4431 -0.1847,0 -0.36939,0 -0.55408,0 0,0.33869 0,0.67737 0,1.01606 0.19576,0 0.39153,0 0.58729,0 z m 0.9303,-1.39546 c 0.44009,0.10462 0.70898,0.56282 0.67528,0.99889 0.0168,0.43025 -0.26884,0.84162 -0.68654,0.95878 -0.54655,0.17906 -1.12835,0.1013 -1.69324,0.11863 -0.27119,0 -0.54237,0 -0.81356,0 0,-1.29325 0,-2.5865 0,-3.87975 0.64036,0.008 1.28184,-0.0181 1.92124,0.0193 0.42321,0.0344 0.93189,0.18832 1.06279,0.645 0.1402,0.4315 0.0121,0.98617 -0.46597,1.13913 z"
         id="path3834"
         inkscape:connector-curvature="0" />
    </g>
  </g>
</svg>
