<?xml version="1.0" encoding="UTF-8" standalone="no"?>
<!-- Created with Inkscape (http://www.inkscape.org/) -->

<svg
   xmlns:dc="http://purl.org/dc/elements/1.1/"
   xmlns:cc="http://creativecommons.org/ns#"
   xmlns:rdf="http://www.w3.org/1999/02/22-rdf-syntax-ns#"
   xmlns:svg="http://www.w3.org/2000/svg"
   xmlns="http://www.w3.org/2000/svg"
   xmlns:sodipodi="http://sodipodi.sourceforge.net/DTD/sodipodi-0.dtd"
   xmlns:inkscape="http://www.inkscape.org/namespaces/inkscape"
   version="1.1"
   width="52.813442"
   height="52.885532"
   id="svg2"
   inkscape:version="0.48.4 r9939"
   sodipodi:docname="stack_image.svg">
  <sodipodi:namedview
     pagecolor="#ffffff"
     bordercolor="#666666"
     borderopacity="1"
     objecttolerance="10"
     gridtolerance="10"
     guidetolerance="10"
     inkscape:pageopacity="0"
     inkscape:pageshadow="2"
     inkscape:window-width="1600"
     inkscape:window-height="824"
     id="namedview9"
     showgrid="false"
     inkscape:zoom="5.3573336"
     inkscape:cx="65.103151"
     inkscape:cy="16.413925"
     inkscape:window-x="0"
     inkscape:window-y="24"
     inkscape:window-maximized="1"
     inkscape:current-layer="layer1"
     fit-margin-top="0"
     fit-margin-left="0"
     fit-margin-right="0"
     fit-margin-bottom="0" />
  <defs
     id="defs4" />
  <metadata
     id="metadata7">
    <rdf:RDF>
      <cc:Work
         rdf:about="">
        <dc:format>image/svg+xml</dc:format>
        <dc:type
           rdf:resource="http://purl.org/dc/dcmitype/StillImage" />
        <dc:title></dc:title>
      </cc:Work>
    </rdf:RDF>
  </metadata>
  <g
     transform="translate(466.41235,-355.09022)"
     id="layer1">
    <path
       style="fill:#0b0c0e"
       d="m -450.52678,407.79657 c -0.1796,-0.29022 0.24153,-0.6945 2.76144,-2.65261 1.12048,-0.87067 2.19488,-1.88787 2.38759,-2.26051 0.19252,-0.37261 0.40258,-1.3924 0.46645,-2.26615 0.18224,-2.49114 0.15409,-2.47706 4.9641,-2.47706 4.82254,0 4.7969,-0.0114 4.97651,2.51048 0.0637,0.89575 0.29433,1.91867 0.52115,2.31217 0.22392,0.3882 1.46026,1.51302 2.74778,2.49969 1.28751,0.98661 2.34091,1.93937 2.34091,2.11725 0,0.26853 -1.7806,0.33375 -10.51217,0.38461 -6.63408,0.0388 -10.56442,-0.0235 -10.65376,-0.16787 z m -13.6179,-11.545 c -0.36974,-0.11087 -0.88718,-0.39281 -1.14991,-0.62672 -1.13116,-1.007 -1.1186,-0.78226 -1.11767,-20.00248 8.4e-4,-17.60932 0.0114,-18.08247 0.46838,-18.82993 0.25708,-0.42171 0.81249,-0.97709 1.23419,-1.23419 0.75174,-0.45837 1.23284,-0.46752 24.64486,-0.46803 22.2692,-4.1e-4 23.93247,0.0264 24.6848,0.41083 0.44367,0.22626 1.02593,0.71021 1.29388,1.07552 0.48308,0.6585 0.48724,0.82261 0.48724,19.21467 0,18.39205 -0.007,18.55612 -0.48724,19.21466 -0.26792,0.36528 -0.85021,0.84929 -1.29388,1.07552 -0.7529,0.38391 -2.38178,0.40999 -24.44953,0.39146 -13.00362,-0.008 -23.9454,-0.1107 -24.31512,-0.22128 z m 45.75687,-8.64262 c 1.67055,-1.03884 1.6327,-0.68431 1.56021,-14.61315 -0.0634,-12.18155 -0.0756,-12.47684 -0.55208,-13.12588 -0.26792,-0.36519 -0.85024,-0.84908 -1.29386,-1.07533 -0.74969,-0.38225 -2.25265,-0.41133 -21.27366,-0.41133 -19.02103,0 -20.52397,0.0293 -21.27363,0.41133 -0.4437,0.22627 -1.02594,0.71014 -1.29389,1.07533 -0.47615,0.64888 -0.48876,0.94636 -0.55359,13.05653 -0.0599,11.17229 -0.0264,12.47888 0.32744,13.26952 0.40685,0.90602 1.13307,1.51698 2.18872,1.84138 0.33463,0.10267 9.76569,0.16846 20.95784,0.1459 l 20.34935,-0.0411 0.85715,-0.53306 z"
       id="path3137"
       inkscape:connector-curvature="0" />
    <g
       id="g3763"
       transform="translate(0.65994284,1.0559085)">
      <rect
         ry="0"
         rx="0"
         transform="translate(-466.41235,355.09022)"
         y="32.163326"
         x="32.601177"
         height="18.346411"
         width="17.290503"
         id="rect3761"
         style="color:#000000;fill:#cccccc;fill-opacity:1;fill-rule:nonzero;stroke:none;stroke-width:0.40000001;marker:none;visibility:visible;display:inline;overflow:visible;enable-background:accumulate" />
      <rect
         ry="1.1036576"
         rx="1.9691013"
         y="403.14496"
         x="-435.84967"
         height="3.5737486"
         width="21.285049"
         id="rect2983"
         style="color:#000000;fill:#666666;fill-opacity:1;fill-rule:nonzero;stroke:#808080;stroke-width:0.30086428;stroke-miterlimit:4;stroke-dasharray:none;marker:none;visibility:visible;display:inline;overflow:visible;enable-background:accumulate" />
      <rect
         style="color:#000000;fill:#666666;fill-opacity:1;fill-rule:nonzero;stroke:#808080;stroke-width:0.30086428;stroke-miterlimit:4;stroke-dasharray:none;marker:none;visibility:visible;display:inline;overflow:visible;enable-background:accumulate"
         id="rect3753"
         width="21.285049"
         height="3.5737486"
         x="-435.84967"
         y="398.86331"
         rx="1.9691013"
         ry="1.1036576" />
      <rect
         ry="1.1036576"
         rx="1.9691013"
         y="394.58167"
         x="-435.84967"
         height="3.5737486"
         width="21.285049"
         id="rect3755"
         style="color:#000000;fill:#666666;fill-opacity:1;fill-rule:nonzero;stroke:#808080;stroke-width:0.30086428;stroke-miterlimit:4;stroke-dasharray:none;marker:none;visibility:visible;display:inline;overflow:visible;enable-background:accumulate" />
      <rect
         style="color:#000000;fill:#666666;fill-opacity:1;fill-rule:nonzero;stroke:#808080;stroke-width:0.30086428;stroke-miterlimit:4;stroke-dasharray:none;marker:none;visibility:visible;display:inline;overflow:visible;enable-background:accumulate"
         id="rect3757"
         width="21.285049"
         height="3.5737486"
         x="-435.84967"
         y="390.30002"
         rx="1.9691013"
         ry="1.1036576" />
      <rect
         style="color:#000000;fill:#666666;fill-opacity:1;fill-rule:nonzero;stroke:#808080;stroke-width:0.30086428;stroke-miterlimit:4;stroke-dasharray:none;marker:none;visibility:visible;display:inline;overflow:visible;enable-background:accumulate"
         id="rect3759"
         width="21.285049"
         height="3.5737486"
         x="-435.84967"
         y="386.01837"
         rx="1.9691013"
         ry="1.1036576" />
    </g>
    <g
       style="font-size:5.32197762px;font-style:normal;font-weight:bold;line-height:125%;letter-spacing:0px;word-spacing:0px;fill:#ff0000;fill-opacity:1;stroke:none;font-family:Sans;-inkscape-font-specification:Sans Bold"
       id="text3790">
      <path
         d="m -429.81761,361.83032 c 0.49966,0.10823 0.78516,-0.54448 0.44956,-0.88093 -0.25546,-0.17454 -0.5799,-0.0967 -0.87054,-0.11434 0,0.33176 0,0.66351 0,0.99527 0.14033,0 0.28065,0 0.42098,0 z m -0.42098,0.69124 c 0,0.48941 0,0.97881 0,1.46822 -0.33349,0 -0.66698,0 -1.00047,0 0,-1.29325 0,-2.5865 0,-3.87975 0.68167,0.0122 1.36624,-0.0308 2.0452,0.0362 0.45351,0.0386 0.92071,0.34766 0.95139,0.83642 0.10564,0.51662 -0.20265,1.07771 -0.73319,1.1933 0.52925,0.14902 0.68621,0.73666 0.92277,1.1712 0.10559,0.21421 0.21118,0.42843 0.31677,0.64264 -0.35514,0 -0.71029,0 -1.06543,0 -0.21912,-0.41779 -0.38967,-0.86421 -0.65364,-1.25583 -0.18544,-0.25341 -0.51002,-0.20923 -0.7834,-0.21239 z"
         id="path3809"
         inkscape:connector-curvature="0" />
    </g>
    <g
       style="font-size:5.32197762px;font-style:normal;font-weight:bold;line-height:125%;letter-spacing:0px;word-spacing:0px;fill:#00ff00;fill-opacity:1;stroke:none;font-family:Sans;-inkscape-font-specification:Sans Bold"
       id="text3794">
      <path
         d="m -423.86429,363.70133 c -0.81739,0.38418 -1.81548,0.5176 -2.66282,0.15271 -0.73213,-0.31933 -1.10639,-1.14619 -1.04576,-1.9159 -0.005,-0.77838 0.50408,-1.53501 1.25808,-1.76374 0.75151,-0.23488 1.5899,-0.15821 2.30758,0.154 0,0.26766 0,0.53531 0,0.80297 -0.61241,-0.34472 -1.44839,-0.55364 -2.08003,-0.14515 -0.51861,0.3913 -0.54603,1.16462 -0.33182,1.72783 0.24992,0.61478 1.03929,0.74219 1.60628,0.5455 0,-0.2512 0,-0.5024 0,-0.7536 -0.20356,0 -0.40712,0 -0.61068,0 0,-0.22348 0,-0.44696 0,-0.67044 0.51972,0 1.03945,0 1.55917,0 0,0.62194 0,1.24387 0,1.86581 z"
         id="path3806"
         inkscape:connector-curvature="0" />
    </g>
    <g
       style="font-size:5.32197762px;font-style:normal;font-weight:bold;line-height:125%;letter-spacing:0px;word-spacing:0px;fill:#0000ff;fill-opacity:1;stroke:none;font-family:Sans;-inkscape-font-specification:Sans Bold"
       id="text3798">
      <path
         d="m -421.37972,361.61204 c 0.57793,0.10948 0.65043,-0.8599 0.0573,-0.8195 -0.20357,-0.004 -0.40723,-7.2e-4 -0.61084,-0.002 0,0.27372 0,0.54745 0,0.82117 0.1845,0 0.36901,0 0.55351,0 z m 0.0338,1.6969 c 0.38575,0.0625 0.72124,-0.30775 0.58426,-0.68307 -0.11834,-0.3901 -0.57755,-0.33051 -0.90102,-0.33299 -0.14941,-0.002 -0.34148,-0.0474 -0.27053,0.17057 0,0.28183 0,0.56366 0,0.84549 0.19576,0 0.39153,0 0.58729,0 z m 0.9303,-1.39546 c 0.84395,0.20195 0.91429,1.55575 0.14009,1.89445 -0.62105,0.27366 -1.3137,0.15569 -1.97229,0.18185 -0.22862,0 -0.45724,0 -0.68586,0 0,-1.29325 0,-2.5865 0,-3.87975 0.70783,0.0143 1.41956,-0.0373 2.1236,0.0468 0.42448,0.044 0.86507,0.32896 0.8988,0.78832 0.0742,0.39492 -0.0981,0.83848 -0.50434,0.96838 z"
         id="path3803"
         inkscape:connector-curvature="0" />
    </g>
  </g>
</svg>
